<?xml version="1.0" encoding="UTF-8" standalone="no"?>
<svg
   viewBox="0 0 512 512"
   version="1.1"
   id="svg4"
   sodipodi:docname="facebook.svg"
   inkscape:version="1.1 (c68e22c387, 2021-05-23)"
   xmlns:inkscape="http://www.inkscape.org/namespaces/inkscape"
   xmlns:sodipodi="http://sodipodi.sourceforge.net/DTD/sodipodi-0.dtd"
   xmlns="http://www.w3.org/2000/svg"
   xmlns:svg="http://www.w3.org/2000/svg">
  <defs
     id="defs8" />
  <sodipodi:namedview
     id="namedview6"
     pagecolor="#ffffff"
     bordercolor="#666666"
     borderopacity="1.0"
     inkscape:pageshadow="2"
     inkscape:pageopacity="0.0"
     inkscape:pagecheckerboard="0"
     showgrid="false"
     inkscape:zoom="0.8125"
     inkscape:cx="244.30769"
     inkscape:cy="255.38462"
     inkscape:window-width="1920"
     inkscape:window-height="1009"
     inkscape:window-x="0"
     inkscape:window-y="40"
     inkscape:window-maximized="1"
     inkscape:current-layer="svg4" />
  <!--! Font Awesome Free 6.3.0 by @fontawesome - https://fontawesome.com License - https://fontawesome.com/license/free (Icons: CC BY 4.0, Fonts: SIL OFL 1.1, Code: MIT License) Copyright 2023 Fonticons, Inc. -->
  <path
     style="display:inline;fill:#000000;fill-opacity:1;stroke:none;stroke-width:17.5493;stroke-linecap:round;stroke-linejoin:bevel;stroke-miterlimit:4;stroke-dasharray:none;stroke-dashoffset:0;stroke-opacity:1"
     d="M 257.79478,3.3194198 C 117.756,3.3180216 4.2336998,116.84391 4.2313522,256.88254 4.3459698,285.97036 9.4475923,314.82591 19.33973,342.17992 12.256966,318.70125 8.6149748,294.31116 8.5331372,269.78727 8.5348634,129.74873 122.05771,16.243814 262.09665,16.245144 364.01229,16.248596 456.0316,77.258233 495.68289,171.14444 451.04472,90.663228 366.29808,40.684378 274.26638,40.564927 134.22837,40.566653 20.702091,154.08935 20.703248,294.12806 c 0.177105,29.36821 5.483071,58.49456 15.632822,86.05291 41.306993,74.2366 116.761,122.33347 200.51681,129.29953 -0.11789,-20.47816 -0.2356,-23.24243 -0.34796,-51.5141 l -0.52194,-118.64001 -22.97708,-0.54535 -22.95587,-0.54535 -0.29492,-40.33005 c -0.23562,-28.85594 0.0625,-40.75004 0.94653,-41.8199 0.97016,-1.17504 6.00242,-1.51092 23.39613,-1.51092 h 22.13759 l 0.58671,-34.70655 c 0.46265,-28.92584 0.9583,-36.34821 2.75117,-44.54774 8.2514,-37.72088 30.52967,-61.95297 65.34273,-71.04971 12.23814,-3.19797 25.90224,-3.95693 65.53027,-3.62989 l 39.36497,0.31755 v 40.45589 40.45606 l -30.06998,0.54534 c -29.18831,0.52819 -30.1885,0.63118 -34.20209,3.12699 -2.27346,1.41417 -5.21009,4.59693 -6.54701,7.09228 -2.33245,4.3521 -2.4298,5.714 -2.4298,32.98586 v 28.41163 l 36.59498,0.29179 c 20.12388,0.15605 36.99095,0.68967 37.47661,1.1748 0.74586,0.75288 -5.97709,73.75242 -7.44968,80.82793 l -0.52507,2.45485 h -31.60102 c -17.37895,0 -32.3915,0.2832 -33.34249,0.65067 -1.56285,0.59996 -1.72497,12.1205 -1.72497,119.18544 v 39.49082 C 437.74436,465.13616 511.34971,369.62248 511.34854,256.88387 511.34681,116.84774 397.82203,3.3228548 257.78527,3.3206626 Z"
     id="path12903"
     inkscape:connector-curvature="0"
     inkscape:export-xdpi="96"
     inkscape:export-ydpi="96" />
</svg>
