<?xml version="1.0" encoding="UTF-8" standalone="no"?>
<svg
   viewBox="0 0 512 512"
   version="1.1"
   id="svg4"
   sodipodi:docname="google-plus.svg"
   inkscape:version="1.1 (c68e22c387, 2021-05-23)"
   xmlns:inkscape="http://www.inkscape.org/namespaces/inkscape"
   xmlns:sodipodi="http://sodipodi.sourceforge.net/DTD/sodipodi-0.dtd"
   xmlns="http://www.w3.org/2000/svg"
   xmlns:svg="http://www.w3.org/2000/svg">
  <defs
     id="defs8" />
  <sodipodi:namedview
     id="namedview6"
     pagecolor="#ffffff"
     bordercolor="#666666"
     borderopacity="1.0"
     inkscape:pageshadow="2"
     inkscape:pageopacity="0.0"
     inkscape:pagecheckerboard="0"
     showgrid="false"
     inkscape:zoom="0.8125"
     inkscape:cx="244.30769"
     inkscape:cy="255.38462"
     inkscape:window-width="1920"
     inkscape:window-height="1009"
     inkscape:window-x="0"
     inkscape:window-y="40"
     inkscape:window-maximized="1"
     inkscape:current-layer="svg4" />
  <!--! Font Awesome Free 6.3.0 by @fontawesome - https://fontawesome.com License - https://fontawesome.com/license/free (Icons: CC BY 4.0, Fonts: SIL OFL 1.1, Code: MIT License) Copyright 2023 Fonticons, Inc. -->
  <path
     id="path111128"
     style="display:inline;fill:#000000;fill-opacity:1;stroke:none;stroke-width:17.2459;stroke-linecap:round;stroke-linejoin:bevel;stroke-miterlimit:4;stroke-dasharray:none;stroke-dashoffset:0;stroke-opacity:1"
     d="M 256.00004,6.8169461 C 118.38016,6.8154819 6.818927,118.35058 6.816941,255.97013 6.9326968,284.55549 11.95103,312.91825 21.67208,339.79967 14.711753,316.72632 11.135557,292.78388 11.05505,268.68377 11.056527,131.0642 122.63329,19.499282 260.25285,19.500746 360.40871,19.505174 450.82243,79.456479 489.7889,171.72104 445.92134,92.630052 362.62904,43.53303 272.18788,43.415647 134.5677,43.418634 23.003032,154.97909 23.004795,292.59866 c 0.203177,28.861 5.388168,57.46543 15.364538,84.54848 43.953139,78.99163 127.232927,127.9965 217.630707,128.03592 137.62017,-0.001 249.18507,-111.59329 249.18302,-249.21293 C 505.18192,118.35318 393.61668,6.8192463 256.00004,6.8169461 Z M 266.4826,95.094361 c 6.97681,-0.08662 13.91597,1.104072 20.45576,3.444015 1.95022,0.698477 3.86748,1.495324 5.73543,2.396534 0.62335,0.30132 1.24316,0.6057 1.85744,0.92735 0.50681,0.26067 1.01429,0.54206 1.51267,0.82291 0.0866,0.0614 0.20318,0.11575 0.29824,0.17404 0.49839,0.28982 0.99398,0.5827 1.48377,0.88388 0.58499,0.35652 1.16486,0.72991 1.73576,1.1069 0.5712,0.37646 1.13597,0.77086 1.69229,1.16787 1.1244,0.80267 2.21397,1.64598 3.27949,2.52978 1.59668,1.32718 3.12152,2.74714 4.56756,4.25291 0.96498,1.00554 1.89517,2.04873 2.78479,3.12989 0.0866,0.11575 0.20319,0.20318 0.28982,0.33045 1.25764,1.55322 16.41043,27.30677 35.35585,59.82478 1.32429,2.27193 2.38196,4.07287 3.74365,6.40944 0.0615,0.11575 0.11575,0.23154 0.20318,0.34503 31.36984,53.83295 71.40014,123.22207 80.87982,140.52496 1.06643,1.93862 1.75027,3.24266 1.97628,3.74371 6.59055,14.65113 6.22691,30.89371 0.46388,44.92471 -0.72149,1.75317 -1.52431,3.47422 -2.41102,5.15149 -0.88671,1.67781 -1.86044,3.31107 -2.90511,4.89673 -0.52135,0.794 -1.05767,1.56778 -1.61698,2.33564 v 0.0154 c -0.55895,0.76519 -1.15622,1.50976 -1.75318,2.2458 -0.60264,0.74217 -1.2026,1.47211 -1.84295,2.185 -0.63716,0.71304 -1.30121,1.39964 -1.97637,2.08064 -5.38298,5.43257 -11.91357,9.83084 -19.40761,12.72841 -0.75062,0.28982 -1.50108,0.56507 -2.26029,0.82301 -0.39714,0.14487 -0.79984,0.26068 -1.19684,0.38795 -0.29518,0.0866 -0.58806,0.20318 -0.8838,0.28983 -0.55355,0.17402 -1.10988,0.32431 -1.66338,0.47841 -4.78807,1.33011 -9.57845,2.04875 -14.36075,2.14153 -0.56509,0.008 -1.12724,0.0231 -1.69232,0.0153 -0.53055,-10e-4 -1.06067,-0.0153 -1.58802,-0.0307 -2.95722,-0.0866 -5.86638,-0.41172 -8.67035,-0.97364 h -0.0153 c -2.14442,-0.43166 -4.29721,-1.0287 -6.42423,-1.7387 -0.48994,-0.14487 -0.97657,-0.3243 -1.46628,-0.49222 -0.55356,-0.20316 -1.1099,-0.36265 -1.66338,-0.56814 -4.49772,-1.69519 -8.94322,-4.1598 -13.04309,-7.12809 -0.11576,-0.0866 -0.20319,-0.14489 -0.31589,-0.23154 -0.20242,-0.14488 -0.40022,-0.29826 -0.59958,-0.44929 -4.95559,-3.62167 -9.27013,-7.86822 -12.42909,-12.47427 -0.14488,-0.23154 -0.69847,-1.15336 -1.04902,-1.72136 -0.0615,-0.0615 -0.11576,-0.14487 -0.14489,-0.20241 -0.0615,-0.0866 -0.40559,-0.68391 -0.49529,-0.82298 -0.40255,-0.66628 -0.85481,-1.41996 -1.39383,-2.32117 -0.87804,-1.47209 -1.8517,-3.11517 -3.41428,-5.78027 -2.15307,-3.67129 -4.92484,-8.43012 -8.0863,-13.86669 -13.19414,-22.646 -32.93734,-56.82148 -52.54719,-90.92803 l -1.9329,3.38436 c -1.06927,1.86618 -14.4767,24.93777 -29.78503,51.27412 -15.30835,26.33603 -29.31382,50.51115 -31.11806,53.71534 -10.92334,19.40033 -28.1382,30.24638 -49.38738,31.10295 -4.48178,0.17405 -9.1293,-0.11576 -12.63887,-0.77952 -17.37013,-3.2853 -32.99436,-15.17041 -41.16595,-31.32751 -1.02587,-2.02559 -2.700766,-6.49204 -3.728935,-9.92831 -1.567713,-5.22678 -1.883597,-7.69201 -1.932804,-15.10984 -0.08662,-13.0095 2.100869,-20.23726 10.452399,-34.39723 2.072,-3.51478 26.02945,-44.87141 53.23601,-91.88635 27.20687,-47.01492 50.5219,-87.07564 51.8132,-89.02586 1.16778,-1.76485 2.83402,-4.62614 3.93838,-6.75372 0.0615,-0.11576 0.0866,-0.23154 0.14489,-0.33045 0.47536,-0.94467 0.97657,-1.88644 1.49817,-2.79928 0.0231,-0.0307 0.0307,-0.0615 0.0615,-0.11576 0.49531,-0.87805 1.01713,-1.73868 1.55613,-2.59066 2.22555,-3.50834 4.82434,-6.77655 7.72735,-9.74858 0.71843,-0.73604 1.44604,-1.45761 2.20234,-2.15592 0.0154,-0.0155 0.0307,-0.0307 0.0615,-0.0615 0.30132,-0.28982 0.62333,-0.539 0.92733,-0.8085 0.46387,-0.41173 0.91861,-0.83166 1.39382,-1.22867 0.78244,-0.65477 1.58227,-1.28954 2.39653,-1.90099 0.80267,-0.60264 1.61118,-1.19104 2.44001,-1.75318 0.008,-0.005 0.0231,-0.008 0.0307,-0.0153 0.0307,-0.0307 0.0866,-0.0615 0.11574,-0.0866 1.64024,-1.10406 3.33836,-2.12411 5.07675,-3.05482 0.0154,-0.007 0.0307,-0.007 0.0615,-0.0153 1.65174,-0.88096 3.33483,-1.683631 5.06133,-2.396521 0.14489,-0.06136 0.26068,-0.115759 0.4056,-0.174056 0.008,-0.0042 0.0231,-0.0073 0.0307,-0.01534 0.92735,-0.374171 1.87202,-0.724557 2.81386,-1.049031 0.008,-0.0031 0.023,-0.0073 0.0307,-0.01544 0.95334,-0.327385 1.90676,-0.625643 2.87457,-0.89829 1.35042,-0.379535 2.7066,-0.701545 4.07327,-0.973723 2.7529,-0.550501 5.53133,-0.883804 8.31091,-1.017127 0.66397,-0.03068 1.32726,-0.06136 1.99086,-0.08662 z m 5.40588,14.316129 c -4.41973,0.0615 -8.84646,0.66092 -13.16307,1.87195 -14.23588,3.99581 -26.5206,14.31154 -33.42412,28.06314 -5.94175,11.83972 -6.39403,29.22779 -1.09249,42.2741 1.7271,4.24799 105.13668,183.942 109.60166,190.45133 6.93103,10.10532 19.89645,18.4279 32.72025,21.00989 9.3104,1.87193 19.84549,0.85481 29.41067,-2.84568 27.28269,-10.54895 40.62923,-43.00898 28.63226,-69.67854 C 421.34194,313.37232 316.67441,132.68498 313.39961,128.63784 303.35309,116.22239 287.67326,109.236 271.88909,109.41019 Z M 153.16712,299.12778 c -4.85563,-10e-4 -9.72022,0.50449 -13.31266,1.52715 -14.11328,4.0202 -27.51895,14.90988 -33.15461,26.93999 -4.09143,8.7303 -5.11846,13.32914 -5.0315,22.80676 0.0307,6.65196 0.31589,8.86531 1.72136,13.55225 0.92434,3.08182 2.437,7.09329 3.35423,8.91025 7.32774,14.48942 21.3361,25.14679 36.91335,28.09297 17.77035,3.3609 37.62425,-3.69097 48.99797,-17.41589 4.93727,-5.95793 7.44857,-10.85243 9.50888,-18.50901 1.58513,-5.88119 1.78217,-7.74736 1.75319,-15.58889 -0.0307,-8.23186 -0.17405,-9.35939 -2.03716,-14.945 -5.56761,-16.80538 -18.23982,-28.91506 -35.43062,-33.84343 -3.57619,-1.02579 -8.42714,-1.52715 -13.28276,-1.52715 z" />
</svg>
