<?xml version="1.0" encoding="UTF-8" standalone="no"?>
<svg
   viewBox="0 0 448 512"
   version="1.1"
   id="svg4"
   sodipodi:docname="instagram.svg"
   inkscape:version="1.1 (c68e22c387, 2021-05-23)"
   xmlns:inkscape="http://www.inkscape.org/namespaces/inkscape"
   xmlns:sodipodi="http://sodipodi.sourceforge.net/DTD/sodipodi-0.dtd"
   xmlns="http://www.w3.org/2000/svg"
   xmlns:svg="http://www.w3.org/2000/svg">
  <defs
     id="defs8" />
  <sodipodi:namedview
     id="namedview6"
     pagecolor="#ffffff"
     bordercolor="#666666"
     borderopacity="1.0"
     inkscape:pageshadow="2"
     inkscape:pageopacity="0.0"
     inkscape:pagecheckerboard="0"
     showgrid="false"
     inkscape:zoom="1.1490485"
     inkscape:cx="201.47104"
     inkscape:cy="226.70931"
     inkscape:window-width="1920"
     inkscape:window-height="1009"
     inkscape:window-x="0"
     inkscape:window-y="40"
     inkscape:window-maximized="1"
     inkscape:current-layer="svg4" />
  <!--! Font Awesome Free 6.3.0 by @fontawesome - https://fontawesome.com License - https://fontawesome.com/license/free (Icons: CC BY 4.0, Fonts: SIL OFL 1.1, Code: MIT License) Copyright 2023 Fonticons, Inc. -->
  <path
     style="display:inline;fill:#000000;fill-opacity:1;stroke:none;stroke-width:15.4062;stroke-linecap:round;stroke-linejoin:bevel;stroke-miterlimit:4;stroke-dasharray:none;stroke-dashoffset:0;stroke-opacity:1"
     d="M 224.00018,33.398652 C 101.06099,33.397345 1.4004672,133.04265 1.3987548,255.98158 1.5097128,281.51758 5.9776972,306.8498 14.66189,330.86368 8.4441202,310.25163 5.2471542,288.85835 5.1751682,267.32918 5.1769572,144.39025 104.8561,44.726585 227.79495,44.727824 317.26669,44.730576 398.03185,98.290623 432.84128,180.71282 393.65351,110.0589 319.25429,66.201108 238.46097,66.096321 115.52158,66.097697 15.857909,165.75868 15.859347,288.69759 c 0.178767,25.78216 4.811544,51.33316 13.723814,75.52718 39.264538,70.56508 113.662539,114.34131 194.417019,114.37658 122.93947,-0.001 222.60293,-99.68078 222.60107,-222.61977 -0.001,-122.9366 -99.66468,-222.580878 -222.60107,-222.582928 z m 7.62605,79.874328 c 37.49214,0.005 74.97033,0.75336 82.15891,2.26514 17.9353,3.77203 31.94822,11.62951 46.20004,25.88161 14.7799,14.77935 22.49683,28.91987 25.9186,47.48968 2.99354,16.22648 2.95032,148.86684 -0.0274,163.11921 -3.76784,17.93632 -11.61136,31.96704 -25.86373,46.21895 -14.25182,14.2523 -28.28181,22.09088 -46.21895,25.8629 -15.42551,3.23999 -153.52906,2.72951 -167.35574,-0.62396 h -0.0699 c -33.92622,-8.22769 -61.900628,-37.1525 -69.116335,-71.45563 -2.865871,-13.62977 -3.047582,-149.15861 -0.178765,-164.077 6.591807,-34.75725 36.84346,-65.06027 72.30296,-72.43214 7.26159,-1.50916 44.75915,-2.25217 82.25055,-2.24697 z m -78.86086,29.30804 -11.27348,5.28688 c -14.34197,6.72619 -25.17963,17.56277 -31.90555,31.90548 l -5.28688,11.29218 -0.61027,74.38472 c -0.66233,82.07324 -0.11164,86.86074 11.64198,104.63219 7.25248,10.94946 18.4431,19.19056 32.99252,24.29779 9.55788,3.35676 17.32379,3.63375 86.24766,3.188 l 75.72984,-0.48905 11.29218,-5.28537 c 14.3419,-6.72571 25.17847,-17.56249 31.90576,-31.9052 l 5.2853,-11.27404 v -78.76695 -78.76894 l -5.2853,-11.29218 c -6.72729,-14.34298 -17.56386,-25.17949 -31.90576,-31.90575 l -11.29218,-5.3001 h -78.76921 z m 160.72518,31.50006 c 6.9038,-0.98368 13.96293,4.16546 13.96293,12.26863 0,10.33904 -13.93162,15.73414 -20.8709,8.08686 -4.41319,-4.87819 -4.23483,-13.04348 0.30274,-17.2053 2.00369,-1.81211 4.27395,-2.82197 6.57613,-3.14971 z m -84.25856,10.85027 c 22.21157,-0.5719 44.61287,7.77934 62.02398,25.18162 47.38249,47.35634 23.59341,128.69566 -41.6874,142.52448 -16.76057,3.55176 -20.26205,3.5473 -37.00784,-0.12949 -7.107,-1.54033 -17.89748,-5.78476 -23.96593,-9.43145 -46.51682,-27.95536 -56.20607,-90.2131 -20.20816,-129.83264 16.60702,-18.277 38.63379,-27.77907 60.84535,-28.35015 z m 4.58586,28.58962 c -29.5298,-0.65205 -58.7557,22.13026 -58.57921,56.31333 0.20686,41.48 41.11064,67.72736 79.74544,51.19253 35.01299,-14.98468 43.76198,-63.04465 16.56072,-90.96378 -10.81814,-11.10377 -24.30374,-16.24564 -37.7264,-16.54208 z"
     id="path12967"
     inkscape:connector-curvature="0" />
</svg>
