<?xml version="1.0" encoding="UTF-8" standalone="no"?>
<svg
   viewBox="0 0 448 512"
   version="1.1"
   id="svg4"
   sodipodi:docname="linkedin.svg"
   inkscape:version="1.1 (c68e22c387, 2021-05-23)"
   xmlns:inkscape="http://www.inkscape.org/namespaces/inkscape"
   xmlns:sodipodi="http://sodipodi.sourceforge.net/DTD/sodipodi-0.dtd"
   xmlns="http://www.w3.org/2000/svg"
   xmlns:svg="http://www.w3.org/2000/svg">
  <defs
     id="defs8" />
  <sodipodi:namedview
     id="namedview6"
     pagecolor="#ffffff"
     bordercolor="#666666"
     borderopacity="1.0"
     inkscape:pageshadow="2"
     inkscape:pageopacity="0.0"
     inkscape:pagecheckerboard="0"
     showgrid="false"
     inkscape:zoom="1.1490485"
     inkscape:cx="216.70103"
     inkscape:cy="256.29901"
     inkscape:window-width="1920"
     inkscape:window-height="1009"
     inkscape:window-x="0"
     inkscape:window-y="40"
     inkscape:window-maximized="1"
     inkscape:current-layer="svg4" />
  <!--! Font Awesome Free 6.3.0 by @fontawesome - https://fontawesome.com License - https://fontawesome.com/license/free (Icons: CC BY 4.0, Fonts: SIL OFL 1.1, Code: MIT License) Copyright 2023 Fonticons, Inc. -->
  <path
     style="display:inline;fill:#000000;fill-opacity:1;stroke:none;stroke-width:15.3898;stroke-linecap:round;stroke-linejoin:bevel;stroke-miterlimit:4;stroke-dasharray:none;stroke-dashoffset:0;stroke-opacity:1"
     d="M 224.0183,33.637752 C 101.21113,33.636521 1.6393271,133.19333 1.6380951,256.00004 1.7598805,281.50829 6.2325015,306.81308 14.905504,330.80114 8.6927138,310.21152 5.5008971,288.82311 5.4292625,267.31709 5.4306312,144.50978 104.9843,44.97157 227.79121,44.97287 317.16617,44.976566 397.84439,98.478409 432.61645,180.8123 393.47084,110.2343 319.16995,66.404792 238.46354,66.300247 115.65644,66.302095 16.100169,165.87389 16.101469,288.68053 c 0.183364,25.75484 4.787486,51.27814 13.690719,75.44546 C 69.014906,434.61621 143.3511,478.32681 224.0183,478.36225 346.82507,478.36025 446.36368,378.80666 446.3619,256.00004 446.35931,133.19526 346.82247,33.639599 224.0183,33.637752 Z m -93.66265,91.013198 c 7.14425,0.24562 10.60927,1.12665 16.13794,4.00915 14.45269,7.53703 20.22185,26.34441 12.77054,41.62389 -2.69503,5.52188 -7.92094,10.73432 -13.50694,13.46978 -5.90169,2.88852 -8.46268,3.44223 -16.76369,3.62334 -6.03224,0.12179 -7.85698,-0.002 -10.91174,-0.77163 -8.99122,-2.26577 -17.03998,-8.60342 -20.738433,-16.32225 -8.083023,-16.86879 -0.859004,-36.2744 16.064443,-43.15093 5.00541,-2.03567 9.87158,-2.74511 16.94788,-2.48355 z m 175.12605,84.05764 c 21.34127,-0.82747 39.37467,5.84559 52.25929,19.3216 12.03846,12.59198 18.75508,29.78514 20.49909,52.4068 0.26137,3.83503 0.5145,27.57637 0.5145,61.03751 v 54.76247 l -30.47328,-0.1218 -30.45352,-0.12178 -0.26137,-53.91639 c -0.26341,-58.44162 -0.20662,-57.22336 -2.85204,-65.12206 -3.4421,-10.26867 -10.49568,-17.12098 -20.0023,-19.43244 -3.68724,-0.8965 -12.57993,-0.73489 -16.34018,0.31472 -10.98906,3.01277 -19.95133,11.98627 -23.73792,23.79312 -0.66982,2.07318 -0.77059,8.67384 -0.99817,58.35078 l -0.26136,56.03245 -30.49183,0.12179 -30.47267,0.12179 0.12931,-91.62076 h 0.0547 l 0.12931,-91.62021 29.82851,-0.12177 c 21.64231,-0.0616 30.01139,0.041 30.47247,0.43719 0.51725,0.43788 0.62604,2.93839 0.62604,12.36537 0,6.51603 0.20662,11.85052 0.39272,11.85052 0.20662,0 0.94904,-0.82158 1.61879,-1.82384 3.00511,-4.54447 8.61498,-10.59613 13.13906,-14.18752 10.55281,-8.37812 21.50472,-12.19856 36.71044,-12.78874 z m -207.549413,4.28905 h 30.105113 30.12252 l 0.12931,91.62021 0.1293,91.62075 H 128.07449 97.730926 l 0.121786,-91.62075 z"
     id="path12935"
     inkscape:connector-curvature="0" />
</svg>
