<?xml version="1.0" encoding="UTF-8" standalone="no"?>
<svg
   viewBox="0 0 512 512"
   version="1.1"
   id="svg4"
   sodipodi:docname="smk.svg"
   inkscape:version="1.1 (c68e22c387, 2021-05-23)"
   xmlns:inkscape="http://www.inkscape.org/namespaces/inkscape"
   xmlns:sodipodi="http://sodipodi.sourceforge.net/DTD/sodipodi-0.dtd"
   xmlns="http://www.w3.org/2000/svg"
   xmlns:svg="http://www.w3.org/2000/svg">
  <defs
     id="defs8" />
  <sodipodi:namedview
     id="namedview6"
     pagecolor="#ffffff"
     bordercolor="#666666"
     borderopacity="1.0"
     inkscape:pageshadow="2"
     inkscape:pageopacity="0.0"
     inkscape:pagecheckerboard="0"
     showgrid="false"
     inkscape:zoom="0.8125"
     inkscape:cx="223.38462"
     inkscape:cy="255.38462"
     inkscape:window-width="1920"
     inkscape:window-height="1009"
     inkscape:window-x="0"
     inkscape:window-y="40"
     inkscape:window-maximized="1"
     inkscape:current-layer="g955" />
  <!--! Font Awesome Free 6.3.0 by @fontawesome - https://fontawesome.com License - https://fontawesome.com/license/free (Icons: CC BY 4.0, Fonts: SIL OFL 1.1, Code: MIT License) Copyright 2023 Fonticons, Inc. -->
  <g
     id="g955"
     transform="translate(2.9069348,-4.25687)">
    <path
       id="path8271"
       style="fill:#000000;fill-opacity:1;fill-rule:nonzero;stroke:none;stroke-width:4.60408;stroke-linecap:round;stroke-linejoin:round;stroke-miterlimit:4;stroke-dasharray:none;stroke-dashoffset:0;stroke-opacity:1"
       d="M 129.47656 45.189453 L 150.98047 79.769531 L 188.53906 79.322266 L 168.79883 46.408203 L 129.47656 45.189453 z M 126.43164 47.017578 L 107.84375 81.691406 L 127.68164 115.53516 L 148 83.230469 L 126.43164 47.017578 z M 186.48828 84.128906 L 150.85156 84.705078 L 130.40625 117.93945 L 167.86914 118.77344 L 186.48828 84.128906 z M 124.79688 118.22656 C 123.34143 118.28926 122.01053 119.07401 121.24023 120.31055 L 60.798828 215.16992 C 57.45189 220.15632 65.058142 225.06262 68.201172 219.94531 L 128.67578 125.08398 C 130.66533 122.07791 128.39814 118.07246 124.79688 118.22656 z M 174.88867 135.94922 L 104.83203 257.28125 L 174.88867 378.61328 L 179.3418 378.61328 C 179.2515 373.10523 183.40889 369.71959 185.7207 368.42188 C 182.68704 358.127 177.60689 341.94004 188.79688 338.16992 C 189.40908 332.67493 191.00908 328.37579 192.96289 322.43359 C 176.55137 317.16519 161.28998 310.42296 150.05078 290.57812 C 151.87302 274.70452 155.26902 262.76884 159.28125 253.27539 C 157.48633 235.36037 152.19635 205.83884 158.76758 196.39062 C 159.29018 196.31352 159.87504 196.28506 160.49805 196.29492 C 169.84204 196.43603 190.02602 206.34163 207.25586 219.24023 L 249.97461 219.5918 C 260.29338 211.10807 287.43336 193.60964 298.14258 196.83789 C 303.27513 207.2665 299.15521 240.94987 297.24609 253.27539 C 301.65205 263.70973 304.01557 268.72232 306.66797 290.0332 C 295.25666 311.57615 277.49341 317.75278 263.37109 322.43359 C 264.94022 327.16714 266.51277 330.20761 268.08203 338.00781 C 272.19988 339.26207 275.02388 345.90473 274.07422 350.66797 C 298.16206 364.57511 354.99025 357.41741 349.58008 302.62891 L 314.29492 302.62891 C 315.93215 279.81175 319.5857 237.00723 330.0293 217.86133 C 348.31797 184.33316 369.96556 187.00649 370.31445 257.66602 C 366.36328 245.03869 352.07986 210.3839 341.91992 229.5918 C 333.46637 245.57362 332.005 271.06768 331.3125 283.36719 L 369.48047 282.59766 C 371.01679 362.9449 318.81003 384.98725 273.5293 369.86328 C 275.31038 371.8991 277.24058 373.70868 277.15234 378.54883 L 269.20312 378.61328 L 339.45312 378.61328 L 409.50781 257.28125 L 339.45312 135.94922 L 174.88867 135.94922 z M 283.14453 215.36328 C 278.21061 215.1969 269.12987 221.09547 266.38281 222.66992 C 273.51034 225.51143 280.02569 228.61589 287.40625 237.86133 C 288.34021 231.98488 289.19324 220.99943 285.41992 216.16406 C 284.85744 215.65163 284.05818 215.39265 283.14453 215.36328 z M 173.83008 215.45898 C 172.76386 215.47538 171.74995 215.67764 170.84961 216.13281 C 167.07629 220.9682 167.92938 231.98488 168.86328 237.86133 C 176.24379 228.61589 182.726 225.51143 189.85352 222.66992 C 187.13345 220.86165 179.58806 215.37502 173.83008 215.45898 z M 59.964844 223.18359 L 18.527344 225.65039 L -1.1816406 254.62109 L 42.5625 253.91602 L 59.964844 223.18359 z M 451.04102 223.72656 L 430.33984 257.18555 L 451.04102 290.64258 L 492.47852 290.64258 L 513.18164 257.18555 L 492.47852 223.72656 L 451.04102 223.72656 z M 62.591797 224.36914 L 53.494141 240.5957 L 44.220703 257.11133 L 0.47070312 257.82227 L 21.181641 291.26758 L 62.601562 291.26758 L 73.009766 274.45898 L 83.328125 257.82812 L 69.609375 235.69336 L 62.601562 224.375 L 62.599609 224.38086 L 62.591797 224.36914 z M 99.447266 252.85938 L 88.103516 253.4043 C 82.221428 253.6437 82.572686 262.45593 88.455078 262.2168 L 99.800781 261.70508 C 105.48696 261.47931 105.45603 253.01642 99.767578 252.85938 C 99.665846 252.85843 99.548965 252.85337 99.447266 252.85938 z M 187.00195 258.69141 C 175.4057 258.69115 166.0095 268.08728 166.00977 279.68359 C 166.00983 291.27968 175.40586 300.67411 187.00195 300.67383 C 198.59788 300.67383 207.9921 291.27948 207.99219 279.68359 C 207.99242 268.08756 198.59806 258.69141 187.00195 258.69141 z M 268.69141 258.69141 C 257.09508 258.69115 247.69894 268.08728 247.69922 279.68359 C 247.69932 291.27968 257.09536 300.67411 268.69141 300.67383 C 280.28728 300.67383 289.68157 291.27948 289.68164 279.68359 C 289.68185 268.08756 280.28754 258.69141 268.69141 258.69141 z M 190.71875 264.8457 C 192.48756 264.8527 194.22905 265.16885 195.87891 265.80664 L 190.84766 278.94531 L 204.4668 274.84375 C 204.93953 276.28309 205.16531 277.78373 205.17188 279.29883 C 205.17188 287.28895 198.7087 293.7832 190.71875 293.7832 C 182.7287 293.7832 176.26546 287.28895 176.26562 279.29883 C 176.26547 271.30888 182.7287 264.8456 190.71875 264.8457 z M 265.48633 264.8457 C 273.47628 264.8456 279.93957 271.30888 279.93945 279.29883 C 279.93957 287.28894 273.47628 293.78516 265.48633 293.78516 C 257.49618 293.78516 251.03314 287.28894 251.0332 279.29883 C 251.0402 277.78368 251.26506 276.28315 251.73828 274.84375 L 265.35742 278.94531 L 260.32617 265.80664 C 261.97602 265.16885 263.71742 264.85227 265.48633 264.8457 z M 448.09375 291.50977 C 446.59862 291.63448 445.27335 292.54092 444.56836 293.88086 L 391.04883 390.08789 C 388.02598 395.31937 396.06055 399.70137 398.80469 394.31836 L 452.32422 298.07812 C 453.99592 295.10899 451.82097 291.45653 448.41406 291.50977 C 448.31397 291.51177 448.19335 291.50177 448.09375 291.50977 z M 64.804688 292.75781 C 61.457689 292.93387 59.52071 296.63509 61.279297 299.48828 L 117.93945 392.9082 C 120.88217 398.22657 128.78097 393.50613 125.50195 388.38867 L 68.875 294.9375 C 68.044424 293.50144 66.461346 292.67073 64.804688 292.75781 z M 251.54492 344.99609 L 249.36719 345.0293 L 244.52734 371.75781 C 249.42579 373.26263 250.47523 374.9098 250.48828 378.19922 L 229.36914 377.68555 L 229.17578 349.61133 L 227.125 349.70898 L 227.73438 377.71875 L 206.71094 378.07031 C 206.75194 375.96537 206.2119 373.0136 213.95312 371.46875 L 207.86523 345.44727 L 205.42969 345.50977 L 211.58203 370.60352 C 206.99976 371.75162 204.90465 375.22132 205.14062 378.61523 L 251.28906 378.61523 C 251.25086 375.3803 250.24819 372.18752 245.9043 370.85742 L 251.54492 344.99609 z M 342.40039 380.76172 C 339.05258 380.96322 337.12375 384.68367 338.9082 387.52344 L 344.00391 395.375 C 347.05374 400.42006 354.60087 395.8275 351.53516 390.79297 L 346.4707 382.94141 C 345.63026 381.5065 344.06019 380.66122 342.40039 380.76172 z M 125.18164 396.59375 L 104.47852 430.05078 L 125.18164 463.47656 L 166.58789 463.47656 L 187.32227 430.05078 L 166.58789 396.59375 L 125.18164 396.59375 z M 351.50195 398.70898 L 331.2793 430.17969 L 375.02539 429.44141 L 392.9082 398.70898 L 351.50195 398.70898 z M 394.57422 400.88672 L 377.26758 432.03711 L 395.31055 465.39844 L 411.81641 435.81836 L 394.57422 400.88672 z M 374.0625 432.77539 L 331.95312 433.35156 L 352.65625 466.81055 L 391.88281 466.55469 L 374.0625 432.77539 z "
       transform="translate(-2.9069348,4.25687)" />
    <g
       transform="matrix(3.9078009,0,0,3.9078009,-65.459817,54.101671)"
       id="g8295"
       style="fill:#000000" />
  </g>
</svg>
