<?xml version="1.0" encoding="UTF-8" standalone="no"?>
<svg
   viewBox="0 0 512 512"
   version="1.1"
   id="svg4"
   sodipodi:docname="snapchat.svg"
   inkscape:version="1.1 (c68e22c387, 2021-05-23)"
   xmlns:inkscape="http://www.inkscape.org/namespaces/inkscape"
   xmlns:sodipodi="http://sodipodi.sourceforge.net/DTD/sodipodi-0.dtd"
   xmlns="http://www.w3.org/2000/svg"
   xmlns:svg="http://www.w3.org/2000/svg">
  <defs
     id="defs8" />
  <sodipodi:namedview
     id="namedview6"
     pagecolor="#ffffff"
     bordercolor="#666666"
     borderopacity="1.0"
     inkscape:pageshadow="2"
     inkscape:pageopacity="0.0"
     inkscape:pagecheckerboard="0"
     showgrid="false"
     inkscape:snap-global="false"
     inkscape:zoom="0.57452426"
     inkscape:cx="239.32845"
     inkscape:cy="254.99358"
     inkscape:window-width="1920"
     inkscape:window-height="1009"
     inkscape:window-x="0"
     inkscape:window-y="40"
     inkscape:window-maximized="1"
     inkscape:current-layer="svg4" />
  <!--! Font Awesome Free 6.3.0 by @fontawesome - https://fontawesome.com License - https://fontawesome.com/license/free (Icons: CC BY 4.0, Fonts: SIL OFL 1.1, Code: MIT License) Copyright 2023 Fonticons, Inc. -->
  <path
     id="path8271"
     style="fill:#000000;fill-opacity:1;fill-rule:nonzero;stroke:none;stroke-width:4.60408;stroke-linecap:round;stroke-linejoin:round;stroke-miterlimit:4;stroke-dasharray:none;stroke-dashoffset:0;stroke-opacity:1"
     d="m 129.47656,45.189456 21.50391,34.580083 37.55859,-0.44727 -19.74023,-32.914063 z m -3.04492,1.828125 -18.58789,34.673828 19.83789,33.843741 L 148,83.230469 Z m 60.05664,37.111328 -35.63672,0.57617 -20.44531,33.234361 37.46289,0.83399 z m -61.6914,34.097641 c -1.45545,0.0627 -2.78635,0.84745 -3.55665,2.08399 l -60.441401,94.85937 c -3.346938,4.9864 4.259314,9.8927 7.402344,4.77539 l 60.474607,-94.86133 c 1.98955,-3.00607 -0.27764,-7.01152 -3.8789,-6.85742 z m 50.09179,17.72266 -70.05664,121.33203 70.05664,121.33203 h 4.45313 c -0.0903,-5.50805 4.06709,-8.89369 6.3789,-10.1914 -3.03366,-10.29488 -8.11381,-26.48184 3.07618,-30.25196 0.6122,-5.49499 2.2122,-9.79413 4.16601,-15.73633 -16.41152,-5.2684 -31.67291,-12.01063 -42.91211,-31.85547 1.82224,-15.8736 5.21824,-27.80928 9.23047,-37.30273 -1.79492,-17.91502 -7.0849,-47.43655 -0.51367,-56.88477 0.5226,-0.0771 1.10746,-0.10556 1.73047,-0.0957 9.34399,0.14111 29.52797,10.04671 46.75781,22.94531 l 42.71875,0.35157 c 10.31877,-8.48373 37.45875,-25.98216 48.16797,-22.75391 5.13255,10.42861 1.01263,44.11198 -0.89649,56.4375 4.40596,10.43434 6.76948,15.44693 9.42188,36.75781 -11.41131,21.54295 -29.17456,27.71958 -43.29688,32.40039 1.56913,4.73355 3.14168,7.77402 4.71094,15.57422 4.11785,1.25426 6.94185,7.89692 5.99219,12.66016 24.08784,13.90714 80.91603,6.74944 75.50586,-48.03906 h -35.28516 c 1.63723,-22.81716 5.29078,-65.62168 15.73438,-84.76758 18.28867,-33.52817 39.93626,-30.85484 40.28515,39.80469 -3.95117,-12.62733 -18.23459,-47.28212 -28.39453,-28.07422 -8.45355,15.98182 -9.91492,41.47588 -10.60742,53.77539 l 38.16797,-0.76953 c 1.53632,80.34724 -50.67044,102.38959 -95.95117,87.26562 1.78108,2.03582 3.71128,3.8454 3.62304,8.68555 l -7.94922,0.0644 h 70.25 L 409.50781,257.28124 339.45312,135.94921 Z m 108.25586,79.41406 c -4.93392,-0.16638 -14.01466,5.73219 -16.76172,7.30664 7.12753,2.84151 13.64288,5.94597 21.02344,15.19141 0.93396,-5.87645 1.78699,-16.8619 -1.98633,-21.69727 -0.56248,-0.51243 -1.36174,-0.77141 -2.27539,-0.80078 z m -109.31445,0.0957 c -1.06622,0.0164 -2.08013,0.21866 -2.98047,0.67383 -3.77332,4.83539 -2.92023,15.85207 -1.98633,21.72852 7.38051,-9.24544 13.86272,-12.3499 20.99024,-15.19141 -2.72007,-1.80827 -10.26546,-7.2949 -16.02344,-7.21094 z m -113.865235,7.72461 -41.4375,2.4668 -19.708985,28.9707 43.744141,-0.70507 z m 391.076175,0.54297 -20.70118,33.45899 20.70118,33.45703 h 41.4375 l 20.70312,-33.45703 -20.70312,-33.45899 z m -388.449222,0.64258 -9.097656,16.22656 -9.273438,16.51563 -43.74999995,0.71094 20.71093795,33.44531 h 41.419921 l 10.408204,-16.8086 10.318359,-16.63086 -13.71875,-22.13476 -7.007813,-11.31836 -0.002,0.006 z m 36.855472,28.49024 -11.343753,0.54492 c -5.882088,0.2394 -5.53083,9.05163 0.351562,8.8125 l 11.345701,-0.51172 c 5.68618,-0.22577 5.65525,-8.68866 -0.0332,-8.8457 -0.10173,-9.5e-4 -0.21861,-0.006 -0.32031,0 z m 87.55468,5.83203 c -11.59625,-2.6e-4 -20.99245,9.39587 -20.99218,20.99218 6e-5,11.59609 9.39609,20.99052 20.99218,20.99024 11.59593,0 20.99015,-9.39435 20.99024,-20.99024 2.3e-4,-11.59603 -9.39413,-20.99218 -20.99024,-20.99218 z m 81.68946,0 c -11.59633,-2.6e-4 -20.99247,9.39587 -20.99219,20.99218 1e-4,11.59609 9.39614,20.99052 20.99219,20.99024 11.59587,0 20.99016,-9.39435 20.99023,-20.99024 2.1e-4,-11.59603 -9.3941,-20.99218 -20.99023,-20.99218 z m -77.97266,6.15429 c 1.76881,0.007 3.5103,0.32315 5.16016,0.96094 l -5.03125,13.13867 13.61914,-4.10156 c 0.47273,1.43934 0.69851,2.93998 0.70508,4.45508 0,7.99012 -6.46318,14.48437 -14.45313,14.48437 -7.99005,0 -14.45329,-6.49425 -14.45313,-14.48437 -1.5e-4,-7.98995 6.46308,-14.45323 14.45313,-14.45313 z m 74.76758,0 c 7.98995,-10e-5 14.45324,6.46318 14.45312,14.45313 1.2e-4,7.99011 -6.46317,14.48633 -14.45312,14.48633 -7.99015,0 -14.45319,-6.49622 -14.45313,-14.48633 0.007,-1.51515 0.23186,-3.01568 0.70508,-4.45508 l 13.61914,4.10156 -5.03125,-13.13867 c 1.64985,-0.63779 3.39125,-0.95437 5.16016,-0.96094 z m 182.60742,26.66407 c -1.49513,0.12471 -2.8204,1.03115 -3.52539,2.37109 l -53.51953,96.20703 c -3.02285,5.23148 5.01172,9.61348 7.75586,4.23047 l 53.51953,-96.24024 c 1.6717,-2.96913 -0.50325,-6.62159 -3.91016,-6.56835 -0.10009,0.002 -0.22071,-0.008 -0.32031,0 z M 64.804689,292.7578 c -3.346999,0.17606 -5.283978,3.87728 -3.525391,6.73047 l 56.660152,93.41992 c 2.94272,5.31837 10.84152,0.59793 7.5625,-4.51953 L 68.875001,294.93749 c -0.830576,-1.43606 -2.413654,-2.26677 -4.070312,-2.17969 z m 186.740231,52.23828 -2.17773,0.0332 -4.83985,26.72851 c 4.89845,1.50482 5.94789,3.15199 5.96094,6.44141 l -21.11914,-0.51367 -0.19336,-28.07422 -2.05078,0.0976 0.60938,28.00977 -21.02344,0.35156 c 0.041,-2.10494 -0.49904,-5.05671 7.24218,-6.60156 l -6.08789,-26.02148 -2.43554,0.0625 6.15234,25.09375 c -4.58227,1.1481 -6.67738,4.6178 -6.44141,8.01171 h 46.14844 c -0.0382,-3.23493 -1.04087,-6.42771 -5.38476,-7.75781 z m 90.85547,35.76563 c -3.34781,0.2015 -5.27664,3.92195 -3.49219,6.76172 l 5.09571,7.85156 c 3.04983,5.04506 10.59696,0.4525 7.53125,-4.58203 l -5.06446,-7.85156 c -0.84044,-1.43491 -2.41051,-2.28019 -4.07031,-2.17969 z m -217.21875,15.83203 -20.70312,33.45703 20.70312,33.42578 h 41.40625 l 20.73438,-33.42578 -20.73438,-33.45703 z m 226.32031,2.11523 -20.22265,31.47071 43.74609,-0.73828 17.88281,-30.73243 z m 43.07227,2.17774 -17.30664,31.15039 18.04297,33.36133 16.50586,-29.58008 z m -20.51172,31.88867 -42.10938,0.57617 20.70313,33.45899 39.22656,-0.25586 z" />
  <g
     transform="matrix(3.9078009,0,0,3.9078009,-87.057,72.336085)"
     id="g8295"
     style="fill:#000000" />
</svg>
