<?xml version="1.0" encoding="UTF-8" standalone="no"?>
<svg
   viewBox="0 0 512 512"
   version="1.1"
   id="svg4"
   sodipodi:docname="twitter.svg"
   inkscape:version="1.1 (c68e22c387, 2021-05-23)"
   xmlns:inkscape="http://www.inkscape.org/namespaces/inkscape"
   xmlns:sodipodi="http://sodipodi.sourceforge.net/DTD/sodipodi-0.dtd"
   xmlns="http://www.w3.org/2000/svg"
   xmlns:svg="http://www.w3.org/2000/svg">
  <defs
     id="defs8" />
  <sodipodi:namedview
     id="namedview6"
     pagecolor="#ffffff"
     bordercolor="#666666"
     borderopacity="1.0"
     inkscape:pageshadow="2"
     inkscape:pageopacity="0.0"
     inkscape:pagecheckerboard="0"
     showgrid="false"
     inkscape:zoom="0.8125"
     inkscape:cx="223.38462"
     inkscape:cy="255.38462"
     inkscape:window-width="1920"
     inkscape:window-height="1009"
     inkscape:window-x="0"
     inkscape:window-y="40"
     inkscape:window-maximized="1"
     inkscape:current-layer="svg4" />
  <!--! Font Awesome Free 6.3.0 by @fontawesome - https://fontawesome.com License - https://fontawesome.com/license/free (Icons: CC BY 4.0, Fonts: SIL OFL 1.1, Code: MIT License) Copyright 2023 Fonticons, Inc. -->
  <path
     id="path54249"
     style="display:inline;fill:#000000;fill-opacity:1;stroke:none;stroke-width:17.5967;stroke-linecap:round;stroke-linejoin:bevel;stroke-miterlimit:4;stroke-dasharray:none;stroke-dashoffset:0;stroke-opacity:1"
     d="M 256,1.7494173 C 115.5814,1.747931 1.7514635,115.55111 1.7494155,255.96941 c 0.118172,29.16668 5.238511,58.10643 15.1572475,85.5345 C 9.8047905,317.96133 6.1556975,293.53191 6.0734745,268.94166 6.0763995,128.52337 119.92102,14.689676 260.3394,14.691085 362.53208,14.695034 454.78461,75.8662 494.5433,170.00705 449.78384,89.307607 364.79758,39.212184 272.51713,39.092491 132.09822,39.094525 18.264755,152.92469 18.266554,293.34307 18.47309,322.79093 23.763769,351.97709 33.943257,379.611 78.790549,460.20906 163.76384,510.21037 256,510.25058 396.41892,510.24847 510.25261,396.3877 510.25058,255.96941 510.24909,115.55377 396.41532,1.7517642 256,1.7494173 Z M 341.06091,139.53977 c 18.41156,-0.0469 35.63645,6.59691 49.85689,19.31327 2.46005,2.19986 4.65129,4.00323 4.85893,4.00323 0.20652,0 3.52147,-0.79967 7.36465,-1.77248 10.19052,-2.58122 18.37027,-5.59993 29.01579,-10.69557 10.79689,-5.16841 10.95201,-5.09925 7.2883,2.9795 -4.62056,10.19044 -12.35125,19.65937 -24.18745,29.62692 l -3.20872,2.68919 3.56013,-0.42792 c 5.68944,-0.68921 17.18062,-3.58689 25.25703,-6.37152 12.93697,-4.46151 11.94985,-4.57213 8.09808,0.90145 -6.24613,8.87561 -18.03701,21.22414 -27.3044,28.58793 -2.54282,2.02243 -4.85032,3.89811 -5.13392,4.17127 -0.2957,0.26599 -0.68451,6.40119 -0.87094,13.62933 -1.47832,56.73073 -24.28649,110.03027 -64.08209,149.72362 -32.40554,32.3212 -72.1373,51.42372 -119.89816,57.64948 -7.91165,1.03195 -34.41426,1.88522 -41.5602,1.32931 v 0.0156 c -24.99313,-1.93657 -46.89358,-6.95633 -67.42834,-15.47803 -12.78325,-5.30476 -31.867847,-15.57491 -30.849278,-16.59348 0.236254,-0.23627 6.103179,-0.34344 13.064018,-0.29024 24.07362,0.23626 45.63554,-4.49046 66.09897,-14.45442 13.23777,-6.44576 27.13604,-15.31284 26.25015,-16.74635 -0.14784,-0.29571 -2.4038,-0.72911 -4.91994,-0.96256 -20.07022,-1.87167 -40.20703,-13.86839 -52.68368,-31.35348 -3.22437,-4.51822 -8.51388,-14.53961 -9.2746,-17.57145 l -0.44278,-1.72656 h 11.59719 c 12.2185,0.003 18.59705,-0.67122 18.18259,-1.90993 -0.11817,-0.4107 -3.16594,-1.79774 -6.73828,-3.07118 -27.39912,-9.78247 -47.42586,-35.81703 -49.10829,-63.8377 -0.43497,-7.20946 -0.40914,-7.23246 5.60759,-4.4921 8.12875,3.69977 25.51675,7.5244 25.51675,5.60751 0,-0.37551 -2.0973,-2.3941 -4.66021,-4.47684 -4.55375,-3.69477 -10.95938,-11.01476 -14.66832,-16.77687 -13.14193,-20.41679 -15.20817,-47.03706 -5.42422,-69.75087 3.18556,-7.39517 4.06386,-7.84116 7.4411,-3.80461 10.78031,12.88441 28.5176,28.51723 43.97432,38.74881 30.20034,19.99153 61.50446,30.99838 98.12484,34.51636 4.92245,0.4733 7.22345,0.44904 7.54803,-0.0915 0.26599,-0.41384 0.11115,-2.40388 -0.21357,-4.43107 -1.13537,-6.16038 -0.25425,-23.4333 1.54326,-30.25339 8.38621,-31.92113 35.90895,-54.38124 68.71182,-56.06039 1.23744,-0.0626 2.47021,-0.0884 3.69766,-0.0915 z" />
</svg>
