<?xml version="1.0" encoding="UTF-8" standalone="no"?>
<svg
   viewBox="0 0 576 512"
   version="1.1"
   id="svg4"
   sodipodi:docname="youtube.svg"
   inkscape:version="1.1 (c68e22c387, 2021-05-23)"
   xmlns:inkscape="http://www.inkscape.org/namespaces/inkscape"
   xmlns:sodipodi="http://sodipodi.sourceforge.net/DTD/sodipodi-0.dtd"
   xmlns="http://www.w3.org/2000/svg"
   xmlns:svg="http://www.w3.org/2000/svg">
  <defs
     id="defs8" />
  <sodipodi:namedview
     id="namedview6"
     pagecolor="#ffffff"
     bordercolor="#666666"
     borderopacity="1.0"
     inkscape:pageshadow="2"
     inkscape:pageopacity="0.0"
     inkscape:pagecheckerboard="0"
     showgrid="false"
     inkscape:zoom="0.8125"
     inkscape:cx="255.38462"
     inkscape:cy="255.38462"
     inkscape:window-width="1920"
     inkscape:window-height="1009"
     inkscape:window-x="0"
     inkscape:window-y="40"
     inkscape:window-maximized="1"
     inkscape:current-layer="svg4" />
  <!--! Font Awesome Free 6.3.0 by @fontawesome - https://fontawesome.com License - https://fontawesome.com/license/free (Icons: CC BY 4.0, Fonts: SIL OFL 1.1, Code: MIT License) Copyright 2023 Fonticons, Inc. -->
  <path
     id="path3127-2"
     style="display:inline;fill:#000000;fill-opacity:1;stroke:none;stroke-width:17.7288;stroke-linecap:round;stroke-linejoin:bevel;stroke-miterlimit:4;stroke-dasharray:none;stroke-dashoffset:0;stroke-opacity:1"
     d="M 288,-0.15943939 C 146.52707,-0.16085269 31.842607,114.5121 31.840558,255.98462 c 0.119001,29.38567 5.262384,58.52731 15.25559,86.16133 C 39.94103,318.4266 36.264476,293.8137 36.181712,269.03891 36.184538,127.56639 150.884,12.877972 292.35653,12.879471 395.31647,12.883711 488.2616,74.513795 528.31878,169.36144 483.2233,88.056116 397.61441,37.584659 304.64107,37.46399 163.1679,37.465403 48.479887,152.1509 48.481625,293.62343 48.690486,323.29237 54.020102,352.69774 64.2761,380.53904 109.46003,461.74221 195.07135,512.11893 288,512.15944 429.47308,512.15803 544.16149,397.45715 544.15944,255.98462 544.15803,114.51478 429.46953,-0.15707919 288,-0.15943939 Z M 289.44703,132.04595 c 75.40829,-0.21045 146.75642,3.3411 167.44268,8.9286 16.2606,4.39223 29.35744,16.19835 35.1911,31.6967 12.29329,32.66009 13.49819,156.5355 1.97045,202.46448 -5.24054,20.87589 -20.26015,35.11379 -41.5797,39.40915 -14.28645,2.87765 -41.52329,4.91345 -85.79183,6.41936 -20.29444,0.69122 -113.18455,0.88079 -134.37596,0.2459 v 0.0315 c -35.69121,-1.0248 -71.62652,-3.35041 -86.42308,-5.57277 -11.71232,-1.76057 -14.77094,-2.60391 -22.29075,-6.17305 -12.33799,-5.85485 -22.16379,-17.25332 -26.401063,-30.619 -7.067237,-22.29014 -10.952581,-82.88138 -8.543746,-133.14444 1.790365,-37.37343 5.057693,-62.30861 9.744474,-74.20002 5.433655,-13.7846 18.230035,-25.73448 32.266225,-30.14183 13.90016,-4.36394 45.54808,-6.91205 106.51253,-8.57457 17.26167,-0.47054 34.87677,-0.72119 52.27867,-0.77005 z m -34.62157,84.12929 c -0.86684,0 -1.06215,11.1546 -1.06223,60.57611 0,52.15328 0.17104,61.65381 1.23162,61.65381 0.089,0 23.61632,-13.50017 52.27867,-30.00329 28.66234,-16.50314 52.40288,-30.29066 52.75592,-30.63447 0.35153,-0.34285 0.0914,-1.08414 -0.58483,-1.64715 -2.35044,-1.95122 -103.5644,-59.94501 -104.61899,-59.94501 z" />
</svg>
