<?xml version="1.0" encoding="UTF-8" standalone="no"?>
<svg
   viewBox="0 0 576 512"
   version="1.1"
   id="svg4"
   sodipodi:docname="address-card.svg"
   inkscape:version="1.1 (c68e22c387, 2021-05-23)"
   xmlns:inkscape="http://www.inkscape.org/namespaces/inkscape"
   xmlns:sodipodi="http://sodipodi.sourceforge.net/DTD/sodipodi-0.dtd"
   xmlns="http://www.w3.org/2000/svg"
   xmlns:svg="http://www.w3.org/2000/svg">
  <defs
     id="defs8" />
  <sodipodi:namedview
     id="namedview6"
     pagecolor="#ffffff"
     bordercolor="#666666"
     borderopacity="1.0"
     inkscape:pageshadow="2"
     inkscape:pageopacity="0.0"
     inkscape:pagecheckerboard="0"
     showgrid="false"
     inkscape:snap-global="false"
     inkscape:zoom="0.57452426"
     inkscape:cx="270.65872"
     inkscape:cy="254.99358"
     inkscape:window-width="1920"
     inkscape:window-height="1009"
     inkscape:window-x="0"
     inkscape:window-y="40"
     inkscape:window-maximized="1"
     inkscape:current-layer="svg4" />
  <!--! Font Awesome Free 6.3.0 by @fontawesome - https://fontawesome.com License - https://fontawesome.com/license/free (Icons: CC BY 4.0, Fonts: SIL OFL 1.1, Code: MIT License) Copyright 2023 Fonticons, Inc. -->
  <path
     style="display:inline;fill:#000000;fill-opacity:1;stroke:none;stroke-width:17.4053;stroke-linecap:round;stroke-linejoin:bevel;stroke-miterlimit:4;stroke-dasharray:none;stroke-dashoffset:0;stroke-opacity:1"
     d="M 288,4.515296 C 149.10928,4.514135 36.517308,117.10943 36.515064,256.00031 36.626491,284.84942 41.69016,313.46833 51.499465,340.59837 44.47522,317.31218 40.883164,293.12165 40.802921,268.79895 40.804004,129.90831 153.39606,17.333832 292.28732,17.334992 393.36801,17.338784 484.61278,77.848454 523.93876,170.96497 479.66627,91.143344 395.61404,41.574349 304.33716,41.45588 165.44644,41.45735 52.872108,154.07044 52.873269,292.96109 53.09535,322.08861 58.286308,350.95498 68.357467,378.28768 112.7157,458.00988 196.76854,507.44524 288,507.4847 426.89072,507.48292 539.48664,394.89095 539.48494,256.00031 539.48332,117.11175 426.88856,4.517695 288,4.515296 Z M 271.66292,125.82474 c 3.5423,-0.65773 251.24142,78.14256 253.75418,80.72736 0.95758,0.98559 2.12532,3.38197 2.60144,5.33009 0.84143,3.43722 0.0542,6.02844 -26.11822,88.49012 l -27.01319,84.93118 -3.68623,2.18761 -3.68615,2.16416 -74.33817,-23.35026 c -57.67393,-18.12138 -74.61435,-23.1654 -75.46228,-22.4559 -0.59737,0.49755 -3.8854,9.73038 -7.32525,20.49935 -6.90748,21.66516 -9.0345,25.91309 -17.14911,34.19298 -5.23042,5.33001 -17.10314,12.28856 -25.0561,14.6724 -2.80061,0.84228 -5.54814,1.86586 -6.09831,2.29285 -0.49833,0.44184 -3.31535,8.02832 -6.13972,16.89893 l -5.15846,16.12824 -3.58107,1.85425 c -5.811,3.00559 -11.86335,0.11685 -12.94482,-6.22212 -0.71963,-4.19531 10.41759,-39.85023 13.3821,-42.91316 1.0461,-1.07334 4.88167,-2.61753 8.51249,-3.43149 8.57131,-1.92731 18.19134,-6.88883 23.14165,-11.92472 2.16424,-2.20224 5.24148,-6.72982 6.82607,-10.05243 3.1383,-6.57336 12.30783,-34.41375 12.17497,-36.91892 -0.0542,-1.31608 -3.92417,-2.77841 -25.88964,-9.76056 -25.76955,-8.1933 -25.80607,-8.19005 -28.51151,-6.68068 -3.4537,1.92731 -3.52017,2.17005 -2.47948,10.3016 2.49055,19.3655 -3.77475,38.02677 -17.89737,53.33941 -11.69119,12.67577 -17.12644,15.02364 -23.05862,9.98984 -3.30428,-2.80178 -4.63266,-8.31673 -2.74529,-11.36294 0.6972,-1.1231 3.64739,-4.01842 6.57699,-6.4309 8.11956,-6.69058 13.60402,-14.86431 16.7318,-24.99482 3.06076,-9.88831 2.97216,-15.90653 -0.33196,-27.72045 -2.30809,-8.23802 -2.09777,-10.77253 1.10143,-13.2151 1.10134,-0.84228 15.22458,-8.28601 31.38408,-16.54508 26.21007,-13.39695 29.76235,-15.51206 32.94429,-19.5629 4.26178,-5.42952 6.60469,-12.02423 5.84815,-16.46166 -0.59196,-3.47591 -3.37624,-7.50833 -5.68155,-8.24128 -0.7803,-0.23369 -21.35827,8.96857 -45.74356,20.47838 -24.38584,11.50888 -46.89374,22.1053 -50.00983,23.55818 -4.05154,1.88637 -6.45473,2.4011 -8.44889,1.77231 -6.03022,-1.91562 -8.31223,-6.39429 -6.36837,-12.50762 1.00718,-3.16585 4.38907,-5.08642 34.06785,-19.29207 l 14.21401,-6.80495 8.30387,-26.18074 c 4.64923,-14.62737 8.06532,-26.50125 7.65853,-26.95075 -0.83586,-0.96802 -56.85308,29.01579 -62.16375,33.27757 -7.65024,6.13871 -17.96384,19.6696 -24.07809,31.57041 -2.86701,5.57484 -4.27292,11.55508 -16.25413,70.03036 -7.20857,35.16564 -13.40864,64.93635 -13.7977,66.15941 -1.14592,3.60862 -7.24347,6.16154 -11.44659,4.7875 -1.95949,-0.6438 -4.00721,-1.88048 -4.57734,-2.74613 -0.57029,-0.86867 -1.33945,-2.3953 -1.71025,-3.39288 -1.06808,-2.88945 25.03668,-129.03762 28.44891,-137.48009 3.51459,-8.71058 11.35412,-21.20211 18.64679,-29.7396 11.04367,-12.92702 16.3637,-16.51583 57.68941,-38.87555 l 38.89651,-21.03985 7.53341,-23.68369 c 8.0842,-25.42528 9.24923,-27.69677 14.50565,-28.67856 z m 8.97028,20.9155 -16.12955,49.9682 c -11.58827,35.78336 -15.86947,50.06593 -15.13003,50.30109 1.11814,0.33041 5.7474,-1.63783 25.80669,-11.02982 15.58162,-7.29717 16.37855,-7.25128 25.03614,0.89784 11.14109,10.48351 14.32141,22.19358 9.80218,36.0658 -4.27841,13.18849 -13.13022,22.48577 -27.65862,29.11499 -4.8429,2.20804 -8.92153,4.41112 -9.07319,4.89281 -0.16637,0.5525 35.79977,12.33917 93.27661,30.61354 l 93.5678,29.76072 23.35026,-74.31751 23.39173,-74.31728 -113.13053,-35.98277 z m 39.45767,38.18911 29.88524,9.19816 c 32.55468,10.02527 34.70113,11.01728 36.33725,16.87843 1.06273,3.79703 -1.30618,8.26402 -5.42968,10.23899 l -3.09953,1.47695 -30.48856,-9.46898 c -16.76329,-5.20837 -31.23683,-10.10947 -32.17437,-10.90462 -2.55176,-2.16424 -4.17883,-7.42848 -3.22682,-10.42711 0.49833,-1.61724 2.27474,-3.50361 4.51636,-4.82642 z m -6.9296,34.69277 56.25261,17.5853 c 30.93961,9.67195 57.48628,18.24426 59.00061,19.04236 8.61765,4.56093 6.09986,17.53005 -3.45378,17.79383 -3.87434,0.11685 -114.15892,-34.85828 -116.77297,-37.02338 -2.55702,-2.11448 -4.18432,-7.39659 -3.22682,-10.40598 0.49833,-1.61732 2.27474,-3.50369 4.51644,-4.8265 z m 84.30641,86.26274 26.03519,7.97068 c 25.87362,7.92657 26.0369,7.98855 28.53201,11.13459 4.60496,5.81085 2.25254,12.87231 -4.88724,14.60918 -3.40952,0.83648 -5.16403,0.38613 -27.80363,-6.93007 -13.29025,-4.30619 -25.03289,-8.28569 -26.09779,-8.86596 -2.76757,-1.50613 -5.02003,-7.65072 -3.99614,-10.86307 0.55327,-1.67582 2.26368,-3.5423 4.53857,-4.89289 z"
     id="path13047"
     inkscape:connector-curvature="0" />
</svg>
