<?xml version="1.0" encoding="UTF-8" standalone="no"?>
<svg
   viewBox="0 0 512 512"
   version="1.1"
   id="svg4"
   sodipodi:docname="envelope-open.svg"
   inkscape:version="1.1 (c68e22c387, 2021-05-23)"
   xmlns:inkscape="http://www.inkscape.org/namespaces/inkscape"
   xmlns:sodipodi="http://sodipodi.sourceforge.net/DTD/sodipodi-0.dtd"
   xmlns="http://www.w3.org/2000/svg"
   xmlns:svg="http://www.w3.org/2000/svg">
  <defs
     id="defs8" />
  <sodipodi:namedview
     id="namedview6"
     pagecolor="#ffffff"
     bordercolor="#666666"
     borderopacity="1.0"
     inkscape:pageshadow="2"
     inkscape:pageopacity="0.0"
     inkscape:pagecheckerboard="0"
     showgrid="false"
     inkscape:zoom="0.57452426"
     inkscape:cx="209.73875"
     inkscape:cy="254.99358"
     inkscape:window-width="1920"
     inkscape:window-height="1009"
     inkscape:window-x="0"
     inkscape:window-y="40"
     inkscape:window-maximized="1"
     inkscape:current-layer="svg4" />
  <!--! Font Awesome Free 6.3.0 by @fontawesome - https://fontawesome.com License - https://fontawesome.com/license/free (Icons: CC BY 4.0, Fonts: SIL OFL 1.1, Code: MIT License) Copyright 2023 Fonticons, Inc. -->
  <path
     style="display:inline;fill:#000000;fill-opacity:1;stroke:none;stroke-width:17.4515;stroke-linecap:round;stroke-linejoin:bevel;stroke-miterlimit:4;stroke-dasharray:none;stroke-dashoffset:0;stroke-opacity:1"
     d="M 256,3.847198 C 116.73996,3.845724 3.8492955,116.72507 3.8472007,255.98487 3.9643548,284.91083 9.0273503,313.59674 18.864257,340.79852 11.821048,317.4501 8.2019963,293.22225 8.1204533,268.83496 8.1228583,129.57516 121.04386,16.680689 260.30359,16.682163 361.65311,16.685965 453.12933,77.352452 492.55998,170.71657 448.16984,90.682962 363.89998,41.000866 272.38085,40.88216 c -139.26034,0.002 -252.154583,112.893 -252.152798,252.1528 0.205601,29.20488 5.451854,58.15024 15.547431,85.55614 C 80.252677,458.52416 164.52494,508.11292 256,508.1528 395.26034,508.1507 508.15489,395.24459 508.1528,255.98487 508.15132,116.7277 395.25685,3.849526 256,3.847198 Z M 188.27944,116.86138 h 23.54835 23.53331 23.54835 23.54844 23.54843 23.54836 23.5333 v 23.54836 h 23.54836 v 23.54843 h 23.54843 v 23.54836 23.54843 23.53323 23.54843 23.54844 h -23.54843 v 23.54835 h -23.54836 v 23.54844 h -23.5333 v 23.53322 H 306.00632 282.45789 258.90945 235.3611 211.82779 v -23.53322 h -23.54835 v -23.54844 -23.54835 h 23.54835 v -23.54844 h 23.53331 v -23.54843 h 23.54835 23.54844 V 211.05496 H 258.90945 235.3611 211.82779 v 23.53323 h -23.54835 v -23.53323 h 23.54835 v -23.54843 h 23.53331 v -23.54836 h 23.54835 23.54844 v 23.54836 h 23.54843 v 23.54843 h 23.54836 v 23.53323 23.54843 23.54844 23.54835 h 23.5333 v -23.54835 -23.54844 -23.54843 -23.53323 -23.54843 h -23.5333 V 163.95817 H 306.00632 V 140.40974 H 282.45789 258.90945 235.3611 211.82779 188.27944 v 23.54843 H 164.731 v 23.54836 23.54843 23.53323 23.54843 23.54844 23.54835 23.54844 23.53322 h 23.54844 v 23.54844 h 23.54835 v 23.54835 h 23.53331 23.54835 23.54844 23.54843 23.54836 23.5333 v -23.54835 h 23.54836 v -23.54844 h 23.54843 v 23.54844 h -23.54843 v 23.54835 H 353.08798 V 422.9603 H 329.55468 306.00632 282.45789 258.90945 235.3611 211.82779 188.27944 164.731 v -23.54844 h -23.54835 v -23.54835 h -23.54844 v -23.54844 -23.53322 -23.54844 -23.54835 -23.54844 -23.54843 -23.53323 -23.54843 h 23.54844 V 163.95817 H 164.731 v -23.54843 h 23.54844 z m 47.08166,141.27524 v 23.54844 23.54835 23.54844 h 23.54835 23.54844 v -23.54844 -23.54835 -23.54844 h -23.54844 z"
     id="path3548" />
</svg>
