<?xml version="1.0" encoding="UTF-8" standalone="no"?>
<svg
   viewBox="0 0 640 512"
   version="1.1"
   id="svg4"
   sodipodi:docname="handshake.svg"
   inkscape:version="1.1 (c68e22c387, 2021-05-23)"
   xmlns:inkscape="http://www.inkscape.org/namespaces/inkscape"
   xmlns:sodipodi="http://sodipodi.sourceforge.net/DTD/sodipodi-0.dtd"
   xmlns="http://www.w3.org/2000/svg"
   xmlns:svg="http://www.w3.org/2000/svg">
  <defs
     id="defs8" />
  <sodipodi:namedview
     id="namedview6"
     pagecolor="#ffffff"
     bordercolor="#666666"
     borderopacity="1.0"
     inkscape:pageshadow="2"
     inkscape:pageopacity="0.0"
     inkscape:pagecheckerboard="0"
     showgrid="false"
     inkscape:zoom="0.57452426"
     inkscape:cx="303.72956"
     inkscape:cy="254.99358"
     inkscape:window-width="1920"
     inkscape:window-height="1009"
     inkscape:window-x="0"
     inkscape:window-y="40"
     inkscape:window-maximized="1"
     inkscape:current-layer="svg4" />
  <!--! Font Awesome Free 6.3.0 by @fontawesome - https://fontawesome.com License - https://fontawesome.com/license/free (Icons: CC BY 4.0, Fonts: SIL OFL 1.1, Code: MIT License) Copyright 2023 Fonticons, Inc. -->
  <path
     id="path49875"
     style="display:inline;fill:#000000;fill-opacity:1;stroke:none;stroke-width:17.7602;stroke-linecap:round;stroke-linejoin:bevel;stroke-miterlimit:4;stroke-dasharray:none;stroke-dashoffset:0;stroke-opacity:1"
     d="M 321.58145,-0.61216624 C 179.85859,-0.61367684 64.971351,114.24656 64.969288,255.96913 c 0.0158,3.83955 0.136621,7.67571 0.323723,11.50444 1.151997,-2.70509 2.54662,-5.89577 4.302567,-9.82343 C 75.566041,121.2202 188.06061,12.432891 325.96099,12.434312 c 84.50808,0.0033 162.25565,41.482904 209.66944,108.720958 1.60427,-0.62848 2.88181,-1.10871 3.51606,-1.27998 C 493.7732,47.507501 413.30127,-0.61058754 321.5813,-0.61216624 Z M 338.252,37.077765 c -76.81759,0.0011 -145.73905,33.754207 -192.76754,87.238905 17.61869,7.44499 48.74709,21.53134 48.74709,22.39181 0,0.93407 -66.54483,146.56702 -70.86136,155.07769 -1.08811,2.14859 -2.56621,3.88669 -3.26941,3.85534 -0.70351,-0.0237 -13.91571,-5.68921 -29.36233,-12.56847 -3.174491,-1.41382 -6.140311,-2.77339 -9.036936,-4.08669 -0.0316,1.564 -0.06321,3.13288 -0.06321,4.70359 0.206084,29.72137 5.548342,59.1787 15.822391,87.06921 45.263695,81.34669 131.026405,131.81243 224.119225,131.85302 127.97454,-9.9e-4 234.07192,-93.71129 253.45079,-216.23894 -11.20866,4.95071 -21.27726,9.31456 -21.92922,9.31456 -0.55113,0 -1.90114,-1.75446 -2.99177,-3.90162 -4.27777,-8.41522 -70.86137,-154.11834 -70.86137,-155.06221 0,-0.90083 33.54229,-16.0696 50.69016,-23.25554 C 481.89467,69.273276 412.41933,37.174016 338.25052,37.077765 Z M 543.51089,127.0771 c 3.94139,8.14669 10.73634,22.57444 19.0917,40.5891 -5.18988,-14.15844 -11.60314,-27.72588 -19.0917,-40.5891 z m -236.47184,28.838 c 4.95656,-0.22582 8.30949,0.9415 12.96941,3.14599 4.01745,1.89789 6.29418,3.53564 5.72134,4.10207 -0.52269,0.51955 -7.28597,3.27383 -15.03581,6.12229 -32.13519,11.81815 -46.42209,18.42058 -72.77363,33.66492 -11.045,6.38957 -12.40661,8.18957 -13.24704,17.45706 -1.07698,11.87782 5.72515,19.56277 19.95535,22.54609 14.60235,3.06182 32.53764,0.63798 59.77335,-8.08082 24.10362,-7.71512 33.93683,-9.6345 46.89646,-9.11409 9.52696,0.364 10.22975,0.5827 19.24593,5.4592 35.62502,19.25358 79.44924,51.97005 110.80283,82.72041 12.27231,12.03598 13.41931,13.48358 14.52694,18.39775 2.18595,9.69931 -1.64736,17.82632 -11.65855,24.72051 -8.10965,5.58435 -13.91446,6.13194 -21.68255,2.051 -3.10817,-1.63235 -5.96051,-3.10832 -6.33816,-3.28471 -0.37978,-0.14924 -0.42637,2.51267 -0.1082,5.96809 1.0349,11.41347 -4.54173,19.95463 -16.73222,25.63035 -6.26583,2.91559 -8.23568,3.05676 -14.18773,0.95616 -2.43244,-0.85352 -4.61255,-1.55758 -4.8423,-1.55758 -0.22978,0 -0.11048,2.97827 0.26213,6.61577 0.86308,8.41996 -0.67113,13.14344 -6.16857,19.10711 -9.38513,10.18157 -18.89249,12.57603 -28.22109,7.10926 l -4.71898,-2.76044 v 6.90879 c 0,7.60022 -1.70873,12.28785 -6.06063,16.63975 -5.54109,5.5411 -13.61576,7.6296 -21.21985,5.50541 l -0.0158,0.0158 c -2.13256,-0.59693 -5.85928,-2.85132 -8.29669,-5.01192 l -4.44138,-3.94787 9.74629,-10.17811 c 11.41332,-11.93839 13.58623,-16.02626 13.58623,-25.44535 0,-8.60053 -2.3433,-13.86108 -8.6359,-19.40011 -6.08686,-5.35822 -12.0033,-7.09023 -21.52835,-6.29197 l -7.23258,0.61666 v -4.44138 c 0,-10.22279 -5.66411,-19.41734 -14.75829,-23.94943 -4.30594,-2.14866 -6.93824,-2.69877 -12.87687,-2.69877 h -7.44855 l -0.50926,-7.01672 c -0.60403,-8.41521 -3.24508,-14.05854 -9.02147,-19.27677 -6.84302,-6.18239 -16.75891,-8.17544 -26.74073,-5.36668 -2.00717,0.56693 -2.2341,0.0907 -2.74504,-5.52087 -0.6506,-7.17882 -3.38231,-13.0021 -8.23504,-17.56499 -5.91038,-5.55656 -9.93096,-7.10223 -18.56735,-7.12465 -10.57337,-0.0236 -13.46424,1.85928 -32.7396,21.23525 -8.57433,8.62026 -16.21812,15.68357 -16.97905,15.68357 -1.57827,0 -40.5279,-22.2793 -42.73262,-24.4429 -1.23104,-1.2056 0.17844,-4.94194 9.48413,-25.15232 6.01002,-13.05778 19.05169,-41.46735 28.9922,-63.13521 9.94054,-21.66731 18.65461,-39.6206 19.36933,-39.89522 0.71457,-0.23845 4.77227,1.27533 9.00606,3.4544 l 7.6953,3.96335 14.78913,-1.32625 c 23.31658,-2.08598 32.61921,-3.81483 50.44341,-9.37621 17.83558,-5.56446 26.86051,-8.14535 33.2331,-8.43552 z m 60.1281,0.87904 c 6.63789,-0.19188 12.58743,1.75647 24.18075,5.08904 21.43281,6.16091 33.89168,8.79518 53.01878,11.24221 16.24321,2.08 20.99663,1.63333 30.0255,-2.82208 4.40411,-2.17252 7.27935,-3.04383 7.91118,-2.40577 0.54558,0.54638 13.94074,29.24929 29.77876,63.76749 24.13891,52.60977 28.57398,62.96522 27.37295,64.07592 -2.09704,1.93973 -42.47297,23.46998 -43.90478,23.40973 -0.66877,-0.0236 -7.54392,-5.94053 -15.26715,-13.13902 v 0.0158 c -32.96045,-30.72201 -69.49375,-58.02672 -103.21542,-77.12245 -13.556,-7.67602 -16.32488,-8.49 -28.66841,-8.49717 -12.15995,-0.008 -21.18233,1.84287 -43.19541,8.89812 -23.86864,7.65421 -31.87138,9.21379 -47.51334,9.25287 -12.13935,0.0237 -13.39153,-0.14606 -18.87577,-2.85298 -7.37053,-3.61806 -9.77243,-7.85011 -8.85186,-15.62191 0.33794,-2.84989 1.40498,-6.05304 2.37488,-7.12465 2.57268,-2.84398 32.0342,-19.11097 45.49316,-25.12147 6.36778,-2.84696 27.49154,-11.01782 46.94274,-18.15101 24.19016,-8.87151 33.85898,-12.64522 42.39344,-12.89228 z M 66.403477,281.89257 c 2.167699,20.59064 6.801494,40.87658 13.863847,60.40564 -5.771728,-19.1334 -9.247207,-38.85811 -10.440241,-58.77099 -1.359029,-0.63876 -2.358858,-1.12159 -3.423606,-1.63465 z m 160.151323,6.13769 c 15.64498,0.0632 26.61543,17.68262 19.30759,30.99702 -1.94599,3.54526 -34.98997,36.46955 -38.41476,38.27595 -4.3433,2.29482 -12.05241,2.73525 -16.85556,0.97156 -7.67846,-2.82905 -14.01417,-11.95537 -14.03352,-20.21747 -0.0158,-7.5632 2.16052,-10.72584 19.63147,-28.46793 18.22728,-18.50931 22.5825,-21.59822 30.36478,-21.55913 z m 38.18336,29.39322 c 5.33736,-0.14687 10.58314,1.74963 14.78914,5.55167 7.25138,6.55125 9.11265,16.42594 4.79604,25.52241 -0.96928,2.0442 -9.59579,11.44229 -19.15337,20.89605 -13.81996,13.66922 -18.22269,17.41835 -21.52826,18.33599 -5.92972,1.64731 -10.81159,1.41044 -15.60644,-0.7714 -11.26551,-5.12009 -15.9128,-18.59483 -10.20898,-29.62451 2.197,-4.24719 33.16415,-35.21594 37.41231,-37.41238 3.05258,-1.57909 6.29719,-2.41018 9.49956,-2.49822 z m 35.77765,33.06349 c 3.45803,4.7e-4 6.99965,0.63009 9.82343,1.91227 6.51762,2.96029 11.84395,11.40361 11.82824,18.72157 -0.0158,7.92995 -1.8218,10.57502 -19.58519,28.52957 -9.52623,9.62857 -19.06637,18.40961 -21.18898,19.50806 -4.15618,2.14867 -13.02643,2.59495 -17.31825,0.87904 -7.28281,-2.9156 -13.63779,-11.84791 -13.64798,-19.16877 -0.008,-8.29766 1.68772,-10.82303 19.60058,-28.9614 9.51694,-9.63639 19.05115,-18.41561 21.17368,-19.50807 2.48953,-1.2803 5.85645,-1.91274 9.31447,-1.91227 z m 36.82638,29.51657 c 8.09282,-0.47534 18.3487,5.83701 21.18897,13.38575 1.5819,4.20031 1.34756,12.65121 -0.46269,16.97896 -2.25669,5.40086 -27.95547,30.92421 -33.80371,33.57237 -5.42851,2.45701 -10.33027,2.6626 -15.97661,0.64747 h -0.0158 c -7.94464,-2.83404 -14.11611,-11.48099 -14.14146,-19.80115 -0.0236,-7.61152 3.9324,-13.6002 18.30521,-27.69683 13.7012,-13.43764 16.87908,-15.738 23.31712,-16.90181 0.51718,-0.0939 1.04888,-0.15319 1.58847,-0.18476 z" />
</svg>
