<?xml version="1.0" encoding="UTF-8" standalone="no"?>
<svg
   viewBox="0 0 512 512"
   version="1.1"
   id="svg4"
   sodipodi:docname="hand-point-right.svg"
   inkscape:version="1.1 (c68e22c387, 2021-05-23)"
   xmlns:inkscape="http://www.inkscape.org/namespaces/inkscape"
   xmlns:sodipodi="http://sodipodi.sourceforge.net/DTD/sodipodi-0.dtd"
   xmlns="http://www.w3.org/2000/svg"
   xmlns:svg="http://www.w3.org/2000/svg">
  <defs
     id="defs8" />
  <sodipodi:namedview
     id="namedview6"
     pagecolor="#ffffff"
     bordercolor="#666666"
     borderopacity="1.0"
     inkscape:pageshadow="2"
     inkscape:pageopacity="0.0"
     inkscape:pagecheckerboard="0"
     showgrid="false"
     inkscape:zoom="0.57452426"
     inkscape:cx="209.73875"
     inkscape:cy="254.99358"
     inkscape:window-width="1920"
     inkscape:window-height="1009"
     inkscape:window-x="0"
     inkscape:window-y="40"
     inkscape:window-maximized="1"
     inkscape:current-layer="svg4" />
  <!--! Font Awesome Free 6.3.0 by @fontawesome - https://fontawesome.com License - https://fontawesome.com/license/free (Icons: CC BY 4.0, Fonts: SIL OFL 1.1, Code: MIT License) Copyright 2023 Fonticons, Inc. -->
  <path
     id="path1093"
     style="display:inline;fill:#000000;fill-opacity:1;stroke:none;stroke-width:17.4718;stroke-linecap:round;stroke-linejoin:bevel;stroke-miterlimit:4;stroke-dasharray:none;stroke-dashoffset:0;stroke-opacity:1"
     d="M 256,3.5544495 C 116.57818,3.5529735 3.5562735,116.54831 3.5542539,255.96983 3.6715442,284.92947 8.7555684,313.66377 18.603904,340.89716 11.552434,317.52168 7.9141085,293.25046 7.8324714,268.83485 7.834491,129.41333 120.887,16.387626 260.3086,16.389102 361.77586,16.392909 453.35828,77.145099 492.83473,170.61769 448.39302,90.49109 364.02527,40.751282 272.39988,40.632361 132.97775,40.634458 19.952352,153.65659 19.95414,293.0781 c 0.205062,29.23882 5.45842,58.21787 15.565416,85.65562 C 80.048499,458.75956 164.41859,508.40594 256,508.44555 395.42213,508.44455 508.44776,395.39133 508.44575,255.96983 508.44427,116.55095 395.41856,3.5567795 256,3.5544495 Z m 8.45026,143.0474805 c 3.14384,0.0311 6.24667,0.65248 8.61709,1.86608 3.27426,1.67042 22.52811,18.33153 44.75452,38.73155 9.99546,9.17404 12.45528,13.22762 12.42506,20.42022 -0.0155,4.93504 -2.3291,10.99964 -5.46152,14.41248 -5.17638,5.63606 -16.48627,7.80671 -23.56065,4.52095 -1.9053,-0.88659 -10.05751,-7.50766 -18.11418,-14.71587 -12.7113,-11.37203 -15.03365,-13.09262 -17.55283,-13.09262 -4.09428,0 -6.54673,2.65698 -6.20496,6.73595 0.23458,2.89761 1.52951,4.30075 14.57933,16.0206 7.86582,7.06468 16.54125,14.24221 19.28235,15.95993 2.74202,1.71741 4.97613,3.45936 4.97613,3.86863 0,0.4109 -1.92721,0.74336 -4.29345,0.74336 -10.55557,0 -21.90855,8.10956 -26.09411,18.64517 -1.70272,4.28654 -2.05786,6.77961 -2.07844,14.29107 -0.0233,8.09575 0.22371,9.64786 2.29081,14.06357 1.28002,2.73029 3.59731,6.54191 5.14298,8.46539 l 2.80666,3.48935 -2.16948,2.38185 c -10.5315,11.49094 -11.24021,30.82082 -1.59297,43.66224 1.90242,2.52763 3.45905,4.84672 3.45905,5.14297 0,0.29672 -0.78126,1.23341 -1.72953,2.09359 -2.67446,2.42201 -5.7591,8.19392 -7.40342,13.85112 -2.04916,7.04704 -1.37563,16.45286 1.66878,23.31783 1.23893,2.80075 2.26051,5.23697 2.26051,5.41609 0,0.59888 -48.03195,0.0932 -54.37292,-0.5616 l 0.0155,-0.0155 c -26.53406,-2.78902 -48.5123,-20.57969 -57.22509,-46.33226 l -2.35148,-6.93318 -0.28818,-40.7494 c -0.29672,-43.20248 -0.0155,-47.7886 3.68657,-56.89125 5.01194,-12.33442 14.56137,-22.61859 65.46291,-70.53007 17.2286,-16.21635 27.74627,-25.4658 30.19034,-26.57967 2.54931,-1.16109 5.73121,-1.72999 8.87505,-1.69916 z m 80.13326,58.16568 68.46687,0.22759 68.48193,0.24235 4.26306,2.09359 c 13.23709,6.51481 18.60518,21.36421 12.33404,34.13478 -2.73613,5.57245 -8.83281,11.07795 -14.26078,12.88024 -2.3016,0.76589 -14.92444,1.16033 -44.64825,1.38054 l -41.44724,0.30371 3.61067,3.50449 c 5.14026,4.9891 7.29732,10.19734 7.29732,17.64394 0,13.71712 -9.77051,23.94723 -24.15231,25.29009 l -5.7953,0.5313 3.45898,3.41346 c 5.23098,5.17902 7.38361,10.31905 7.38827,17.56804 0.007,14.62073 -9.87553,24.55024 -25.2901,25.39628 l -7.16068,0.39459 3.41346,3.70179 c 9.9003,10.74075 10.39066,23.99329 1.25919,34.14993 -7.69874,8.56272 -12.3491,9.60234 -43.2222,9.55775 -15.44331,-0.0233 -22.57137,-0.3542 -24.80463,-1.15302 -4.84229,-1.72913 -8.34041,-4.61114 -10.89283,-8.96609 -4.59126,-7.83468 -2.35846,-19.78119 4.71825,-25.18383 l 3.09483,-2.36671 20.13196,-0.42488 c 18.22791,-0.39304 20.31862,-0.58723 21.96768,-2.07845 2.63926,-2.39264 2.46744,-7.73967 -0.31847,-10.52869 l -2.12396,-2.12389 H 311.0254 c -21.78342,-0.003 -22.84758,-0.27419 -27.01953,-6.69043 -6.04216,-9.28495 -4.18485,-21.22673 4.20233,-26.97409 2.64516,-1.81428 3.54775,-1.87533 27.82363,-1.88116 14.58554,-0.003 26.4341,-0.37284 28.30912,-0.89513 6.27293,-1.74382 7.98668,-8.42843 3.20108,-12.45544 l -2.65487,-2.2453 h -27.21684 -27.20161 l -3.11005,-2.73076 c -9.19252,-8.07158 -9.19252,-21.99765 0,-30.06892 l 3.11005,-2.73085 h 22.1193 c 24.39395,0 26.07174,-0.32158 28.0816,-5.17327 2.39559,-5.78668 -2.42542,-10.43766 -10.8018,-10.43766 -2.16071,0 -3.92931,-0.38604 -3.92931,-0.86477 0,-0.47848 2.4711,-3.32054 5.47676,-6.29599 6.50331,-6.44078 9.77385,-12.83434 11.75752,-22.96891 z m -250.974102,8.72336 c 12.026212,-0.005 24.047442,0.28429 26.078972,0.84962 3.48476,0.96877 8.08377,5.3068 9.45157,8.93572 1.28584,3.41369 1.27217,160.73826 -0.0155,164.13525 -1.15963,3.06019 -3.92814,6.09063 -7.29725,7.94956 -2.21942,1.22425 -6.09023,1.45502 -26.443107,1.59297 -13.109623,0.0877 -25.151675,-0.17399 -26.761657,-0.56159 v -0.0155 c -3.456254,-0.85134 -6.673889,-3.10369 -9.148089,-6.41733 -1.770305,-2.37214 -1.801531,-3.15791 -2.048151,-82.30276 -0.146807,-43.94264 -0.0078,-81.17994 0.273418,-82.75793 0.698304,-3.87935 5.883151,-9.45172 9.815634,-10.54384 2.038907,-0.56625 14.067909,-0.85925 26.09419,-0.86476 z" />
</svg>
