<?xml version="1.0" encoding="UTF-8" standalone="no"?>
<svg
   viewBox="0 0 512 512"
   version="1.1"
   id="svg4"
   sodipodi:docname="phone.svg"
   inkscape:version="1.1 (c68e22c387, 2021-05-23)"
   xmlns:inkscape="http://www.inkscape.org/namespaces/inkscape"
   xmlns:sodipodi="http://sodipodi.sourceforge.net/DTD/sodipodi-0.dtd"
   xmlns="http://www.w3.org/2000/svg"
   xmlns:svg="http://www.w3.org/2000/svg">
  <defs
     id="defs8" />
  <sodipodi:namedview
     id="namedview6"
     pagecolor="#ffffff"
     bordercolor="#666666"
     borderopacity="1.0"
     inkscape:pageshadow="2"
     inkscape:pageopacity="0.0"
     inkscape:pagecheckerboard="0"
     showgrid="false"
     inkscape:zoom="0.57452426"
     inkscape:cx="239.32845"
     inkscape:cy="254.99358"
     inkscape:window-width="1920"
     inkscape:window-height="1009"
     inkscape:window-x="0"
     inkscape:window-y="40"
     inkscape:window-maximized="1"
     inkscape:current-layer="svg4" />
  <!--! Font Awesome Free 6.3.0 by @fontawesome - https://fontawesome.com License - https://fontawesome.com/license/free (Icons: CC BY 4.0, Fonts: SIL OFL 1.1, Code: MIT License) Copyright 2023 Fonticons, Inc. -->
  <path
     id="path50157"
     style="display:inline;fill:#000000;fill-opacity:1;stroke:none;stroke-width:16.5802;stroke-linecap:round;stroke-linejoin:bevel;stroke-miterlimit:4;stroke-dasharray:none;stroke-dashoffset:0;stroke-opacity:1"
     d="M 243.82835,16.432765 C 111.52138,16.431563 4.2711578,123.68485 4.2689948,255.99213 4.3902552,283.47394 9.185855,310.74887 18.531475,336.59323 11.839536,314.41028 8.4105528,291.3532 8.3327931,268.1835 8.334978,135.87622 115.58485,28.622302 247.89215,28.624137 c 35.24329,0.0014 69.22357,7.759009 99.99426,21.903637 3.9873,-1.520562 8.07688,-2.850342 12.25412,-3.985296 -34.44359,-19.16776 -74.0986,-30.10897 -116.31218,-30.109713 z M 259.39313,51.62611 C 127.08615,51.628294 19.832239,158.8785 19.833769,291.18547 c 0.182437,27.74658 5.173932,55.27 14.764564,81.30715 42.256799,75.9428 122.322367,123.03696 209.230017,123.07462 128.34143,-0.002 233.09695,-100.9317 239.26133,-227.74459 -0.0723,0.0642 -0.13416,0.12541 -0.20407,0.1879 -16.56615,14.92194 -32.77046,23.67419 -54.53953,29.4977 -17.28938,4.62492 -32.48583,5.79924 -49.40871,3.79708 l 36.69959,83.61354 -1.3807,6.49585 c -0.75034,3.57847 -3.52163,8.94552 -6.18197,11.9089 -4.51736,5.03775 -9.63232,7.49753 -78.49859,37.56254 -40.51731,17.68769 -75.13745,32.41232 -76.92948,32.72997 -5.62831,0.9959 -16.23814,-2.36891 -20.61707,-6.54291 -3.49864,-3.33893 -14.98572,-28.59862 -68.51944,-150.5954 C 92.377781,154.37632 95.894095,163.88863 102.69407,151.60423 l 3.68726,-6.68406 75.01528,-33.40461 c 63.04419,-28.08906 78.6778,-35.080457 87.69307,-33.969514 3.00274,0.349448 5.27017,1.624343 8.31582,3.31065 l 6.35459,3.51463 4.94241,11.28133 C 298.7761,81.982911 311.47703,70.22895 326.15525,61.228124 304.75522,54.984237 282.31834,51.655583 259.39302,51.625695 Z m 135.62693,6.793862 c -4.67441,0.04828 -9.39734,0.403285 -14.15265,1.035587 -36.1404,4.803115 -67.31869,26.053148 -84.68054,57.724611 -9.04789,16.50558 -13.82537,34.63035 -13.83879,52.53108 -0.024,27.46294 9.50765,52.93421 27.48936,73.55609 3.01767,3.46057 5.59021,6.70719 5.72693,7.21755 0.13744,0.51174 -0.69085,14.96267 -1.8357,32.10232 -1.14477,17.13963 -2.05728,31.2567 -2.02411,31.38059 0.13328,0.49645 2.07005,-0.68848 28.13275,-17.32209 14.90178,-9.51054 27.67419,-17.46146 28.38371,-17.65154 0.70936,-0.19031 4.08508,0.15184 7.49993,0.75273 15.0655,2.65473 27.82885,2.163 44.2466,-1.69448 12.60967,-2.96378 20.30523,-5.855 30.26659,-11.39117 35.43821,-19.69498 57.97292,-58.20829 57.48923,-98.2212 C 507.2486,129.1949 486.59062,93.602065 452.91723,74.015837 434.72359,63.433405 415.27571,58.199213 395.02006,58.419644 Z M 246.90371,101.09758 c -3.02716,-0.12126 -5.91196,1.85603 -5.7113,6.11922 0.21281,5.03471 4.02154,7.51157 8.48845,5.55439 2.8207,-1.23579 4.09681,-2.86857 3.87549,-4.95816 -0.45548,-4.27049 -3.62403,-6.55735 -6.65264,-6.69972 z M 223.9174,113.54 192.19163,127.473 c -29.80964,13.08077 -31.69163,14.09916 -30.58037,16.63169 0.65311,1.4817 1.83435,2.93759 2.63593,3.24792 0.80174,0.30368 14.98323,-5.57455 31.53755,-13.10139 29.96228,-13.62004 30.11509,-13.70962 29.13685,-17.21228 z m 122.96484,6.57424 c 3.4902,0.024 5.15071,1.63712 15.64317,15.12542 6.10154,7.84367 8.76575,11.76543 9.27299,13.68195 0.86278,3.2579 -0.10772,7.28649 -3.342,13.87022 l -2.35355,4.7855 1.7259,1.82015 c 6.22044,6.57101 18.76987,14.43848 29.16827,18.27917 6.50618,2.40321 20.25692,5.16004 21.44859,4.29909 0.4523,-0.32694 2.62172,-4.48666 4.81693,-9.24158 2.19523,-4.75514 4.39655,-8.93165 4.89542,-9.3043 2.93783,-2.12621 5.71884,-1.93278 25.24562,1.75729 13.62461,2.57481 14.58846,3.08902 16.09825,8.72383 1.1545,4.30842 1.09208,12.50379 -0.1254,16.11394 -2.27426,6.74455 -10.67931,15.22151 -19.15787,19.31469 v -0.0153 c -4.78592,2.31258 -6.12269,2.74936 -9.35141,3.05961 -6.84463,0.65955 -28.3575,-0.74712 -36.46429,-2.38497 -14.11995,-2.85243 -31.12432,-10.59761 -45.65873,-20.78963 -7.15801,-5.01928 -18.20679,-14.44378 -22.68816,-19.36178 -11.21041,-12.30271 -15.30296,-24.6803 -12.63064,-38.12745 1.27403,-6.41101 6.55044,-15.81381 10.07312,-17.93399 3.04217,-1.81877 9.86217,-3.69964 13.38386,-3.67153 z m -72.56759,0.2667 -71.57913,31.41199 -75.07803,32.94959 48.3888,111.32269 c 26.60005,61.22839 49.08851,112.01187 49.92656,112.86021 1.19932,1.21754 17.19733,-5.43292 76.08219,-31.63163 l 74.60735,-33.20063 -18.07522,-41.187 c -4.79379,2.81724 -12.8069,7.87718 -26.67347,16.72583 -17.47641,11.15186 -32.36612,20.42012 -33.09082,20.60134 -0.72542,0.18244 -1.43597,-0.0925 -1.58476,-0.59609 -0.15185,-0.51013 0.81612,-17.45849 2.13392,-37.67236 l 2.40054,-36.76233 -6.11913,-6.90377 c -13.63707,-15.41415 -22.45577,-31.77231 -27.80323,-51.60532 -3.47501,-12.88889 -4.52369,-20.03937 -4.70709,-32.03964 -0.29161,-19.05032 3.70983,-37.49923 11.17152,-54.27272 z m 64.17328,265.74649 c -3.11206,0.25145 -11.79474,3.57471 -28.21115,10.77925 -18.76134,8.23282 -26.93294,12.45688 -27.63057,14.24681 -1.28438,3.29282 3.56106,14.31236 6.8566,15.5961 1.78832,0.69811 10.4229,-2.46674 29.18393,-10.70077 18.76168,-8.23281 26.93255,-12.4412 27.63066,-14.23106 1.2843,-3.29251 -3.54605,-14.32811 -6.84103,-15.61185 -0.22413,-0.0876 -0.54386,-0.11405 -0.98844,-0.0804 z" />
</svg>
