<?xml version="1.0" encoding="UTF-8" standalone="no"?>
<svg
   viewBox="0 0 512 512"
   version="1.1"
   id="svg4"
   sodipodi:docname="puzzle-piece.svg"
   inkscape:version="1.1 (c68e22c387, 2021-05-23)"
   xmlns:inkscape="http://www.inkscape.org/namespaces/inkscape"
   xmlns:sodipodi="http://sodipodi.sourceforge.net/DTD/sodipodi-0.dtd"
   xmlns="http://www.w3.org/2000/svg"
   xmlns:svg="http://www.w3.org/2000/svg">
  <defs
     id="defs8" />
  <sodipodi:namedview
     id="namedview6"
     pagecolor="#ffffff"
     bordercolor="#666666"
     borderopacity="1.0"
     inkscape:pageshadow="2"
     inkscape:pageopacity="0.0"
     inkscape:pagecheckerboard="0"
     showgrid="false"
     inkscape:zoom="0.57452426"
     inkscape:cx="239.32845"
     inkscape:cy="256.73415"
     inkscape:window-width="1920"
     inkscape:window-height="1009"
     inkscape:window-x="0"
     inkscape:window-y="40"
     inkscape:window-maximized="1"
     inkscape:current-layer="svg4" />
  <!--! Font Awesome Free 6.3.0 by @fontawesome - https://fontawesome.com License - https://fontawesome.com/license/free (Icons: CC BY 4.0, Fonts: SIL OFL 1.1, Code: MIT License) Copyright 2023 Fonticons, Inc. -->
  <path
     id="path49569"
     style="display:inline;fill:#000000;fill-opacity:1;stroke:none;stroke-width:17.6231;stroke-linecap:round;stroke-linejoin:bevel;stroke-miterlimit:4;stroke-dasharray:none;stroke-dashoffset:0;stroke-opacity:1"
     d="M 256,1.5135056 C 115.37081,1.512012 1.3701623,115.50114 1.3681272,256.13008 1.4958339,285.34043 6.6143335,314.32366 16.548104,341.79288 9.4356438,318.21498 5.7810099,293.73358 5.6987474,269.10652 5.7006144,128.47758 119.71702,14.473178 260.34589,14.474653 362.69185,14.478387 455.0827,75.741439 494.90102,170.02347 450.07445,89.202995 364.96081,39.047812 272.5419,38.927854 c -49.51148,7.09e-4 -95.70116,14.143591 -134.79881,38.592629 1.16315,4.017552 2.57452,9.404852 4.54481,17.031593 3.97563,15.402954 7.2144,29.029134 7.19214,30.268124 -0.0392,1.94256 -5.94092,4.58227 -10.42094,4.6672 -0.78881,0.0149 -2.77738,-4.66595 -4.40709,-10.40558 -3.65949,-12.88697 -6.66471,-24.957375 -8.53871,-33.848879 -15.59868,10.984979 -29.914395,23.668599 -42.663053,37.796849 14.51635,9.90823 32.196183,22.87918 32.196183,24.26963 0,1.51611 -6.58571,8.06438 -8.11029,8.06438 -0.46382,0 -11.515464,-7.62713 -24.560293,-16.93975 -3.025267,-2.15961 -5.179459,-3.70831 -7.880755,-5.64656 -35.741297,43.84063 -57.185773,99.80831 -57.185063,160.78223 0.204499,29.49202 5.50554,58.70668 15.700288,86.38203 43.012961,77.30169 122.896223,126.48238 210.713983,130.54474 -0.84257,-0.6025 -1.6479,-1.31123 -2.55548,-2.21883 -3.04399,-3.04414 -4.86622,-7.14918 -4.86622,-10.92598 V 491.282 h 29.8091 c 22.40548,0 29.86658,0.626 30.03865,2.49429 0.59936,6.4906 -0.81421,10.54921 -5.01923,14.50666 56.69578,-7.96402 107.39674,-34.60635 145.69408,-73.49743 -16.42101,-12.72164 -35.54746,-29.76167 -35.54746,-31.82897 0,-2.70357 6.25188,-9.07431 8.90599,-9.07431 1.64579,0 26.66161,19.98039 37.26134,29.45708 C 487.02725,378.60137 510.6328,320.1252 510.63187,256.13008 510.63038,115.50381 396.62597,1.5158581 256,1.5135056 Z M 371.05873,85.860272 c 2.0018,-0.03137 4.66501,0.260902 8.26332,0.59701 7.03027,0.657354 13.60252,1.701094 14.61375,2.325924 1.04469,0.645591 1.32675,7.889753 0.64246,16.756104 -1.07431,13.93715 -0.75058,16.28132 3.0758,21.65288 9.03221,12.68404 23.26159,12.48699 39.64853,-0.55078 4.72102,-3.7557 9.63394,-6.40991 10.9259,-5.89141 2.04615,0.82024 11.23984,12.44076 15.83795,20.01556 1.00685,1.65825 -0.39959,4.18647 -3.94797,7.10031 -16.5253,13.56725 -20.47459,18.77522 -20.47459,26.9934 0,14.37597 9.29327,21.64271 32.22682,25.21836 4.06126,0.63383 7.76462,1.79495 8.2174,2.57075 0.45286,0.77879 -0.10026,7.51448 -1.17828,14.98106 l -1.98933,13.58858 -16.4348,-1.37722 -16.45008,-1.3772 -7.62055,6.99312 c -10.85634,9.94906 -10.64988,18.78549 0.79571,35.01189 4.62121,6.55343 8.40104,12.29347 8.40104,12.76224 0,1.43619 -21.5775,17.23049 -23.53511,17.23049 -1.00685,0 -5.44434,-4.77861 -9.85472,-10.61986 -4.41016,-5.84126 -10.75307,-11.75475 -14.10881,-13.14474 -13.54109,-5.60879 -28.44833,3.65606 -31.14038,19.35752 -3.62047,21.11563 -3.46597,20.96623 -19.15866,18.28633 -5.13799,-0.87649 -10.25877,-2.15921 -11.36966,-2.84624 -1.26266,-0.78192 -1.55498,-7.14474 -0.79571,-16.98568 l 1.20892,-15.73083 -7.03912,-7.03912 c -10.46247,-10.46279 -19.42787,-10.24216 -35.53219,0.90287 -9.06325,6.27178 -11.73822,7.28656 -14.10881,5.35582 -5.02636,-4.09386 -13.46611,-16.51567 -13.46611,-19.8319 0,-1.74114 4.10788,-6.12206 9.13557,-9.73235 10.52656,-7.55958 14.72087,-14.45369 14.72087,-24.23899 0,-13.14386 -10.01787,-20.63812 -32.22685,-24.10127 -4.06142,-0.63384 -7.77795,-1.79495 -8.24796,-2.57076 -1.17914,-1.95142 2.56966,-24.92148 4.36118,-26.71802 0.79947,-0.79953 6.34997,-0.66829 12.33374,0.30635 14.19216,2.30979 20.74349,0.89646 27.60547,-5.96794 10.2094,-10.20925 9.37328,-21.05947 -2.84624,-37.0165 l -7.31451,-9.53334 9.57933,-8.44696 c 5.26327,-4.64606 11.08055,-8.44688 12.93051,-8.44688 1.84948,0 6.6546,4.47649 10.68107,9.96181 8.73662,11.90197 12.00632,13.87933 22.90769,13.87933 11.71786,0 20.90034,-9.26305 22.7699,-22.96891 1.8516,-13.578596 1.95188,-16.609744 7.95729,-16.710267 z M 265.71706,106.65624 v 6.96259 c 0,5.26734 2.32891,9.98125 9.57925,19.40341 6.27085,8.14987 9.35071,13.98157 8.93663,16.89392 -0.61659,4.33424 -1.16823,4.43506 -21.79061,3.81023 -13.94936,-0.42307 -21.61574,0.1096 -22.50983,1.54559 -1.91437,3.09741 -6.93509,37.15408 -6.97787,47.34562 -0.0235,10.05176 2.39559,11.49752 22.95355,13.60384 13.40608,1.374 19.42237,4.76225 18.34758,10.34441 -0.33375,1.72929 -6.61102,7.65775 -13.95578,13.17536 -7.34476,5.5179 -13.91434,11.6905 -14.59846,13.71093 -0.82117,2.41932 1.18406,7.16637 5.86084,13.90988 12.49763,18.02035 25.07597,33.10677 27.60544,33.09909 2.62249,-0.007 8.5743,-3.7065 23.99417,-14.85867 15.82329,-11.44323 20.20492,-5.41606 15.21062,20.91843 -3.46293,18.259 -2.11517,19.22158 33.4051,23.90234 14.91485,1.96622 18.35732,3.04038 17.87321,5.55474 -0.33142,1.71159 -9.45131,10.29802 -20.27568,19.08211 -25.89771,21.01677 -27.71107,24.54205 -28.99801,56.71066 -1.56439,39.15111 -2.3662,39.75564 -53.26766,39.75564 -33.7656,0 -35.93288,-0.22563 -42.34168,-4.52954 -9.07704,-6.10272 -11.48076,-14.24254 -11.61459,-39.37307 -0.13312,-27.51184 -3.34147,-33.9841 -24.9735,-50.51316 -38.83811,-29.67622 -57.53663,-66.52983 -57.47574,-113.29896 0.0471,-32.70311 8.20361,-57.33598 27.55955,-83.21439 22.05958,-29.49265 61.52461,-51.07344 97.50693,-53.31358 z m 99.55738,48.29434 c -18.907,-0.14805 -33.71601,9.41309 -42.14282,27.23833 -8.36188,17.68775 -4.73969,36.05367 9.94654,50.46726 14.43129,14.1634 34.80105,17.40891 52.51787,8.37041 15.46069,-7.8874 24.23899,-22.81775 24.23899,-41.23995 0,-25.70614 -18.80798,-44.63108 -44.56058,-44.83605 z m -157.72181,0.4129 c -1.87917,0 -9.69184,6.50283 -17.35288,14.46075 -21.51357,22.34634 -30.76023,44.57429 -30.8038,74.06363 -0.0706,42.70036 22.75328,78.73539 61.99002,97.9047 20.28961,9.9123 31.51873,21.22133 35.42508,35.66985 3.45211,12.76873 3.44694,12.75149 10.58925,12.05835 5.95892,-0.57742 6.24458,-1.00099 5.92203,-8.55407 -0.875,-20.48289 -16.66093,-40.14587 -41.88263,-52.15056 -17.92492,-8.5315 -38.9503,-27.94636 -45.7695,-42.26521 -10.16475,-21.34403 -12.49599,-41.52708 -7.32986,-63.44376 4.21686,-17.88973 11.80645,-30.93394 26.44253,-45.43283 12.43441,-12.31791 12.56808,-12.55633 9.39568,-17.39881 -1.77168,-2.70058 -4.74641,-4.91204 -6.62592,-4.91204 z M 99.181083,186.02947 c 2.060157,0.0471 2.872797,0.87139 3.947957,2.34129 5.8317,7.97537 3.40699,9.23248 -35.45563,18.53115 -19.55886,4.67991 -18.521692,4.53841 -20.27568,2.78505 -0.728637,-0.72863 -1.331286,-3.3674 -1.331286,-5.87611 0,-3.69914 1.611382,-4.97967 8.462231,-6.74838 4.646377,-1.20226 16.891115,-4.44463 27.22298,-7.2074 10.054121,-2.68877 14.780632,-3.88892 17.429428,-3.8256 z m -17.031577,86.61158 c 0.850781,0 5.832705,2.73365 11.063639,6.07505 10.374855,6.63006 17.923255,6.76826 24.912305,0.44344 3.22019,-2.91384 3.96991,-2.97958 5.55474,-0.47401 3.94123,6.23097 2.11211,10.96172 -5.27935,13.63449 -9.75584,3.52795 -22.472154,15.37648 -26.870941,25.03469 -8.446883,18.54716 -1.649769,44.95586 14.598481,56.72596 18.99435,13.75951 43.16214,11.63699 61.37787,-5.40172 l 9.71707,-9.08965 7.46753,5.55481 c 10.25272,7.61826 16.27294,15.00824 16.35826,20.09202 0.0799,5.17882 -13.03323,17.3336 -16.45008,15.24117 -1.30027,-0.79658 -5.39906,-3.49128 -9.10493,-5.99851 -13.20804,-8.9357 -26.39436,-3.79355 -29.28878,11.43087 -2.16022,11.36449 -4.2261,13.81805 -11.62979,13.81812 -3.72349,0 -7.15859,-0.66125 -7.63589,-1.48438 -0.47714,-0.82024 -2.3658,-6.70403 -4.19289,-13.06826 -2.87765,-10.02451 -4.23276,-11.96222 -10.17611,-14.44546 -7.3276,-3.06186 -11.64976,-1.9067 -25.218337,6.67189 -5.355261,3.38552 -5.522773,3.33568 -11.492053,-2.63203 l -6.059777,-6.05975 5.983227,-8.84483 c 10.503055,-15.50182 6.629136,-27.37715 -10.344392,-31.72181 -4.641896,-1.18744 -9.544078,-2.5253 -10.910633,-2.98396 -1.432911,-0.4795 -2.494295,-4.19916 -2.494295,-8.76826 0,-7.59047 0.311052,-7.9804 7.452265,-9.2733 22.24212,-4.02719 28.18836,-16.47101 16.189961,-33.91009 l -6.166871,-8.98254 5.539446,-5.79957 c 3.053703,-3.18746 6.249619,-5.78431 7.100325,-5.78431 z m 307.777054,17.96503 c 2.12911,-0.11763 4.15388,0.52962 5.06514,2.00462 1.56735,2.53471 -7.80568,22.27009 -12.36437,26.02933 -2.98577,2.46373 -3.15265,1.61741 -1.94336,-10.02311 0.72707,-6.99398 2.32232,-13.93125 3.55012,-15.40946 1.32606,-1.59846 3.56344,-2.48355 5.69247,-2.60138 z m 35.83823,61.76045 c 3.63606,-0.004 8.35827,0.0838 14.52201,0.21389 25.63947,0.54216 26.20428,0.65498 26.84038,5.1416 1.2763,8.99729 -2.27727,10.32911 -27.65145,10.32911 -21.65045,0 -23.7139,-0.32983 -25.70803,-4.05513 -1.19331,-2.22682 -1.6081,-5.82638 -0.91816,-8.00312 0.8862,-2.7939 2.00721,-3.61586 12.91525,-3.62667 z M 266.7117,406.81245 c -6.78285,0 -6.97191,0.19666 -7.57471,8.58462 -0.86701,12.03516 5.05957,17.70037 13.16006,12.56331 1.72578,-1.09273 2.39857,-4.94902 1.98935,-11.4003 -0.61424,-9.69583 -0.65343,-9.74763 -7.5747,-9.74763 z m 115.41067,6.70248 -0.56646,26.47309 -0.55079,26.4579 -5.14159,0.59701 c -2.82674,0.32827 -6.20496,-0.68947 -7.51345,-2.26474 v -0.0149 c -1.62893,-1.96325 -2.20598,-10.29583 -1.82105,-26.42718 l 0.56646,-23.58103 7.51353,-0.61191 z m -87.54502,45.86123 2.38719,5.23341 c 3.86704,8.4874 -1.10463,10.50847 -24.94295,10.11494 -11.11965,-0.17793 -23.62537,-0.61738 -27.78911,-0.96408 -7.20554,-0.59232 -7.54659,-0.92005 -6.96258,-6.9473 l 0.6119,-6.33517 28.35533,-0.55078 z" />
</svg>
