<?xml version="1.0" encoding="UTF-8" standalone="no"?>
<svg
   viewBox="0 0 640 512"
   version="1.1"
   id="svg4"
   sodipodi:docname="user-plus.svg"
   inkscape:version="1.1 (c68e22c387, 2021-05-23)"
   xmlns:inkscape="http://www.inkscape.org/namespaces/inkscape"
   xmlns:sodipodi="http://sodipodi.sourceforge.net/DTD/sodipodi-0.dtd"
   xmlns="http://www.w3.org/2000/svg"
   xmlns:svg="http://www.w3.org/2000/svg">
  <defs
     id="defs8" />
  <sodipodi:namedview
     id="namedview6"
     pagecolor="#ffffff"
     bordercolor="#666666"
     borderopacity="1.0"
     inkscape:pageshadow="2"
     inkscape:pageopacity="0.0"
     inkscape:pagecheckerboard="0"
     showgrid="false"
     inkscape:zoom="0.57452426"
     inkscape:cx="303.72956"
     inkscape:cy="254.99358"
     inkscape:window-width="1920"
     inkscape:window-height="1009"
     inkscape:window-x="0"
     inkscape:window-y="40"
     inkscape:window-maximized="1"
     inkscape:current-layer="svg4" />
  <!--! Font Awesome Free 6.3.0 by @fontawesome - https://fontawesome.com License - https://fontawesome.com/license/free (Icons: CC BY 4.0, Fonts: SIL OFL 1.1, Code: MIT License) Copyright 2023 Fonticons, Inc. -->
  <path
     id="path1395"
     style="display:inline;fill:#000000;fill-opacity:1;stroke:none;stroke-width:16.4416;stroke-linecap:round;stroke-linejoin:bevel;stroke-miterlimit:4;stroke-dasharray:none;stroke-dashoffset:0;stroke-opacity:1"
     d="M 142.62004,2.0529064 C 128.39781,2.1508544 114.07813,6.1882762 101.36115,14.601918 77.456627,30.417268 64.403258,56.502661 66.255348,84.742029 67.642186,105.87053 77.42578,124.95909 94.065865,138.9782 c 0.871736,0.73446 1.781553,1.4198 2.683989,2.11289 -0.0046,0.007 -0.0073,0.0219 -0.01462,0.0292 0.09283,0.0731 0.19224,0.12938 0.285802,0.19955 0.28288,0.2149 0.556987,0.44734 0.842278,0.6564 1.383768,1.01697 2.797136,1.98556 4.240116,2.89808 0.38375,0.21782 0.76911,0.43126 1.15637,0.64251 0.35086,0.21344 0.67394,0.47804 1.02794,0.6849 0.0146,-0.0366 0.0366,-0.0658 0.0585,-0.10014 1.83191,1.10995 3.70849,2.14352 5.62491,3.098 0.23098,0.10964 0.4678,0.20686 0.69952,0.31431 4.36576,1.9075 8.89614,3.408 13.53411,4.48279 -0.0512,0.0855 -0.10452,0.17178 -0.15715,0.2573 0.74338,0.18932 1.5073,0.27484 2.25572,0.44223 21.09181,4.72612 44.01839,0.87085 62.00255,-12.04926 8.52804,-6.12707 15.68977,-4.41036 15.68977,3.75469 0,3.32211 -0.6425,4.47278 -3.95453,7.09536 -11.04207,8.74352 -28.30303,15.92609 -43.80012,18.23101 l -8.00906,1.18495 -3.68335,8.82283 c -18.02334,43.05521 -19.91351,89.21441 -5.4679,133.89907 l 3.76902,11.66382 10.80722,0.70172 c 5.94192,0.3801 13.77643,1.39393 17.40298,2.25572 37.04729,8.80945 65.77025,37.53301 74.58014,74.57993 0.86194,3.62699 1.87716,11.45404 2.25565,17.40327 l 0.68491,10.82104 12.74885,4.0546 c 26.25519,8.35333 50.19451,11.02497 76.07911,8.49441 14.96839,-1.4641 27.73786,-4.13281 42.20116,-8.80799 l 11.69241,-3.76953 0.6849,-10.80715 c 0.37864,-5.94119 1.39371,-13.76166 2.25573,-17.38865 8.81011,-37.04692 37.53278,-65.76974 74.58007,-74.57993 3.62655,-0.86179 11.44702,-1.87709 17.38872,-2.25572 l 10.80723,-0.70172 3.76901,-11.66382 c 12.88225,-39.84867 12.88225,-79.51708 0,-119.36567 l -3.76901,-11.67808 -10.80723,-0.6849 c -5.9417,-0.37864 -13.76217,-1.39379 -17.38872,-2.25573 -37.04729,-8.81011 -65.76996,-37.53307 -74.58007,-74.58007 -0.86202,-3.62684 -1.87724,-11.461344 -2.25573,-17.402973 l -0.6849,-10.807295 -11.67808,-3.768943 c -19.52779,-6.31288 -39.36565,-9.503712 -59.09021,-9.593765 -25.36007,-0.116222 -50.54603,4.89578 -74.69432,15.004503 l -8.69433,3.640514 -1.81313,10.607379 c -2.03329,11.91147 -7.10143,25.86969 -10.40753,28.65279 -4.86253,4.09349 -12.50611,0.78475 -12.50611,-5.41074 0,-1.66869 1.13408,-5.57841 2.51266,-8.69432 5.36892,-12.141577 6.92278,-26.834913 4.93963,-40.930549 -0.007,-0.152038 -0.0219,-0.304808 -0.0292,-0.456846 -0.0219,-0.168119 -0.0746,-0.331122 -0.10015,-0.499972 -0.0512,-0.336239 -0.0731,-0.678325 -0.12864,-1.013687 -0.0219,0.0073 -0.0365,0.02193 -0.0585,0.02924 -1.42419,-8.648058 -4.15079,-17.018281 -8.25181,-24.355593 -0.0658,-0.116221 -0.11987,-0.241214 -0.18566,-0.356705 -0.98335,-1.733602 -2.03505,-3.397253 -3.12651,-5.025306 -0.29823,-0.444419 -0.62204,-0.862744 -0.92802,-1.299123 -0.82532,-1.17859 -1.6616,-2.349066 -2.54116,-3.469179 -0.10891,-0.13815 -0.20466,-0.29092 -0.31431,-0.428339 -0.007,0.0048 -0.0219,0.0073 -0.0292,0.01462 -15.26301,-19.163372 -38.267,-29.612207 -61.56,-29.4522744 z M 490.76519,2.9808519 C 448.78214,5.48678 421.14376,29.162074 410.44596,63.584359 c -0.001,0.0044 10e-4,0.0073 0,0.01462 l -0.0146,0.02924 c -0.0811,0.300422 -0.16446,0.597189 -0.24267,0.899438 l -0.0439,0.157155 c -0.10964,0.527018 -0.2149,1.055497 -0.31431,1.584708 -0.30846,1.291156 -0.6469,2.565354 -0.89944,3.883191 -0.17689,0.924875 -0.28434,1.847777 -0.42834,2.769583 -0.0658,0.299691 -0.12572,0.599382 -0.18566,0.899438 -0.0775,0.535058 -0.16227,1.065438 -0.22806,1.598961 v 0.05848 c -0.007,0.133034 -0.0219,0.266798 -0.0292,0.399832 -0.25875,2.175391 -0.3472,4.316792 -0.42834,6.467258 -0.0585,0.684903 -0.10379,1.369953 -0.14253,2.055734 -0.007,0.744256 -0.0146,1.486759 0,2.227142 0.0439,0.881238 0.10014,1.761744 0.17104,2.641154 0.0512,1.085393 0.11769,2.165158 0.21417,3.240756 0.0439,0.75259 0.0943,1.504522 0.15716,2.25565 0.12937,1.096211 0.28287,2.185039 0.45684,3.269336 0.12499,0.662975 0.25803,1.324561 0.39983,1.984395 0.12427,0.6659 0.25949,1.3239 0.39984,1.98446 0.14107,0.76824 0.29384,1.53449 0.45684,2.29849 0.49193,2.02569 1.05689,4.02624 1.69888,5.99608 0.0365,0.10965 0.076,0.21929 0.11403,0.3282 0.25437,0.78431 0.52117,1.5649 0.79945,2.34132 v 0.0146 c 0.4181,1.14694 1.00272,2.21632 1.47046,3.34067 0.67978,1.63573 1.34678,3.26934 2.12722,4.85405 0.69221,1.40299 1.45935,2.75182 2.22714,4.11161 0.87422,1.55065 1.74383,3.0923 2.71249,4.58271 0.87415,1.34306 1.8222,2.62106 2.76966,3.9117 1.07304,1.4641 2.16362,2.90503 3.32635,4.29728 0.93833,1.12209 1.91868,2.19659 2.91241,3.26926 1.29847,1.40329 2.6231,2.76937 4.01169,4.08303 0.48901,0.4627 0.9137,0.99103 1.41338,1.44196 0.71195,0.64543 1.43559,1.27836 2.16998,1.8988 0.0585,0.0512 0.11476,0.095 0.17104,0.14253 0.42249,0.35451 0.86932,0.68125 1.2992,1.02787 0.30334,0.24487 0.60669,0.48681 0.91369,0.72803 0.48755,0.38302 0.96047,0.7846 1.45621,1.15637 0.33185,0.19297 0.66516,0.38302 0.99928,0.57087 17.52885,12.7873 39.91833,19.07248 63.2875,14.57624 9.08473,-1.748 17.50604,-4.89761 25.12653,-9.12267 -0.0219,-0.0366 -0.0512,-0.0753 -0.0731,-0.11403 0.2149,-0.0892 0.42907,-0.17981 0.64251,-0.27118 0.007,0.0219 0.0146,0.0512 0.0292,0.0731 0.13596,-0.0768 0.2668,-0.16155 0.39983,-0.24268 0.0146,-0.007 0.0292,-0.007 0.0439,-0.0146 0.44442,-0.2551 0.88898,-0.50874 1.3277,-0.77094 l 0.12865,-0.0731 c 2.16165,-1.29905 4.26248,-2.69481 6.29592,-4.18296 2.12225,-1.54947 4.15708,-3.18374 6.11033,-4.91113 23.99801,-21.22228 34.89909,-55.291811 24.07009,-87.75726 -1.33363,-3.99817 -2.80416,-7.647821 -4.46854,-11.078479 C 551.12375,20.60407 522.2937,2.9844336 490.76321,2.9830448 Z M 311.05345,6.1502666 c -32.7571,-3.655e-4 -63.96304,6.6412984 -92.3543,18.6307644 2.42311,3.479339 4.7042,7.173944 6.75277,10.978557 27.66769,-11.28373 57.93304,-17.517522 89.65599,-17.517229 31.46155,0.0012 61.89115,6.248337 89.91299,17.717072 1.61102,-2.787273 3.36341,-5.509636 5.2538,-8.13756 C 380.07842,13.922423 346.47481,6.1508513 311.05345,6.1502666 Z M 156.5681,32.57592 c 4.59243,0.05848 9.24912,1.304459 13.50553,3.697601 5.0305,2.82784 5.61205,2.927104 10.15054,1.713209 6.28203,-1.679731 8.46349,-1.62257 12.20634,0.31431 0.88189,0.456115 1.70173,1.080057 2.44124,1.813131 0.39106,0.388867 0.68709,0.877656 1.02794,1.327704 0.30773,0.404217 0.65128,0.769182 0.91369,1.213529 0.35232,0.602306 0.59719,1.269886 0.8566,1.927305 0.13961,0.351589 0.31797,0.679787 0.42834,1.042194 0.20467,0.677594 0.29165,1.383914 0.38521,2.084314 0.0731,0.538713 0.22806,1.072309 0.22806,1.613287 0,4.72218 -3.70352,14.512133 -7.78071,20.572323 -1.9504,2.898889 -4.09144,7.578819 -4.7683,10.39321 -0.82459,3.429268 -2.19995,6.939307 -3.91177,10.393282 -0.32893,0.664437 -0.67102,1.325146 -1.02787,1.984393 -0.63227,1.165652 -1.31425,2.313322 -2.0273,3.454925 -0.35086,0.562103 -0.68709,1.130274 -1.05644,1.684629 -1.09066,1.63719 -2.23782,3.249154 -3.46918,4.796884 -0.0219,0.0219 -0.0366,0.0439 -0.0585,0.0731 -0.0658,0.0797 -0.13596,0.14912 -0.19955,0.22879 -1.18583,1.47346 -2.43656,2.89384 -3.72618,4.25437 -0.48243,0.50947 -0.98971,0.97977 -1.48471,1.47046 -0.89572,0.88752 -1.79625,1.7499 -2.72683,2.56974 -0.57453,0.50655 -1.15578,0.99256 -1.74171,1.47046 -1.05097,0.85689 -2.11867,1.65714 -3.19793,2.41273 -0.43272,0.30261 -0.86311,0.62862 -1.29919,0.91369 -1.56636,1.02421 -3.14705,1.96729 -4.73972,2.74108 -2.21574,1.07647 -4.58345,2.01319 -7.00978,2.86957 -11.34812,4.01345 -24.43775,5.53851 -35.10572,4.18296 -0.88175,-0.11037 -1.79574,-0.17835 -2.64116,-0.3282 -1.80158,-0.32454 -3.52546,-0.73095 -5.12522,-1.24204 -3.37906,-1.0802 -7.107212,-2.83551 -8.28032,-3.89744 -7.857605,-7.11086 -6.174218,-19.28431 2.89809,-20.986405 l 3.66902,-0.684903 -4.168705,-4.525626 C 89.646593,83.183271 85.785623,66.952227 89.509978,51.123866 92.563536,38.145713 101.82669,35.523124 110.69623,45.127781 c 3.16488,3.427368 14.33005,9.492456 17.48865,9.493844 1.0332,5.12e-4 2.14637,-1.563655 2.89808,-4.068779 1.78192,-5.944992 8.61049,-13.146858 15.11875,-15.946849 3.26174,-1.402846 6.79283,-2.072107 10.36471,-2.027227 z m 169.91812,8.480231 c -32.58722,4.38e-4 -63.63828,6.556945 -91.91163,18.430848 0.21782,1.035103 0.42176,2.057342 0.57087,3.055166 0.59134,3.940644 1.04614,4.708072 2.44131,4.111614 0.94469,-0.403486 7.57597,-2.813148 14.7475,-5.35365 41.17169,-14.584936 88.47126,-15.222254 130.14402,-1.770297 6.28342,2.027812 11.5316,3.53131 11.64957,3.340678 0.11038,-0.192972 1.31608,-3.903877 2.66966,-8.251735 0.2668,-0.857409 0.57819,-1.706265 0.87093,-2.555487 -22.70422,-7.164661 -46.66824,-10.975341 -71.18237,-11.007137 z m 143.89223,1.970139 c 3.58972,-0.217824 9.86422,3.595341 36.79036,19.144697 13.9846,8.075502 26.54487,15.878139 27.91044,17.331567 1.7681,1.884179 2.48414,3.874858 2.48414,6.938357 0,3.653599 -0.58988,4.788843 -3.88319,7.580793 -3.15187,2.670685 -26.56453,16.302676 -43.52887,25.726126 -2.53019,1.40599 -5.32668,2.99099 -7.45229,4.1402 -5.13312,2.77221 -9.05037,4.78314 -9.92211,4.96821 -1.45043,0.30627 -4.19012,-0.13888 -6.09608,-0.97085 -6.19746,-2.73501 -6.55285,-4.95871 -6.55285,-41.644321 0,-8.012859 0.0366,-13.844407 0.12865,-18.916275 0.0292,-1.597133 0.0848,-2.786906 0.12864,-4.168701 0.45027,-13.969546 1.78565,-16.340613 5.939,-18.488008 1.6608,-0.858798 2.64985,-1.556639 4.05453,-1.641795 z M 319.94762,148.8718 v 0.0146 c 8.98013,0 17.96275,0.8297 24.56976,2.48407 40.02541,10.02269 70.05883,40.06042 79.99089,80.00521 3.24477,13.04993 3.2822,35.95685 0.0855,48.81088 -5.22976,20.9696 -14.1979,36.45047 -30.22325,52.18059 -20.4265,20.04859 -42.56153,29.59338 -70.72546,30.50854 -6.95693,0.21928 -14.07919,0.20466 -15.81828,-0.0731 h -0.0146 c -25.70603,-3.80973 -44.50762,-12.99928 -62.28814,-30.45152 -16.02535,-15.73013 -24.99349,-31.21099 -30.22318,-52.18059 -3.20552,-12.85367 -3.1678,-35.76066 0.0855,-48.81059 9.93175,-39.94479 39.96554,-69.98245 79.9908,-80.00513 6.60709,-1.65437 15.58971,-2.48408 24.56977,-2.48408 z m -229.665024,6.95261 c -10.829808,27.18117 -16.788688,56.82718 -16.789053,87.87144 0.110374,27.25221 4.894611,54.29165 14.162225,79.91961 -6.63567,-21.99732 -10.045203,-44.83742 -10.122026,-67.81319 5.12e-4,-33.98247 7.144998,-66.29048 20.001302,-95.52365 -2.499569,-1.41118 -4.947752,-2.88515 -7.252448,-4.45421 z m 228.737084,8.49448 c -23.39498,0.30262 -46.51197,9.61321 -63.6301,26.98242 -9.01119,9.14365 -12.41758,13.83864 -17.68849,24.36992 -6.90225,13.7901 -8.77999,22.42266 -8.77999,40.27386 0,17.84931 1.88162,26.48918 8.77999,40.2735 4.89739,9.78454 11.55221,19.28255 12.63468,18.03116 0.4086,-0.47512 1.39415,-2.50936 2.18424,-4.53995 4.50231,-11.55857 15.56777,-25.31292 25.82612,-32.12176 5.44963,-3.61749 5.65429,-3.93472 4.24004,-6.13854 -3.68503,-5.7415 -5.06046,-14.33481 -4.65405,-29.12419 0.37863,-13.79894 0.55552,-14.70964 3.89744,-21.50027 6.43868,-13.07866 17.68009,-21.54127 31.60804,-23.78457 18.3764,-2.95934 36.08923,6.48348 44.59957,23.77024 3.31298,6.73011 3.50683,7.74862 3.89745,21.11491 0.42541,14.58772 -0.41738,20.4705 -4.02595,27.93917 l -1.97014,4.08311 4.39713,2.75496 c 2.42011,1.5138 7.7802,6.17729 11.92083,10.36492 5.84032,5.90757 8.67313,9.9227 12.62042,17.87401 l 5.09665,10.25016 2.45557,-2.99764 c 3.90585,-4.76509 10.25308,-16.10729 13.19144,-23.55644 8.90565,-22.57916 7.55872,-50.94783 -3.45492,-72.95238 -5.18714,-10.36383 -8.6621,-15.20303 -17.16031,-23.85592 -8.39763,-8.55047 -14.26741,-12.83196 -24.79811,-18.1025 -13.01382,-6.51375 -27.15054,-9.57534 -41.18755,-9.39392 z m -203.08229,4.22579 c -17.23706,32.90636 -27.011517,70.34844 -27.011079,110.07108 0.151308,21.52878 3.229061,42.89382 9.108413,63.54472 6.506806,-3.97127 13.406276,-7.12168 20.572326,-9.35109 4.34815,-1.35372 8.06117,-2.56491 8.25181,-2.68406 0.1937,-0.10964 -1.31097,-5.35204 -3.34068,-11.63532 -4.66063,-14.43706 -7.61325,-29.69499 -9.19408,-47.58288 -2.27363,-25.72277 1.87424,-56.86249 10.97863,-82.56099 2.53889,-7.1716 4.95002,-13.80384 5.35365,-14.74757 0.59646,-1.39517 -0.17762,-1.86437 -4.12587,-2.45557 -3.29682,-0.49485 -6.88412,-1.37974 -10.59312,-2.59832 z m 421.65451,3.44067 c -7.64855,4.09086 -16.41152,7.71361 -21.67161,8.76575 -1.69902,0.33989 -3.08367,0.9441 -3.08374,1.34195 0,0.39764 1.44012,4.96917 3.19792,10.15054 4.39405,12.94665 8.07653,31.93404 9.551,49.21086 2.05537,24.07052 -1.37083,52.71162 -9.22258,77.03556 -2.02781,6.28328 -3.54564,11.51764 -3.35501,11.63532 0.19371,0.10964 3.90366,1.33034 8.25181,2.68406 2.96161,0.921 5.87943,2.01451 8.73716,3.24105 11.99108,-28.39316 18.61695,-59.59757 18.61651,-92.35459 -2.9e-4,-24.99438 -3.86448,-49.08383 -11.02146,-71.7105 z m -217.65853,40.35946 c -7.9769,0 -13.60831,2.43152 -19.37312,8.36598 -5.36096,5.5198 -6.97907,11.36509 -6.96694,25.14086 0.007,10.02093 0.35963,12.42665 2.48415,16.98889 4.30561,9.24635 13.64427,15.19046 23.85591,15.19046 3.36604,0 7.57407,-0.79747 10.02203,-1.91363 6.34256,-2.89093 10.60153,-6.963 13.61979,-13.01982 2.431,-4.87744 2.71249,-6.69846 2.71249,-17.18881 0,-13.83571 -1.62162,-19.67757 -6.98119,-25.19795 -5.7651,-5.93585 -11.39593,-8.36598 -19.37312,-8.36598 z m -25.45487,73.78077 -3.86894,2.04156 c -2.12722,1.12128 -7.00458,5.15468 -10.8358,8.96514 -7.58957,7.54929 -14.35827,19.43898 -15.37576,27.02555 -0.54675,4.06629 -0.3779,4.38937 4.02595,7.40967 20.42408,14.01019 45.75279,19.08666 70.09735,14.06209 10.1566,-2.09711 24.1795,-8.04049 32.57882,-13.81941 4.77247,-3.28344 4.91866,-3.5517 4.36862,-7.65235 -1.02224,-7.63701 -7.76997,-19.47772 -15.40434,-27.02555 -3.85497,-3.81046 -8.76223,-7.83363 -10.90714,-8.93664 l -3.89752,-1.99916 -7.65213,3.58387 c -7.02074,3.29002 -8.48674,3.58313 -17.67424,3.58313 -9.2057,0 -10.62909,-0.29969 -17.73133,-3.62626 z m 197.95706,57.39082 c -38.52973,-0.66517 -75.36899,25.90646 -83.51715,68.25571 -4.33696,31.67222 6.96775,60.52954 30.52302,80.13079 1.49743,1.18561 3.0355,2.31931 4.61129,3.3982 0.41811,0.28507 0.84754,0.56284 1.27062,0.84206 1.1427,0.76165 2.30426,1.4948 3.48343,2.19871 0.53213,0.31431 1.05952,0.63593 1.59896,0.9422 1.36842,0.77262 2.75855,1.50576 4.1687,2.19871 0.25364,0.12426 0.50144,0.26314 0.75669,0.3874 5.53105,2.64825 11.33913,4.67372 17.31731,6.03914 4.00796,0.91515 8.07842,1.53062 12.17776,1.84127 h 0.0585 c 1.75342,0.12426 3.51034,0.19005 5.26799,0.19736 5.08451,0 10.25652,-0.45319 15.47567,-1.45606 16.64966,-3.19719 29.69039,-9.88395 42.55802,-21.81458 1.43961,-1.33472 2.64408,-2.42384 3.72618,-3.34119 9.03642,-9.81012 15.5699,-21.65742 19.04478,-34.53463 0.38448,-2.10661 0.79352,-4.26219 1.42762,-7.33804 8.16651,-51.88966 -24.53782,-96.70735 -79.94877,-97.9529 z m -344.67604,0.0731 c -2.70189,0.0731 -5.40321,0.26314 -8.09472,0.57014 -0.49486,0 -0.99015,0.0731 -1.48472,0.10233 -0.75829,0.10234 -1.51387,0.20467 -2.26997,0.32893 -1.15169,0.21198 -2.29885,0.45319 -3.4406,0.71634 -0.833,0.16812 -1.66957,0.31431 -2.4984,0.51166 -0.36694,0.0731 -0.73337,0.1462 -1.09928,0.2266 -1.63273,0.40933 -3.25611,0.8713 -4.8683,1.38516 -1.39232,0.44588 -2.77287,0.92392 -4.14012,1.44217 -0.22221,0.0804 -0.43492,0.19736 -0.65713,0.28507 -2.05653,0.80039 -4.09136,1.69508 -6.096,2.67017 -0.28727,0.13889 -0.58477,0.24122 -0.87086,0.38741 -0.0855,0.0731 -0.17104,0.0877 -0.2573,0.13157 -0.44515,0.2266 -0.85675,0.5336 -1.29912,0.77043 -2.37823,1.25651 -4.72905,2.60292 -7.00977,4.11161 -3.26751,2.16143 -6.445917,4.53776 -9.465267,7.22401 -1.855672,1.65123 -3.664782,3.40332 -5.410738,5.2541 -0.2149,0.22659 -0.416643,0.45319 -0.627889,0.68709 -1.564387,1.68193 -3.059918,3.43037 -4.482792,5.23948 -0.376441,0.47512 -0.749666,0.95901 -1.113608,1.44217 -9.006664,12.31291 -14.538008,26.92687 -15.989609,42.244 -0.04386,2.05764 -0.05848,4.39888 -0.05848,7.39506 0,4.40546 0.0012,7.58218 0.114028,10.15075 0.0032,0.0731 0.0073,0.1535 0.01462,0.2266 0.402025,3.56339 1.026917,7.09756 1.870218,10.57909 0.399832,1.28355 0.850319,2.66213 1.427626,4.33967 8.570065,24.98545 26.209217,43.51732 49.881881,52.40937 12.3021,4.62036 18.11413,5.53112 32.55024,5.09621 10.22326,-0.307 13.75216,-0.90346 22.12852,-3.69717 9.72044,-3.24324 17.27624,-7.10048 24.42701,-12.66377 32.4626,-27.86102 40.93969,-77.2267 20.20115,-110.95582 -15.05648,-23.43876 -39.04016,-36.35544 -63.85852,-38.24715 -1.88564,-0.16081 -3.77603,-0.24852 -5.66774,-0.27045 -0.55626,0 -1.11339,-0.0731 -1.67038,-0.0731 -0.0585,7.3e-4 -0.12353,0 -0.18566,0 z m 359.6092,26.22588 c 7.18294,0 13.90588,0.46781 15.06159,1.08473 5.05601,2.70526 4.59215,11.06883 -0.75661,13.50583 -1.43661,0.65786 -7.72778,1.18488 -13.97663,1.18488 -4.13457,0 -6.55052,0.0731 -8.39457,0.24121 -0.29384,0 -0.67247,0.0731 -0.92794,0.0731 -0.48755,0.0731 -0.92765,0.18274 -1.29913,0.28507 -0.36109,0.095 -0.71341,0.21198 -0.99935,0.34355 -0.23976,0.11695 -0.53433,0.24121 -0.74243,0.3874 -0.307,0.21198 -0.60816,0.48974 -0.89937,0.77116 -0.13011,0.13157 -0.26314,0.19736 -0.39983,0.34355 -0.29165,0.307 -0.46269,0.63593 -0.6849,0.9422 -0.11476,0.16081 -0.27265,0.307 -0.37133,0.48243 -0.19151,0.32893 -0.33551,0.82013 -0.47146,1.24189 -0.0658,0.21928 -0.14327,0.47512 -0.20029,0.73095 -0.29311,1.33326 -0.46196,3.37408 -0.51386,6.43897 -0.0292,1.57594 -0.0439,3.17526 -0.0439,5.45365 v 12.83408 h 7.23812 c 9.03064,0 12.79169,2.35879 12.79169,7.99517 0,6.00917 -2.81659,7.82339 -12.12068,7.82339 h -7.90913 v 26.21127 c 0,24.9204 -0.10965,26.34064 -2.18431,28.98158 -2.85547,3.63064 -8.09568,3.79218 -11.33548,0.34354 -2.22671,-2.37048 -2.28423,-3.17526 -2.28423,-28.98157 v -26.55408 h -7.45229 c -4.09619,0 -8.3877,-0.49705 -9.53668,-1.11325 -0.52337,-0.27776 -0.92152,-0.73241 -1.34196,-1.15637 -0.29457,-0.29969 -0.58842,-0.59207 -0.82802,-0.94219 -0.22148,-0.32893 -0.38668,-0.69441 -0.55699,-1.05696 -0.19078,-0.40203 -0.39106,-0.80405 -0.51386,-1.24189 -0.12573,-0.4605 -0.16812,-0.93489 -0.21417,-1.41367 -0.0365,-0.36547 -0.11403,-0.71633 -0.10014,-1.08473 0.0366,-0.87861 0.18785,-1.7616 0.52848,-2.58392 1.58573,-3.82581 5.10279,-5.21097 13.2057,-5.21097 h 5.28231 1.52754 v -1.45606 l 0.0146,-12.5205 c 0.0219,-15.43336 1.18517,-19.68824 6.93836,-25.44084 5.65407,-5.65393 10.10536,-6.91263 24.46984,-6.93821 z m -358.19583,2.11319 c 10.96738,0 18.85963,0 24.92669,0.1535 4.51642,0.10233 8.05949,0.28507 10.7073,0.58476 6.83127,0.75069 8.88438,2.25792 12.20634,5.36812 2.5465,2.38803 4.14992,4.01879 5.16806,7.30954 0.33624,1.09204 0.62351,2.36902 0.84235,3.91206 0.002,0 -0.002,0 0,0 0.21929,1.54816 0.38741,3.36166 0.51386,5.53917 6.6e-4,0 -6.5e-4,0 0,0 0.12646,2.18336 0.21198,4.7183 0.27119,7.70937 0.11914,6.00478 0.12864,13.81867 0.12864,24.15582 v 0.0731 c -7e-5,13.27631 -0.0365,22.01048 -0.2858,28.46699 -0.5124,13.69003 -2.02152,15.84853 -6.63859,20.17286 -6.37677,5.97993 -7.51486,6.11369 -48.59694,6.06764 -32.26875,0 -38.16798,-0.27045 -40.87346,-1.69873 -4.62028,-2.43116 -8.873631,-6.66849 -11.164147,-11.12146 -1.870364,-3.63577 -2.013046,-6.59101 -2.013046,-41.94431 0,-35.35403 0.139612,-38.30855 2.013046,-41.94431 2.588599,-5.03115 6.978927,-9.17127 11.920827,-11.23549 0.81195,-0.33624 1.84084,-0.59938 3.36919,-0.81355 0.004,0.005 0.007,0 0.0146,0 2.05091,-0.28507 5.6434,-0.43857 10.30754,-0.55552 4.24852,-0.12427 11.43971,-0.17543 19.30178,-0.19736 2.95451,0 4.30985,-0.0731 7.88055,-0.0731 z m -34.72029,15.24696 -2.3984,2.39826 c -2.38423,2.38437 -2.40177,2.62631 -2.66974,35.84815 -0.29019,35.88836 -0.11988,37.37146 5.02531,40.01679 1.99462,1.02552 10.56651,1.27843 36.06232,1.07084 33.22206,-0.27776 33.4499,-0.28507 35.83383,-2.66944 l 2.39848,-2.41288 v -14.16222 -20.52957 -34.72029 0 l -2.39848,-2.41288 -2.39848,-2.39826 h -34.73455 z m 34.72029,16.37482 c 10.08899,0 18.05872,5.46022 21.41468,13.87715 0.55479,1.39539 0.99534,2.86534 1.28487,4.41131 0.002,0 -0.002,0 0,0 0.28799,1.54743 0.44223,3.16429 0.44223,4.83964 v 0 c -8e-5,0 -0.0146,0.0731 -0.0146,0.10233 -0.005,1.36835 -0.13889,2.68991 -0.34282,3.98297 -0.0731,0.44588 -0.17835,0.87714 -0.27119,1.31352 -0.182,0.85156 -0.39032,1.68851 -0.65639,2.4984 -2.02664,6.1539 -6.40747,11.05056 -12.59185,13.63375 -5.03108,2.10222 -15.1792,2.0379 -19.27319,-0.11695 -8.65764,-4.55604 -13.17712,-11.91089 -13.17712,-21.44326 0,-9.83498 5.12062,-17.56481 13.09145,-21.08655 0.3896,-0.16812 0.76772,-0.35085 1.17069,-0.49704 1.11069,-0.41665 2.27729,-0.74558 3.48343,-0.99922 0.44369,-0.095 0.90054,-0.16081 1.35629,-0.22659 1.06017,-0.16081 2.14937,-0.26315 3.26926,-0.29969 0.27411,0 0.53652,-0.0731 0.81377,-0.0731 z m -0.0438,15.76155 c -2.24513,0.0731 -4.50312,0.76019 -5.75341,2.14169 -2.27641,2.51375 -2.50118,7.58511 -0.45685,10.05062 3.12644,3.7666 7.97288,4.06044 11.79233,0.71633 1.79902,-1.58032 2.24615,-5.62176 1.34203,-8.59455 -0.005,-0.004 -0.007,0 -0.0146,0 -0.10452,-0.34355 -0.3165,-0.56284 -0.45684,-0.8713 -0.23829,-0.51898 -0.41445,-1.10447 -0.75661,-1.48456 -0.38449,-0.42396 -0.89791,-0.74338 -1.45621,-1.02773 -0.49632,-0.25583 -1.05652,-0.40202 -1.64179,-0.5409 -0.0863,0 -0.15497,-0.0731 -0.24268,-0.0877 0.0219,0 0.0366,0.0731 0.0585,0.0731 -0.78139,-0.17543 -1.57682,-0.35817 -2.41274,-0.34355 z m 96.95127,29.55245 c -0.39764,0 -1.00214,1.39905 -1.34196,3.09778 -0.87605,4.37842 -3.52744,11.18871 -6.75277,17.75998 23.26823,7.53833 47.87161,11.56734 73.06685,11.57831 31.16991,0 60.94128,-6.00332 88.21411,-16.91792 -0.86998,-2.20968 -1.67637,-4.53045 -2.46989,-7.08075 -1.35358,-4.34771 -2.55089,-8.06169 -2.66967,-8.25247 -0.11037,-0.19004 -5.36644,1.31134 -11.64957,3.34119 -24.20034,7.81243 -52.63311,11.20771 -77.03563,9.19394 -17.17661,-1.41732 -36.1689,-5.09548 -49.21087,-9.52213 -5.18165,-1.75649 -9.75194,-3.19793 -10.1506,-3.19793 z"
     sodipodi:nodetypes="csssccssccccccccsssscccscccsccssccccsccsccccscccssccsscccsccscsssccscccccccscccccccccccccccccccsssssssscssssccsccccsccccssccscssccssscssccscsssssssssscssssssscccsscccssscsscccssscsccsssscscscsscssccsscccccsscsccccccccssssccssscssscccsccssssscccccsccscssccsscsssscscssssssssssccsscsscscccsccsscccscccscccssccscssssccccscssscssscsccsscccscscccscccccsscsccssccccsscssscscsscssscscscssccccscsccccscsccssccccsscscccsscssscccccccccccscscsscsscccsscscssssccccscssccssscccsccscscsscccsccscs" />
</svg>
