<?xml version="1.0" encoding="UTF-8" standalone="no"?>
<svg
   viewBox="0 0 640 512"
   version="1.1"
   id="svg4"
   sodipodi:docname="user-minus.svg"
   inkscape:version="1.1 (c68e22c387, 2021-05-23)"
   xmlns:inkscape="http://www.inkscape.org/namespaces/inkscape"
   xmlns:sodipodi="http://sodipodi.sourceforge.net/DTD/sodipodi-0.dtd"
   xmlns="http://www.w3.org/2000/svg"
   xmlns:svg="http://www.w3.org/2000/svg">
  <defs
     id="defs8" />
  <sodipodi:namedview
     id="namedview6"
     pagecolor="#ffffff"
     bordercolor="#666666"
     borderopacity="1.0"
     inkscape:pageshadow="2"
     inkscape:pageopacity="0.0"
     inkscape:pagecheckerboard="0"
     showgrid="false"
     inkscape:snap-global="false"
     inkscape:zoom="0.40625"
     inkscape:cx="296.61538"
     inkscape:cy="257.23077"
     inkscape:window-width="1920"
     inkscape:window-height="1009"
     inkscape:window-x="0"
     inkscape:window-y="40"
     inkscape:window-maximized="1"
     inkscape:current-layer="svg4" />
  <!--! Font Awesome Free 6.3.0 by @fontawesome - https://fontawesome.com License - https://fontawesome.com/license/free (Icons: CC BY 4.0, Fonts: SIL OFL 1.1, Code: MIT License) Copyright 2023 Fonticons, Inc. -->
  <path
     id="path7881"
     style="display:inline;fill:#000000;fill-opacity:1;stroke:none;stroke-width:17.5525;stroke-linecap:round;stroke-linejoin:bevel;stroke-miterlimit:4;stroke-dasharray:none;stroke-dashoffset:0;stroke-opacity:1"
     d="M 319.99969,2.3887384 C 179.93415,2.3878797 66.390193,115.91982 66.388241,255.98521 c 0.127196,29.09361 5.209882,57.94514 15.103928,85.30398 -7.084032,-23.48287 -10.723941,-47.85135 -10.805954,-72.38003 7.01e-4,-49.92384 14.438763,-96.47605 39.352465,-135.72098 0.0702,-1.86401 0.14436,-3.14167 0.22708,-3.55126 2.11347,-10.1351 7.97862,-18.14462 16.41467,-22.42027 1.41031,-0.71402 2.44996,-1.30652 3.76446,-1.81383 46.52731,-55.102272 116.10597,-90.106039 193.86645,-90.105182 72.99444,0.0035 140.89708,31.303303 188.13583,83.552092 1.18683,-1.256427 2.36803,-2.500987 3.58171,-3.764519 C 469.51576,38.489977 398.97431,2.3899081 319.99814,2.3884264 Z m 16.47555,37.2494306 c -64.27061,8.7e-4 -122.95655,23.919942 -167.65177,63.326471 24.66547,-0.26531 65.50627,-0.23565 137.55066,-0.23565 113.39063,0 163.77315,0.23565 164.13118,0.8376 0.28638,0.46041 -0.40266,1.98199 -1.53923,3.3835 -1.13634,1.40094 -5.11968,6.56135 -8.85503,11.46104 -7.45094,9.77529 -10.73424,12.97382 -13.36649,13.01598 -0.95179,0.0157 -69.53753,0.002 -152.41073,-0.0313 -130.18938,-0.0624 -150.72972,-0.14747 -154.59015,1.82859 -0.34258,0.42137 -0.68125,0.84347 -1.02107,1.26525 -0.0547,0.17713 -0.10931,0.34177 -0.18261,0.53375 -0.27157,0.70777 -0.48771,50.84254 -0.48771,111.41261 0,107.24401 0.039,110.17599 1.52424,112.00659 l 1.52424,1.87283 180.62193,0.23566 c 99.34156,0.11784 181.77965,0.009 183.19767,-0.23566 1.48585,-0.26531 3.00239,-1.19743 3.58163,-2.20907 0.77644,-1.35663 1.09483,-16.157 1.40212,-65.06421 0.38548,-61.3675 0.43777,-63.39429 1.98136,-66.2985 2.82578,-5.31591 24.66033,-35.59931 25.48313,-35.34415 0.52437,0.1475 0.87272,36.12185 1.0057,105.255 0.0881,46.37345 0.13889,72.5172 -0.0914,88.4901 22.43219,-37.83421 35.32954,-81.98212 35.32885,-129.15306 -5.5e-4,-46.57547 -12.57913,-90.21224 -34.49053,-127.72037 -0.57903,1.04409 -1.15233,2.07634 -1.75281,3.13924 7.8646,12.19372 14.785,25.14515 20.56017,38.81994 -6.78486,-12.2335 -14.50673,-23.75152 -23.02926,-34.5059 -8.5812,14.84752 -19.17623,31.56542 -32.53968,51.30115 -8.29677,12.2521 -8.55552,12.40817 -16.14029,9.67798 -11.22836,-4.04093 -21.14333,-11.83335 -27.67783,-21.73364 -2.53315,-3.83765 -2.89507,-4.88411 -2.20994,-6.37058 1.98457,-4.30271 27.64538,-37.18949 43.94002,-56.31585 1.76725,-2.07345 3.91077,-4.46653 6.17267,-6.95045 C 460.57346,63.778268 400.28495,39.727403 336.47584,39.644528 Z M 321.02093,161.64236 c 52.76141,-0.0881 105.27006,0.0234 105.27006,0.39798 0,0.20602 -2.12417,4.43461 -4.72482,9.35765 -5.5842,10.57536 -7.37384,15.13178 -11.18691,28.45535 l -2.85021,9.95249 -3.59683,1.79909 c -8.31222,4.16009 -7.90387,4.14619 -102.05428,4.16095 -84.89827,0.0157 -87.42688,-0.0312 -88.90118,-1.51005 -1.0753,-1.08538 -1.67227,-3.19238 -2.05746,-7.34622 -0.65235,-7.03089 -0.0234,-40.28279 0.80782,-42.33993 0.32384,-0.7993 1.46579,-1.79322 2.52993,-2.19433 0.99542,-0.38003 54.00217,-0.64847 106.76372,-0.73118 z m -211.48526,18.2897 c -17.065013,34.10659 -26.67236,72.58445 -26.671893,113.31757 0.203671,29.37382 5.468254,58.4867 15.622153,86.05076 3.60737,6.48324 7.503,12.74705 11.61369,18.82266 -0.74679,-15.89396 -0.69294,-50.01055 -0.70075,-130.73782 -0.004,-38.43508 0.0468,-65.81575 0.13578,-87.45317 z m 333.29189,9.58681 c 0.31994,5.4e-4 1.66283,1.69881 2.97193,3.77983 3.33839,5.3032 11.54057,13.18943 17.14623,16.47522 2.60487,1.5219 7.45735,3.72942 10.77546,4.90774 l 6.03539,2.14999 -5.42571,5.51703 c -6.6504,6.74926 -16.17457,14.04297 -23.44089,17.96966 -2.99496,1.61922 -5.62306,3.41564 -5.85249,3.99309 -0.23332,0.57824 -0.0234,2.65441 0.47211,4.61806 1.26651,5.02925 0.4167,17.16451 -1.60025,22.84612 -6.00489,16.91791 -19.65325,33.94647 -35.87743,44.74805 -14.41756,9.59799 -27.77116,12.63142 -41.05945,9.32729 -4.96651,-1.23575 -5.59367,-1.61624 -5.80685,-3.44451 -0.19431,-1.63989 0.6227,-2.78715 4.08454,-5.74558 8.83621,-7.54975 12.97054,-16.55342 14.12849,-30.78687 0.87594,-10.7671 2.28485,-16.82413 5.54777,-23.82232 7.22333,-15.49223 18.61977,-24.92477 35.17639,-29.10984 3.88243,-0.98214 7.41973,-2.12947 7.84915,-2.56006 0.42919,-0.43075 1.12518,-2.95726 1.5546,-5.62378 1.34781,-8.36988 4.67004,-18.61968 8.77885,-27.08335 2.17951,-4.48861 4.22112,-8.1546 4.54184,-8.15374 z m -107.96779,43.80284 c 17.18807,-0.0157 34.10957,0.11783 34.10957,0.42763 0,1.18854 -5.69182,9.12229 -7.07194,9.86134 -1.7507,0.9379 -63.14979,1.24169 -64.07349,0.3215 -0.29184,-0.26531 -0.51814,-2.58659 -0.51814,-5.09111 0,-4.04676 0.1943,-4.60246 1.78316,-5.02923 1.11893,-0.30043 18.58277,-0.4721 35.77076,-0.48694 z m -89.70901,0.38081 c 30.34208,0 31.62129,0.0624 32.70738,1.55427 1.68468,2.30342 1.68468,90.94048 0,93.24538 -1.08093,1.47468 -2.43608,1.56317 -31.25945,1.67524 -16.56801,0.0624 -30.84079,-0.0313 -31.71673,-0.26531 -3.61056,-0.88476 -3.58161,-0.51036 -3.58161,-48.0245 0,-37.67348 0.18572,-45.33082 1.12783,-46.62237 1.08569,-1.48054 2.3798,-1.55429 32.72258,-1.55429 z m 111.07699,28.25722 v 1.89054 c 0,1.03818 -0.23878,3.54659 -0.51816,5.57774 l -0.50253,3.70436 h -28.57702 -28.5618 l -0.89927,-1.98191 c -0.60476,-1.32721 -0.66563,-3.08478 -0.1826,-5.37992 l 0.71636,-3.3991 29.26286,-0.2068 z m -29.27816,28.6837 h 29.47629 l -0.50255,2.57473 c -0.62115,3.17382 -2.79916,6.24814 -5.34956,7.55912 -1.40064,0.71947 -8.77371,0.9851 -27.46449,0.99104 -14.05053,0.007 -25.78548,-0.23568 -26.07742,-0.51894 -0.66328,-0.66642 -0.70074,-7.66095 -0.0467,-9.35796 0.42919,-1.11486 3.82049,-1.25049 29.96391,-1.25049 z m -17.29864,28.80549 c 2.59955,-0.008 5.65241,0.009 9.20563,0.0624 l 20.1792,0.206 0.53374,2.79012 c 0.29497,1.5336 0.74445,3.95711 1.00602,5.37953 l 0.47212,2.57482 h -21.30703 c -15.52016,0 -21.58679,-0.26532 -22.28238,-0.94382 -1.32339,-1.32129 -1.22015,-8.1844 0.1389,-9.31192 0.57823,-0.48069 4.257,-0.70777 12.05567,-0.73118 z m 13.51888,61.2844 c -0.41122,0.009 -0.82933,0.0233 -1.24963,0.0624 -12.23047,1.17676 -18.32666,16.4277 -10.242,25.63582 5.23968,5.96736 12.65951,7.45235 19.56952,3.91669 1.74898,-0.89364 4.19903,-3.226 5.66974,-5.39551 7.21052,-10.63522 -0.99276,-24.53399 -13.74746,-24.2178 z m -186.45927,50.3866 c 47.19842,49.42629 113.12851,78.4612 183.28913,78.49164 71.94645,-6.2e-4 136.88769,-29.96665 183.04529,-78.09523 -12.93239,0.23565 -36.62033,0.41903 -64.01254,0.48692 -39.63347,0.0881 -72.37822,0.23568 -72.76082,0.26533 -1.32191,0.14747 0.009,8.47819 2.08811,13.01596 2.34259,5.11678 8.15436,11.76523 12.93973,14.79919 4.40676,2.79005 11.66278,5.52788 17.40524,6.56901 6.70228,1.21516 8.96279,2.57771 10.10489,6.03518 1.53892,4.66325 0.53376,12.02501 -1.98136,14.5402 l -2.07283,2.07337 h -78.68963 c -43.28078,0 -80.0727,-0.20601 -81.75309,-0.50098 v 0.0157 c -4.5725,-0.7429 -5.92881,-2.9529 -5.92881,-9.58651 0,-9.40688 0.31838,-9.69646 15.92695,-14.66172 13.15511,-4.18357 20.15883,-9.2526 24.20281,-17.5119 2.74087,-5.59725 4.40058,-13.72764 2.98722,-14.60092 -0.53297,-0.34491 -28.46167,-0.53687 -62.06161,-0.45727 -33.59992,0.0624 -66.82076,-0.0881 -73.82777,-0.38082 -3.98513,-0.17714 -6.75497,-0.29809 -8.90075,-0.48929 z" />
</svg>
