<?xml version="1.0" encoding="UTF-8" standalone="no"?>
<svg
   viewBox="0 0 640 512"
   version="1.1"
   id="svg4"
   sodipodi:docname="users.svg"
   inkscape:version="1.1 (c68e22c387, 2021-05-23)"
   xmlns:inkscape="http://www.inkscape.org/namespaces/inkscape"
   xmlns:sodipodi="http://sodipodi.sourceforge.net/DTD/sodipodi-0.dtd"
   xmlns="http://www.w3.org/2000/svg"
   xmlns:svg="http://www.w3.org/2000/svg">
  <defs
     id="defs8" />
  <sodipodi:namedview
     id="namedview6"
     pagecolor="#ffffff"
     bordercolor="#666666"
     borderopacity="1.0"
     inkscape:pageshadow="2"
     inkscape:pageopacity="0.0"
     inkscape:pagecheckerboard="0"
     showgrid="false"
     inkscape:zoom="0.57452426"
     inkscape:cx="301.98899"
     inkscape:cy="133.15365"
     inkscape:window-width="1920"
     inkscape:window-height="1009"
     inkscape:window-x="0"
     inkscape:window-y="40"
     inkscape:window-maximized="1"
     inkscape:current-layer="svg4"
     inkscape:snap-global="false" />
  <!--! Font Awesome Free 6.3.0 by @fontawesome - https://fontawesome.com License - https://fontawesome.com/license/free (Icons: CC BY 4.0, Fonts: SIL OFL 1.1, Code: MIT License) Copyright 2023 Fonticons, Inc. -->
  <path
     id="path13311"
     style="display:inline;fill:#000000;fill-opacity:1;stroke:none;stroke-width:16.2067;stroke-linecap:round;stroke-linejoin:bevel;stroke-miterlimit:4;stroke-dasharray:none;stroke-dashoffset:0;stroke-opacity:1"
     d="m 310.36665,-1.0294866 c -3.41913,0.0576347 -4.76741,0.33143623 -7.51474,1.32286189 C 293.38712,3.6737332 286.6416,11.809691 284.06505,21.416215 165.24168,32.68381 72.2755,132.68285 72.273709,254.45708 c 0.108086,24.74882 4.118737,49.31498 11.89127,72.78303 -9.599391,6.31493 -19.314361,17.58361 -23.951437,28.01836 -6.169461,13.88262 -6.937745,20.12321 -6.937745,55.78347 0,29.47286 0.08142,30.96174 1.927948,32.95784 v 0.0144 c 2.631962,2.8463 4.843719,2.62712 11.694281,-1.11169 24.967503,-13.33525 48.045154,-22.12436 73.725894,-21.7984 -43.529781,-27.71475 -53.541951,-63.45765 -53.869571,-95.45382 -0.75603,0.42583 -1.51898,0.88703 -2.27977,1.37906 C 79.10309,307.27174 76.31073,286.8998 76.242145,266.40496 76.243118,146.33108 166.66577,47.429885 283.10814,33.884821 c 0.27307,2.471071 0.82701,4.95158 1.67461,7.388067 2.13755,6.144172 6.06139,11.339574 11.0892,14.945019 -4.49774,0.504359 -8.97651,1.084372 -13.39707,1.829383 1.76482,-0.162837 3.2039,0.529576 4.93947,2.026443 8.39521,7.24317 17.43922,10.560555 26.89257,9.878949 7.4906,-0.538942 14.73398,-3.535699 20.44736,-8.457595 3.03429,-2.614093 4.44837,-3.525684 6.07932,-3.504069 0.54399,0.0072 1.11169,0.120319 1.77311,0.309821 7.97875,2.282007 17.48455,12.319254 21.12285,22.304914 1.8038,4.949779 2.30239,7.368036 2.44866,17.506226 -8.70516,7.576421 -14.14056,18.932991 -14.95907,31.255061 -23.92888,17.40484 -55.64867,16.69327 -79.81935,0.80214 -0.6218,-11.83557 -5.5086,-22.87901 -13.53771,-30.593694 0.11306,-11.818789 0.60019,-14.188411 2.71598,-19.729658 2.77663,-7.278837 8.7272,-14.692624 14.98723,-18.674179 3.05405,-1.942502 5.14475,-2.961091 6.90958,-3.124142 C 171.80908,76.699319 87.484749,172.90961 87.486109,288.87896 c 0.0814,11.72785 1.05208,23.41493 2.8708,34.9561 2.46113,-1.199 4.59984,-2.04114 6.45926,-2.04049 3.498881,9.8e-4 6.725551,2.24556 12.623091,7.16291 10.9559,9.13581 27.9507,14.48504 42.23155,13.2985 13.51604,-1.12443 24.86074,-6.05619 36.58859,-15.90192 6.81777,-5.72304 10.16492,-5.95324 18.51941,-1.29462 11.93732,6.65515 12.49521,9.3212 4.01067,19.18084 -16.12163,18.73477 -25.06932,42.61898 -25.10534,66.99919 -0.007,7.70479 -0.36602,10.00179 -1.80128,11.91944 l -1.77319,2.37827 -10.54031,-1.43541 c -7.39158,-1.00664 -17.73411,-1.3769 -27.70876,-1.2243 16.81303,16.24051 35.91224,29.83211 56.62784,40.35996 62.54247,66.41139 171.13274,69.40094 230.64846,-9.27379 -58.66926,61.97008 -156.17171,67.98946 -230.91584,8.97824 -0.0216,-0.0144 -0.0361,-0.0287 -0.0576,-0.0432 0,0 0,-0.0144 0,-0.0144 v -20.58809 c 0,-43.97232 0.36027,-47.76676 5.88236,-62.24273 5.9146,-15.50586 18.56718,-31.28726 31.90235,-39.76891 13.01181,-8.27553 17.86605,-8.71461 25.26017,-2.33604 17.88378,15.42991 37.13739,22.50448 57.27515,21.05244 15.95661,-1.14914 31.39779,-7.54204 43.56854,-18.02686 6.46366,-5.56799 9.47238,-7.52296 12.94668,-7.47253 1.15815,0.0144 2.3625,0.25938 3.77146,0.66143 16.99638,4.85763 37.25288,26.25087 45.00386,47.52286 4.95346,13.59313 5.28995,17.85692 5.34758,60.52589 l 0.0144,10.48404 c 12.89796,-8.13177 24.9605,-17.5032 35.99752,-27.91987 15.8167,-2.44577 26.50939,-2.92074 39.75487,-1.67463 22.80784,2.13771 43.91807,8.16812 61.97535,17.71728 10.62295,5.61633 12.55169,6.05209 15.73306,3.64478 2.14178,-1.62302 2.14099,-1.68851 2.12492,-34.73094 -0.0144,-37.0028 -0.52092,-41.33625 -6.30448,-54.01028 -6.0495,-13.256 -16.32791,-24.53917 -28.04646,-30.77664 -3.69566,-1.96615 -6.33612,-3.0219 -8.72499,-3.09598 -3.07147,-0.10877 -5.72858,1.42705 -9.65379,4.72838 -19.18762,45.3147 -34.249,57.40165 -71.22096,98.84534 0,0 -0.0144,0 -0.0144,0 -17.21745,2.89098 -16.42179,3.58058 -17.21075,-15.15606 -1.0536,-25.02564 -7.38965,-43.10663 -21.72793,-62.01757 -2.95806,-3.90423 -5.23496,-7.94631 -5.23496,-9.30196 0,-3.09928 5.88623,-8.57144 14.48058,-13.45333 9.16112,-5.20485 11.72052,-5.00094 19.94078,1.61833 23.50998,18.93543 51.04011,20.26068 74.69693,4.15139 2.59716,-7.48425 4.7043,-15.18697 6.54369,-22.99445 13.12673,-16.59961 16.79206,-41.19151 6.29044,-56.69817 C 539.12007,135.03571 452.60212,39.035378 340.24125,22.780393 c -0.37322,-1.514301 -1.124,-3.79033 -1.75906,-5.319401 -3.48713,-8.4043496 -9.23834,-14.0582142 -17.44995,-17.14035191 -3.19202,-1.21449575 -4.26904,-1.35910239 -9.06269,-1.35096089 -0.58288,7.213e-4 -1.11578,-0.0072 -1.60422,0 z M 340.65067,34.320672 C 422.38412,44.9442 493.49304,97.982304 526.14049,175.28512 486.20036,103.27462 411.4582,57.846496 329.54741,54.979143 c 5.07235,-4.274371 8.9201,-10.323076 10.55443,-17.069957 0.24427,-1.009007 0.41791,-2.248937 0.54904,-3.588514 z M 222.65264,92.271299 c 14.77426,0.191657 29.72505,10.366241 36.2789,25.485331 2.33685,5.39109 2.60343,7.19101 2.60343,17.54845 0,11.24901 -0.0944,11.75013 -3.64479,19.51855 -4.31579,9.44052 -9.89709,15.29527 -19.06822,19.98298 -8.05116,4.11802 -20.73053,4.99143 -28.52503,1.98422 -15.3431,-5.92455 -25.27307,-18.57791 -27.4132,-34.928 -3.07891,-23.52302 11.48626,-44.872387 33.46443,-49.042716 2.07838,-0.394121 4.19388,-0.577851 6.30448,-0.549032 z m 176.84929,0 c 14.77427,0.191657 29.72541,10.366241 36.27891,25.485331 2.33655,5.39109 2.61754,7.19101 2.61754,17.54845 0,11.24901 -0.0944,11.75013 -3.64478,19.51855 -4.31588,9.44052 -9.89682,15.29527 -19.06831,19.98298 -8.05086,4.11802 -20.73066,4.99143 -28.52495,1.98422 -15.34347,-5.92455 -25.27306,-18.57791 -27.41328,-34.928 -3.07889,-23.52302 11.48635,-44.872387 33.46443,-49.042716 2.07839,-0.394121 4.17985,-0.577851 6.29044,-0.549032 z m -40.14892,82.155391 c 1.87002,0 4.66072,1.54305 8.19022,4.50321 19.0428,15.98623 43.94955,15.91713 63.57963,-0.1405 3.36978,-2.76137 6.30017,-4.33432 8.0776,-4.33432 4.26803,0 14.0214,6.13819 19.95489,12.5527 5.15123,5.56892 11.60976,16.81764 11.60976,20.2222 0,0.91498 -1.84991,2.68333 -4.10914,3.92623 -13.62361,7.48878 -23.89459,18.57395 -29.87593,32.25425 -2.13583,4.88241 -4.38987,10.06073 -5.02393,11.49722 -1.38093,3.13438 -2.67273,3.28287 -12.69342,1.50574 v -0.0287 c -4.25239,-0.75453 -12.56256,-1.39938 -18.47717,-1.43541 -7.35702,-0.0576 -11.07869,-0.49931 -11.76462,-1.37913 -0.55047,-0.72167 -2.12961,-4.53764 -3.50406,-8.48569 -3.79479,-10.90013 -8.86,-19.1281 -17.44996,-28.34209 -8.33878,-8.94489 -14.86165,-13.62886 -25.34454,-18.20982 -8.65963,-3.78549 -9.03948,-5.778 -2.37827,-12.53865 5.75797,-5.84372 15.25246,-11.56754 19.20894,-11.56754 z m -176.86333,0.0144 c 1.87002,0 4.67497,1.52714 8.20426,4.48916 19.04301,15.98623 43.93543,15.91742 63.56558,-0.1405 3.36977,-2.76137 6.30009,-4.33432 8.07761,-4.33432 4.32177,0 14.05705,6.17148 20.20813,12.80603 7.33303,7.9095 7.41056,10.18949 0.49284,13.94581 -17.37596,9.43268 -32.81352,28.20902 -37.9255,46.11564 -2.151,7.53432 -2.99523,8.68628 -6.16368,8.41537 -1.39592,-0.13614 -8.79999,-0.49931 -16.45082,-0.78802 v -0.0287 c -11.02313,-0.44672 -14.05973,-0.88587 -14.63543,-2.12494 -0.39988,-0.86051 -2.36515,-5.32358 -4.36248,-9.9211 -2.92175,-6.72281 -5.25109,-10.11707 -11.93349,-17.33734 -9.52568,-10.29102 -19.454,-16.40902 -30.45291,-18.77274 -8.14231,-1.74559 -9.18496,-3.36307 -6.24822,-9.5834 4.49637,-9.529 20.54168,-22.74118 27.6244,-22.74118 z m 133.1682,33.04229 c 10.2116,-0.0144 12.52186,0.30766 19.32156,2.87074 17.4926,6.56862 29.73714,18.60154 37.16549,36.50414 1.47626,3.55622 3.26125,9.05388 3.95439,12.21491 1.73491,7.92074 1.49679,23.12795 -0.49283,31.3395 -5.28618,21.82318 -21.38404,40.2928 -41.10584,47.1711 -9.23143,3.21882 -25.27854,3.66253 -34.59023,0.94287 l 0.0144,-0.0144 c -19.44808,-5.68139 -35.22277,-20.97817 -42.16131,-40.92282 -12.40442,-35.65566 5.10966,-75.37104 38.48835,-87.29186 6.68824,-2.39081 9.47129,-2.80005 19.40601,-2.81446 z M 494.26623,219.051 c 17.0899,0.39194 33.95323,9.98117 43.14632,28.59534 0.42582,0.86245 0.77382,1.743 1.13993,2.61749 4.50917,11.55765 6.73672,34.42163 -2.96932,52.39193 0.124,-0.59081 0.28893,-1.16621 0.40781,-1.75905 -6.30556,11.26968 -16.40514,20.27746 -29.3975,24.40176 -7.1255,2.26002 -21.16585,2.11404 -28.14501,-0.30984 v 0.0144 c -8.7495,-3.02434 -15.14944,-7.40268 -21.50285,-14.70573 -8.99689,-10.34109 -14.14921,-23.85828 -14.18502,-37.22184 -0.0216,-7.61185 3.36746,-20.88587 7.00806,-27.44138 10.09251,-18.17285 27.40737,-26.97492 44.49729,-26.58296 z m -346.28234,0.0289 c 37.58202,0.13614 61.07887,43.70896 43.21664,80.11481 -5.91259,12.05101 -18.4919,22.73911 -31.01584,26.34375 -7.83896,2.25486 -21.18957,1.8162 -28.65162,-0.92874 C 108.43184,316.09457 94.040329,290.8712 97.660529,265.23774 101.46218,238.31867 122.54345,218.9783 147.98389,219.0799 Z" />
</svg>
