<?xml version="1.0" encoding="UTF-8" standalone="no"?>
<svg
   viewBox="0 0 640 512"
   version="1.1"
   id="svg4"
   sodipodi:docname="user-shield.svg"
   inkscape:version="1.1 (c68e22c387, 2021-05-23)"
   xmlns:inkscape="http://www.inkscape.org/namespaces/inkscape"
   xmlns:sodipodi="http://sodipodi.sourceforge.net/DTD/sodipodi-0.dtd"
   xmlns="http://www.w3.org/2000/svg"
   xmlns:svg="http://www.w3.org/2000/svg">
  <defs
     id="defs8" />
  <sodipodi:namedview
     id="namedview6"
     pagecolor="#ffffff"
     bordercolor="#666666"
     borderopacity="1.0"
     inkscape:pageshadow="2"
     inkscape:pageopacity="0.0"
     inkscape:pagecheckerboard="0"
     showgrid="false"
     inkscape:zoom="0.57452426"
     inkscape:cx="274.13986"
     inkscape:cy="254.99358"
     inkscape:window-width="1920"
     inkscape:window-height="1009"
     inkscape:window-x="0"
     inkscape:window-y="40"
     inkscape:window-maximized="1"
     inkscape:current-layer="svg4" />
  <!--! Font Awesome Free 6.3.0 by @fontawesome - https://fontawesome.com License - https://fontawesome.com/license/free (Icons: CC BY 4.0, Fonts: SIL OFL 1.1, Code: MIT License) Copyright 2023 Fonticons, Inc. -->
  <path
     id="path8306"
     style="display:inline;fill:#000000;fill-opacity:1;stroke:none;stroke-width:16.4064;stroke-linecap:round;stroke-linejoin:bevel;stroke-miterlimit:4;stroke-dasharray:none;stroke-dashoffset:0;stroke-opacity:1"
     d="m 143.0601,2.608575 0.0292,0.014587 C 128.89756,2.7332998 114.60853,6.749611 101.91868,15.145251 78.065382,30.926545 65.039942,56.956419 66.888072,85.135367 c 1.38365,21.083083 11.14624,40.131233 27.75094,54.120133 0.87118,0.73325 1.77956,1.4164 2.67825,2.10837 -0.005,0.007 -0.007,0.0218 -0.0146,0.0292 0.0824,0.0824 0.19401,0.14442 0.28519,0.19912 0.28154,0.22027 0.55652,0.44565 0.84048,0.65499 1.38116,1.01451 2.791218,1.98219 4.231038,2.89196 0.38293,0.22027 0.76519,0.42888 1.15396,0.64113 0.35011,0.22028 0.6725,0.47702 1.02567,0.68344 0.0146,-0.0292 0.0292,-0.0583 0.0583,-0.11378 1.82777,1.10823 3.70055,2.13922 5.61286,3.09137 0.22028,0.11014 0.46682,0.19183 0.69803,0.31363 4.35649,1.90218 8.87704,3.40086 13.50508,4.4732 l -0.17067,0.25675 c 0.74157,0.19256 1.518,0.27644 2.26511,0.44128 21.04669,4.71602 43.91007,0.86841 61.85568,-12.02348 8.50979,-6.11396 15.67042,-4.40092 15.67042,3.74665 0,3.31501 -0.65644,4.46322 -3.96029,7.0802 -11.01845,8.72481 -28.24248,15.89208 -43.70641,18.192 l -7.9777,1.1824 -3.6897,8.80396 c -17.98477,42.96309 -19.8709,89.02347 -5.45619,133.61236 l 3.76095,11.63888 10.7841,0.70021 c 5.92921,0.37929 13.74695,1.39094 17.36574,2.2509 36.96803,8.7906 65.64384,37.4527 74.4348,74.42035 0.86009,3.61924 1.87314,11.42954 2.25083,17.36604 l 0.68343,10.79861 12.72165,4.04593 c 26.1988,8.33473 50.08726,11.00138 75.91633,8.47623 14.9363,-1.46169 27.67845,-4.12469 42.11088,-8.78987 l 11.66731,-3.76073 0.68418,-10.78476 c 0.37708,-5.92775 1.3792,-13.73221 2.23659,-17.35145 8.79126,-36.96765 37.45249,-65.62902 74.4205,-74.42035 3.6188,-0.85996 11.42254,-1.87016 17.35153,-2.2509 l 10.7841,-0.70021 3.76095,-11.63888 c 12.85468,-39.76326 12.85468,-79.34672 0,-119.11005 l -3.76095,-11.6531 -10.7841,-0.68343 c -5.92899,-0.37783 -13.73273,-1.39073 -17.35153,-2.2509 -36.96801,-8.79126 -65.62924,-37.45277 -74.4205,-74.4205 -0.86016,-3.61908 -1.85921,-11.436833 -2.23659,-17.36575 l -0.68418,-10.784172 -11.65308,-3.760879 c -19.48609,-6.299447 -39.28144,-9.483378 -58.9638,-9.573239 -25.3058,-0.110138 -50.43801,4.885452 -74.5345,14.972401 l -8.67572,3.632724 -1.80925,10.584684 c -2.02895,11.885991 -7.08624,25.814341 -10.3852,28.591491 -4.85219,4.08473 -12.47942,0.78286 -12.47942,-5.39916 0,-1.66505 1.13165,-5.5667 2.50728,-8.67572 5.35744,-12.115679 6.90783,-26.777505 4.92906,-40.842982 -0.007,-0.165572 -0.0218,-0.304155 -0.0292,-0.455869 -0.0218,-0.165571 -0.0861,-0.330413 -0.11378,-0.498902 -0.0583,-0.336249 -0.0875,-0.675414 -0.14223,-1.011445 -0.0218,0.0071 -0.0146,0.02189 -0.0438,0.02918 -1.33091,-8.07376 -3.81558,-15.893401 -7.47908,-22.864614 -3.6819,5.435921 -9.89046,14.318647 -20.22919,29.147066 -13.77219,19.747131 -25.12725,35.939716 -25.22944,35.970876 -0.10212,0.0218 -2.72857,-1.72989 -5.84088,-3.90333 -5.46722,-3.81843 -5.64876,-3.97495 -5.29946,-4.50172 3.71369,-5.597413 39.39011,-56.452209 48.40755,-69.064085 C 188.94462,12.747967 166.14966,2.4513186 143.06061,2.6098879 Z M 490.48896,3.5488312 C 448.59573,6.0491789 421.01649,29.67411 410.34159,64.0226 v 0.01459 l -0.0146,0.02917 c -0.0824,0.300509 -0.15973,0.608311 -0.24215,0.911737 l -0.0583,0.156819 c -0.11014,0.526619 -0.21955,1.051999 -0.31364,1.581244 -0.30854,1.287445 -0.64406,2.561033 -0.89752,3.874882 -0.16557,0.923553 -0.28373,1.844335 -0.42742,2.763731 -0.0583,0.300508 -0.14442,0.597369 -0.19913,0.897514 -0.0824,0.534642 -0.15827,1.06345 -0.2137,1.595539 v 0.05835 c -0.007,0.137854 -0.0219,0.27498 -0.0292,0.398975 -0.24799,2.16957 -0.34718,4.307484 -0.42742,6.453348 -0.0583,0.683438 -0.11451,1.367752 -0.14223,2.051408 -0.007,0.741572 -0.0146,1.48358 0,2.222378 0.0583,0.879426 0.11597,1.75885 0.17068,2.635504 0.0583,1.083362 0.10357,2.1614 0.2137,3.233822 0.0583,0.749812 0.0883,1.501011 0.17069,2.250823 0.13785,1.09445 0.28227,2.180584 0.45586,3.262341 0.13786,0.661556 0.24726,1.32129 0.39898,1.980145 0.13786,0.66448 0.24726,1.32137 0.39897,1.98023 0.13786,0.76637 0.29322,1.52996 0.45587,2.29356 0.49088,2.02071 1.05572,4.01771 1.69526,5.98326 0.0292,0.11014 0.0868,0.22028 0.11377,0.32749 0.248,0.78294 0.52225,1.56171 0.79774,2.33639 v 0.0146 c 0.41648,1.14404 0.98722,2.211 1.45309,3.33352 0.67833,1.63202 1.35951,3.26235 2.13689,4.84359 0.68928,1.40043 1.44178,2.74572 2.20816,4.10282 0.8711,1.54653 1.75331,3.08569 2.72091,4.57298 0.87119,1.33975 1.80531,2.61625 2.7495,3.90332 1.06959,1.46112 2.15871,2.8989 3.31924,4.28802 0.93734,1.11925 1.91319,2.19159 2.90618,3.26234 1.29569,1.40043 2.63018,2.76351 4.01734,4.07429 0.48795,0.46317 0.91137,0.9895 1.41034,1.43888 0.71115,0.64477 1.42064,1.27716 2.15112,1.89465 0.0583,0.0583 0.11597,0.0876 0.17067,0.14224 0.42159,0.35302 0.86908,0.68125 1.29643,1.02574 0.30342,0.24799 0.60539,0.48432 0.91173,0.72647 0.48796,0.38293 0.95958,0.78176 1.45309,1.1539 0.33041,0.19328 0.66375,0.38219 0.99714,0.56964 17.49136,12.75988 39.833,19.03167 63.15209,14.54505 9.0653,-1.74506 17.46852,-4.88726 25.07278,-9.10314 -0.0219,-0.0292 -0.0583,-0.0861 -0.0854,-0.11379 0.22028,-0.0824 0.42597,-0.18818 0.64114,-0.2706 0.007,0.0218 0.0146,0.0583 0.0292,0.0854 0.13784,-0.0824 0.27497,-0.17359 0.39897,-0.25675 0.0146,-0.007 0.0292,-0.006 0.0583,-0.0145 0.44347,-0.24799 0.8865,-0.50765 1.32486,-0.76929 l 0.14224,-0.0853 c 2.15578,-1.2957 4.25314,-2.69065 6.28244,-4.17409 2.11692,-1.54652 4.14819,-3.17707 6.09719,-4.90055 14.46533,-12.79225 24.10947,-30.27893 27.13848,-49.248028 -0.78023,1.306629 -1.37796,2.323768 -2.22238,3.732368 -5.13235,8.56223 -8.14794,13.26387 -8.73276,13.64761 -0.49089,0.31947 -1.60867,0.65791 -2.49299,0.72647 -1.2916,0.11014 -1.83106,-0.0292 -2.73521,-0.62655 -0.87665,-0.58715 -2.95315,-3.81499 -9.40233,-14.54505 -7.73103,-12.862716 -8.29112,-13.873723 -8.29112,-15.300117 0,-1.86082 0.96666,-3.464091 2.57853,-4.273786 1.02195,-0.512761 2.56118,-0.555796 17.6222,-0.555796 8.20687,-4.36e-4 12.30473,0.0073 14.55928,0.09993 -0.38659,-7.053928 -1.6512,-14.175324 -4.00311,-21.226333 -1.33146,-3.989644 -2.79797,-7.631559 -4.45894,-11.05495 C 550.71933,21.13427 521.95111,3.5522593 490.48808,3.5508735 Z M 311.16166,6.7113917 C 278.47465,6.7111 247.33554,13.338554 219.00496,25.302294 c 2.4177,3.471822 4.6942,7.158521 6.73831,10.955068 27.60857,-11.259661 57.80902,-17.479968 89.46424,-17.479677 31.3941,0.0011 61.75866,6.235042 89.72062,17.679165 1.60713,-2.781308 3.35606,-5.497993 5.24249,-8.120149 C 380.0388,14.466919 346.50701,6.7119753 311.16166,6.7113917 Z M 138.35897,9.5035683 c 0.49014,-8.754e-4 0.98912,0.043763 1.4816,0.1283726 4.29116,0.7111551 7.51505,3.8761961 8.26261,8.1201491 l 0.2706,1.567093 h 2.53579 c 3.08175,0 4.2193,0.492339 5.02879,2.16534 0.47774,0.984165 0.4989,1.569792 0.4989,9.801173 0,8.573757 -0.007,8.767264 -0.56966,9.858139 -1.09387,2.133756 -0.28519,2.037185 -17.46546,2.037185 H 123.273 l -0.84048,-0.569653 c -0.4617,-0.314367 -1.0754,-0.902182 -1.3676,-1.296417 -0.51568,-0.694379 -0.5412,-0.967463 -0.5412,-9.886658 0,-8.724813 0.0292,-9.2243 0.51275,-10.043331 0.96324,-1.637479 1.63173,-1.926391 4.68692,-2.022889 l 2.73521,-0.08534 0.15681,-1.282121 c 0.56382,-4.757517 5.00515,-8.4818535 9.74414,-8.4906061 z m 350.49171,2.0514087 c 6.5144,-0.0033 9.74596,0.297591 15.27159,1.438867 27.68158,5.700691 50.11549,27.202732 57.08328,54.69 0.43763,1.728435 0.79773,3.296404 0.79773,3.490203 0,0.220275 -1.50057,0.316554 -4.85781,0.242157 l -4.84359,-0.08534 -1.06848,-3.689691 c -1.81837,-6.303896 -4.50858,-11.98183 -8.4763,-17.892877 -14.77088,-22.003789 -41.36771,-32.778259 -67.25484,-27.252403 -22.47723,4.797852 -40.82379,21.199709 -48.06561,42.965645 -13.1681,39.577272 13.74207,80.917252 55.41648,85.133412 1.83186,0.19329 4.19296,0.3275 5.24249,0.3275 2.63768,0 4.1721,0.83348 5.10003,2.74944 1.12173,2.31566 0.52954,4.38954 -1.73799,6.08296 -0.72428,0.54339 -1.39729,0.6652 -3.67546,0.69803 -1.53522,0.0218 -3.44936,-0.0146 -4.24527,-0.0854 v 0.0145 c -32.2154,-2.75126 -58.82309,-25.0444 -66.72778,-55.88663 -1.77613,-6.930743 -2.22231,-10.695488 -2.22231,-18.519651 0,-7.823652 0.44639,-11.588397 2.22231,-18.51964 6.71936,-26.216671 27.53323,-47.009747 53.70708,-53.664333 6.67472,-1.698092 11.01036,-2.233828 18.33445,-2.2366 z m -350.42045,3.490275 c -0.14296,-2.92e-4 -0.28155,0.0021 -0.42742,0.01459 -2.00313,0.165571 -3.45534,1.408233 -3.88918,3.333529 l -0.19912,0.926034 h 4.44468 4.44476 l -0.14224,-0.911737 c -0.32239,-1.987441 -2.0862,-3.357965 -4.23105,-3.362049 z m -23.60546,13.37686 v 5.399234 c 0.001,2.971753 0.11305,6.13497 0.25675,7.023221 0.50765,3.127258 2.49013,5.79077 5.27093,7.09448 l 1.45309,0.683438 h 16.61076 16.62491 l 1.4673,-0.683438 c 1.58876,-0.744342 3.68247,-2.682111 4.38779,-4.045851 0.95878,-1.852576 1.12239,-3.215223 1.12538,-9.416566 v -6.040221 l 7.67858,0.01459 c 8.46646,0.0061 8.89826,0.07366 10.39949,1.666801 1.58211,1.687079 1.59014,1.78292 1.6668,13.049219 l 0.073,10.271265 -9.21708,13.205964 -9.21708,13.191668 -25.11551,0.113785 c -19.00855,0.08242 -25.25103,0.212253 -25.65686,0.427422 -0.93151,0.534643 -2.09503,2.070446 -2.26512,2.977369 -0.33844,1.802978 0.6105,3.747166 2.2509,4.64417 0.74981,0.407728 2.48028,0.465351 22.70794,0.58424 l 21.89591,0.09993 -3.83214,5.456199 -3.81792,5.456199 -18.32023,0.113785 -18.33444,0.113784 -0.85478,0.612691 c -0.95659,0.68344 -1.79495,2.29546 -1.79495,3.44752 0,1.15229 0.83814,2.7652 1.79495,3.44747 l 0.85478,0.61269 15.15766,0.0854 c 8.34013,0.0583 15.17189,0.1014 15.17182,0.15681 0,0.0583 -0.27936,0.70605 -0.62655,1.45309 -0.76418,1.64025 -0.81925,3.45461 -0.2706,9.40227 0.40553,4.40392 0.73464,5.40682 2.37905,7.13722 1.26177,1.32597 2.65527,1.99081 4.48743,2.13689 1.30123,0.0824 2.27197,-0.0817 6.22548,-1.15396 2.5762,-0.70313 4.96473,-1.38919 5.31374,-1.52428 1.83158,-0.71699 2.76373,-1.87453 11.68162,-14.58779 4.95525,-7.06414 9.09293,-12.842871 9.20286,-12.849801 0.11013,-0.0068 0.16921,8.176741 0.12837,18.191991 l -0.073,18.20623 -0.69802,1.43886 c -0.74682,1.51896 -1.97679,2.58263 -3.5045,3.02011 -0.54631,0.16558 -15.0317,0.24217 -39.31869,0.24217 -38.11083,-0.006 -38.461888,7.3e-4 -39.589298,-0.51277 v 0.0583 c -1.38722,-0.63092 -1.90211,-1.0784 -2.76373,-2.39334 l -0.66958,-1.01145 -0.0729,-51.256686 -0.0583,-51.270987 0.65499,-1.339159 c 0.45149,-0.923261 1.02173,-1.597436 1.8377,-2.165339 l 1.18241,-0.826253 8.063188,-0.07294 z m 374.15414,1.153968 c 1.23609,0 1.83127,0.194747 2.76365,0.911737 1.82522,1.392113 2.09415,2.379123 2.09415,7.820954 0,4.01383 -0.0992,4.924036 -0.5981,5.869325 -1.32931,2.500348 -4.54979,3.368029 -6.83803,1.837697 -1.93164,-1.290144 -2.22179,-2.310634 -2.22238,-7.977699 -2.9e-4,-4.674294 0.0511,-5.092452 0.72648,-6.082964 1.17001,-1.717494 2.29546,-2.37905 4.07437,-2.37905 z M 326.56148,41.542592 c -32.5175,5.83e-4 -63.50219,6.54299 -91.71506,18.391487 0.22028,1.033764 0.42086,2.053669 0.56966,3.04863 0.59007,3.932213 1.0439,4.697999 2.43609,4.102816 0.94281,-0.402622 7.55975,-2.807129 14.71602,-5.342268 41.08352,-14.553657 88.28189,-15.189101 129.86548,-1.766436 6.26998,2.0234 11.507,3.523755 11.62465,3.33353 0.11014,-0.193289 1.31319,-3.895597 2.66403,-8.234153 0.2757,-0.854553 0.57694,-1.703708 0.86899,-2.550019 -22.6555,-7.149332 -46.56832,-10.951858 -71.03,-10.983587 z m 125.87668,3.233822 c 0.92019,-0.01459 1.84667,0.180889 2.59276,0.641133 1.41859,0.876654 4.31121,3.966057 4.71536,5.028851 0.85434,2.246738 0.0963,4.717036 -1.82348,5.983256 -1.2215,0.804954 -3.80682,0.799994 -5.10004,0 -1.74579,-1.077892 -4.57757,-4.354383 -4.94329,-5.712653 -0.37125,-1.378327 -0.11232,-2.83543 0.75507,-4.159782 0.73172,-1.116476 2.26994,-1.756808 3.80362,-1.780732 z m 73.08141,0 c 0.8574,0.0046 1.72399,0.16703 2.33631,0.484314 1.93441,0.997952 2.85753,3.855263 1.99444,6.125706 -0.39459,1.036536 -2.67379,3.546658 -4.31652,4.743878 -1.56083,1.138578 -3.95781,1.25528 -5.55584,0.285191 -1.72048,-1.047621 -2.54499,-3.241699 -1.99444,-5.28523 0.37783,-1.405971 3.61865,-5.049637 5.22826,-5.883621 0.59883,-0.309991 1.4504,-0.474833 2.30779,-0.469728 z m -36.59771,13.220187 c 1.65842,-0.0029 3.3242,0.847624 4.1883,2.564243 0.70168,1.392186 0.72648,1.717785 0.72648,10.997882 v 9.57324 l 7.36515,0.09993 c 6.86225,0.08242 7.43701,0.146608 8.26261,0.769287 1.59116,1.188176 2.20807,2.301954 2.20807,3.988813 0,1.687152 -0.61706,2.813548 -2.20807,4.00311 -0.8477,0.630921 -1.35843,0.663744 -11.24004,0.740767 -10.22693,0.08242 -10.35792,0.0868 -11.59613,-0.641133 v -0.01459 c -2.45819,-1.422456 -2.45083,-1.336461 -2.45032,-15.6705 2.9e-4,-11.456231 0.0656,-12.823763 0.56966,-13.832729 0.86286,-1.717493 2.51566,-2.575547 4.174,-2.578537 z m -358.72578,2.208154 c -8.75575,-0.0054 -15.26861,0.03647 -15.81296,0.09993 -1.69152,0.220275 -2.8371,0.98825 -3.57568,2.421793 -1.07322,2.081312 -0.26331,4.515432 1.85199,5.570129 0.99322,0.495985 1.56031,0.512761 25.71384,0.512761 20.27834,2.92e-4 24.83389,-0.07731 25.51434,-0.342083 3.18225,-1.32873 3.4193,-5.87115 0.39897,-7.650058 -0.84245,-0.498902 -1.38905,-0.506926 -24.71661,-0.584241 -3.28028,-0.01459 -6.45524,-0.02918 -9.37382,-0.02918 z M 441.44035,81.11767 c 2.52835,0.02917 5.02768,0.240699 5.75532,0.612687 3.4452,1.731206 3.45454,6.662245 0.0146,8.490533 -0.95302,0.506926 -1.84703,0.589346 -5.95474,0.569653 -2.65615,-0.0073 -5.18494,-0.168489 -5.62717,-0.342084 v -0.01459 c -2.06147,-0.821512 -3.50173,-3.392756 -3.04863,-5.4562 0.27717,-1.265345 1.64456,-2.852642 2.9347,-3.390495 0.83501,-0.350106 3.39787,-0.498902 5.9263,-0.470456 z m -290.37403,26.63987 c 0.26769,0.0824 10.57185,7.15567 11.1973,7.66428 0.13785,0.11013 -2.69999,4.2581 -3.24812,4.74387 -0.35959,0.31947 -8.60329,2.7067 -9.3453,2.7067 -0.15172,0 -0.52225,-0.22976 -0.82626,-0.45587 -0.50255,-0.40773 -0.59737,-0.88111 -0.9687,-5.27094 l -0.41283,-4.82936 1.62406,-2.3506 c 1.08146,-1.56031 1.74141,-2.29904 1.98014,-2.20808 z m 371.60411,7.15145 c 1.02239,0.0292 2.04499,0.32822 2.86337,0.92595 1.64251,1.19642 3.92207,3.69203 4.31652,4.72966 1.39299,3.66453 -1.59685,7.36158 -5.31367,6.56735 -1.49751,-0.3202 -2.09977,-0.7415 -4.23105,-2.96315 -2.71595,-2.83039 -3.14023,-4.64687 -1.72376,-7.2939 0.69729,-1.30086 2.38459,-2.00969 4.08859,-1.96591 z m -67.19787,0.0145 c 2.6393,0.004 4.5832,1.87511 4.58714,4.40201 0.003,1.88831 -0.40554,2.76497 -2.15112,4.62987 -2.61034,2.79014 -4.27816,3.62347 -6.36794,3.17686 -2.05841,-0.43837 -3.09582,-1.42924 -3.7039,-3.54724 -0.51423,-1.79189 0.14222,-3.38327 2.36481,-5.69836 2.3838,-2.48386 3.24863,-2.96591 5.27101,-2.96314 z m 33.47783,10.27127 c 1.6773,-0.002 3.37386,0.85637 4.288,2.57853 0.50182,0.94828 0.59811,1.86775 0.59811,5.88356 0,3.34118 -0.14005,5.0734 -0.45587,5.82657 -0.87804,2.10335 -3.64994,3.42638 -5.78384,2.76366 -1.10736,-0.34427 -2.34179,-1.44178 -2.96315,-2.63551 -0.71772,-1.37832 -0.63238,-10.3423 0.11378,-11.82405 0.86535,-1.72282 2.52522,-2.59094 4.20253,-2.59276 z m -168.91352,23.93309 v 0.0146 c 8.96077,0 17.92439,0.82749 24.51712,2.47876 39.93977,10.00117 69.90901,39.9747 79.81974,79.83395 3.23783,13.02209 3.27809,35.88014 0.0853,48.70674 -5.21849,20.92437 -14.16744,36.37212 -30.1585,52.06858 -20.38288,20.0057 -42.47054,29.53008 -70.57415,30.444 -6.94211,0.21882 -14.04913,0.20423 -15.78449,-0.0729 h -0.0146 C 282.27633,358.8 263.5149,349.62939 245.7725,332.2152 c -15.99107,-15.69719 -24.9401,-31.1442 -30.15859,-52.069 -3.19867,-12.82604 -3.15811,-35.68466 0.0854,-48.70668 9.9105,-39.85954 39.88025,-69.83278 79.81973,-79.83396 6.59303,-1.65134 15.55606,-2.47883 24.51719,-2.47883 z m -229.173718,6.93773 c -10.80641,27.12287 -16.75284,56.70567 -16.75312,87.68351 0.11013,27.1939 4.88414,54.17527 14.13191,79.7484 -6.62146,-21.95025 -10.0237,-44.74142 -10.10036,-67.66788 5.8e-4,-33.90991 7.12971,-66.14871 19.95851,-95.31927 -2.49488,-1.40866 -4.93695,-2.87919 -7.23694,-4.44476 z m 228.247688,8.47632 c -23.34492,0.30342 -46.41252,9.59256 -63.49388,26.92476 -8.99199,9.124 -12.39109,13.80902 -17.65072,24.3177 -6.88741,13.76059 -8.76121,22.37469 -8.76121,40.18769 0,17.81105 1.87738,26.43331 8.76121,40.18718 4.88691,9.76362 11.52757,19.24131 12.60765,17.99259 0.40773,-0.4741 1.39116,-2.50326 2.17963,-4.53024 4.49268,-11.53384 15.53447,-25.25847 25.77079,-32.05273 5.43797,-3.60998 5.6422,-3.92668 4.23105,-6.12578 -3.67722,-5.72936 -5.04971,-14.30392 -4.64417,-29.06158 0.37783,-13.76942 0.55433,-14.67825 3.8891,-21.45435 6.4249,-13.05068 17.64226,-21.49518 31.54041,-23.73361 18.33709,-2.95307 36.01202,6.46962 44.50415,23.71939 3.30589,6.71572 3.49933,7.73197 3.88919,21.06966 0.4245,14.55672 -0.41649,20.42634 -4.01734,27.87925 l -1.96599,4.07429 4.38779,2.74943 c 2.41486,1.51072 7.76377,6.16386 11.89532,10.34253 5.82804,5.89413 8.6545,9.90139 12.59335,17.83569 l 5.08574,10.22823 2.45031,-2.99122 c 3.8975,-4.7549 10.23115,-16.07283 13.16323,-23.5056 8.88666,-22.53092 7.54254,-50.83904 -3.44754,-72.79652 -5.17604,-10.34165 -8.64349,-15.1705 -17.12352,-23.80487 -8.37944,-8.53218 -14.23695,-12.80451 -24.74513,-18.06385 -12.98598,-6.49981 -27.09237,-9.55486 -41.09942,-9.37375 z m -202.64779,4.21682 c -17.200168,32.83617 -26.953788,70.19821 -26.953198,109.83579 0.13785,21.48228 3.22193,42.80161 9.08885,63.40833 6.492728,-3.96278 13.377588,-7.10645 20.528308,-9.33109 4.33884,-1.35083 8.04392,-2.54557 8.23415,-2.66446 0.19329,-0.10941 -1.30955,-5.34059 -3.33353,-11.61042 -4.65067,-14.40618 -7.59696,-29.63124 -9.17434,-47.48086 -2.26883,-25.66781 1.86884,-56.74046 10.95507,-82.38398 2.53346,-7.15626 4.93942,-13.77431 5.34219,-14.71602 0.59518,-1.39219 -0.16556,-1.86038 -4.11703,-2.45031 -3.28992,-0.4938 -6.86955,-1.38854 -10.57047,-2.60698 z m 420.75243,3.43323 c -7.63212,4.08196 -16.3764,7.69696 -21.6253,8.74699 -1.6954,0.33917 -3.07708,0.94215 -3.07708,1.33909 0,0.39678 1.43609,4.9586 3.19108,10.12888 4.38458,12.91895 8.05924,31.87995 9.53049,49.1198 2.05105,24.01902 -1.36731,52.59826 -9.20285,76.87016 -2.02347,6.26983 -3.53797,11.47913 -3.34775,11.59656 0.19255,0.10941 3.89523,1.33041 8.23408,2.67832 2.95556,0.91757 5.86692,2.00874 8.71846,3.23339 11.96542,-28.33242 18.57698,-59.46904 18.57668,-92.15605 -5.8e-4,-24.94089 -3.8562,-48.9791 -10.99781,-71.55714 z m -217.1929,40.27318 c -7.95983,0 -13.57913,2.42602 -19.33167,8.34808 -5.34942,5.50799 -6.96414,11.34078 -6.95196,25.08699 0.007,9.99957 0.35886,12.40014 2.47876,16.95263 4.29639,9.22656 13.61514,15.15758 23.80487,15.15758 3.35884,0 7.55785,-0.79517 10.00066,-1.90887 6.32891,-2.88467 10.57855,-6.9484 13.59057,-12.99226 2.42595,-4.86678 2.70669,-6.68413 2.70669,-17.15211 0,-13.80603 -1.61815,-19.63546 -6.96625,-25.14396 -5.75277,-5.92316 -11.37155,-8.34808 -19.33167,-8.34808 z m -25.40041,73.62277 -3.86067,2.03711 c -2.12266,1.11925 -6.98981,5.14366 -10.81261,8.94596 -7.57333,7.53314 -14.32747,19.39739 -15.34279,26.96772 -0.54558,4.0576 -0.37782,4.37999 4.01734,7.39383 20.38038,13.98021 45.65482,19.04583 69.94729,14.032 10.13495,-2.09262 24.12778,-8.02329 32.50912,-13.78984 4.76233,-3.27642 4.90813,-3.54411 4.35927,-7.63599 -1.01998,-7.62065 -7.75334,-19.43603 -15.37131,-26.96772 -3.84679,-3.8023 -8.74355,-7.81664 -10.88388,-8.91744 l -3.8891,-1.99445 -7.63583,3.57577 c -7.00571,3.28291 -8.46858,3.57539 -17.63642,3.57539 -9.18601,0 -10.60635,-0.29905 -17.69339,-3.61814 z m 197.53352,57.26796 c -26.45949,-0.45952 -52.1154,11.9598 -68.19509,33.52055 12.03339,-12.1137 32.5636,-19.14137 53.15142,-18.02103 11.10868,0.60539 19.99396,2.83149 29.1756,7.32235 13.56022,6.63379 22.95607,17.12388 26.0842,29.14713 0.76754,2.95039 0.8768,3.92047 0.99722,8.40549 0.11598,4.27787 0.0511,5.58129 -0.44128,8.4332 -3.82104,22.13041 -24.19487,37.58472 -52.49614,39.81739 -4.08604,0.32092 -12.42099,0.35011 -14.87269,0 -1.54514,-0.18965 -1.65477,-0.16047 -2.39334,0.62727 -1.27826,1.3676 -5.90894,4.97006 -9.50199,7.39382 -6.75501,4.55723 -12.37329,7.50688 -17.57945,9.2173 -3.5339,1.16045 -5.1662,1.39532 -6.45334,0.94018 v 0 c -1.20832,-0.43034 -1.98869,-1.49014 -2.16543,-2.90589 -0.11597,-0.93726 0.0583,-1.43689 1.16821,-3.3479 3.94373,-6.79353 6.53358,-13.19028 6.8095,-16.83868 0.15463,-2.02041 0.13858,-2.02916 -0.66958,-2.39313 -2.308,-1.03646 -6.66968,-4.35008 -9.68724,-7.35079 -7.77566,-7.73153 -12.23792,-17.72635 -13.20597,-29.57456 -0.23048,-2.82201 -0.15974,-5.56305 0.19985,-8.22022 -1.31895,3.82346 -2.46657,7.75997 -3.26234,11.89561 -4.32783,31.60445 6.95284,60.40295 30.45771,79.96299 1.49416,1.18234 3.02901,2.31435 4.60143,3.3902 0.41648,0.28446 0.84609,0.56163 1.2679,0.84026 1.14128,0.76076 2.2991,1.4916 3.47598,2.194 0.53172,0.31364 1.0552,0.63457 1.59554,0.94019 1.36461,0.77169 2.75388,1.50181 4.15985,2.19327 0.248,0.10941 0.4989,0.27717 0.75499,0.38658 5.519,2.6433 11.31495,4.66371 17.28026,6.02621 3.99954,0.91247 8.06129,1.54047 12.15178,1.85192 h 0.0583 c 1.75053,0.10941 3.50289,0.18235 5.25671,0.18235 5.07378,0 10.2345,-0.45222 15.44257,-1.45367 11.99263,-2.30268 22.09642,-6.45874 31.6259,-13.04879 -5.14053,-2.33039 -11.29527,-6.61701 -16.52528,-11.68117 l -2.74943,-2.66373 -7.66428,-0.0729 c -4.29071,0 -8.63999,-0.19693 -9.90088,-0.38657 -11.5771,-1.74252 -20.8771,-5.50398 -28.14991,-11.38286 -1.77921,-1.43908 -5.36824,-4.90076 -6.04023,-5.82636 l -0.51276,-0.70022 h 7.08025 c 3.89094,0 8.53416,-0.16047 10.31401,-0.3574 27.67145,-2.91829 46.99275,-14.60822 57.16876,-34.57525 2.1183,-4.15679 3.36556,-7.80739 4.06007,-11.8949 0.24509,-1.46971 0.47776,-2.71405 0.51276,-2.74979 0.0365,0 1.00109,0.56162 2.15113,1.31072 7.30133,4.80376 11.84886,10.92261 13.98946,18.81898 0.70241,2.5886 0.74084,3.0875 0.74084,9.2027 0,6.15095 -0.0365,6.62067 -0.75506,9.28805 -2.38845,8.82415 -8.37557,15.98969 -17.75035,21.25515 l -1.6668,0.94018 0.18526,2.08022 c 0.30927,3.66081 1.73997,9.40913 3.23383,13.39086 1.0404,-0.89277 2.0835,-1.75928 3.11988,-2.72062 1.43625,-1.33186 2.63806,-2.4172 3.71815,-3.33404 9.01707,-9.78914 15.53658,-21.61108 19.00402,-34.46075 0.38293,-2.10355 0.79052,-4.25306 1.42457,-7.32234 8.14926,-51.77864 -24.48458,-96.49825 -79.77699,-97.74113 z m -343.93851,0.0875 c -2.69612,0.0803 -5.39157,0.27716 -8.07748,0.56892 -0.49379,0 -0.98811,0.0875 -1.48153,0.11671 -0.75814,0.1094 -1.50977,0.18964 -2.26513,0.32822 -1.14951,0.21882 -2.29363,0.45222 -3.43323,0.7148 -0.82983,0.16776 -1.666,0.31364 -2.49306,0.51057 -0.36688,0.0803 -0.73026,0.1313 -1.09693,0.21152 -1.62923,0.40846 -3.24899,0.86871 -4.8578,1.38147 -1.38942,0.44493 -2.76702,0.92049 -4.13134,1.43909 -0.22027,0.0803 -0.4318,0.19693 -0.65499,0.28446 -2.05104,0.79941 -4.08276,1.69073 -6.08304,2.66373 -0.28665,0.13858 -0.58497,0.24799 -0.869,0.38658 -0.0824,0.0803 -0.15973,0.0875 -0.24215,0.14587 -0.44347,0.21882 -0.85528,0.53246 -1.29642,0.76879 -2.3735,1.25454 -4.71871,2.59735 -6.9947,4.1028 -3.26044,2.15609 -6.432198,4.52806 -9.445008,7.20856 -1.85258,1.64843 -3.65723,3.39604 -5.39924,5.24286 -0.22028,0.21882 -0.41721,0.45222 -0.62654,0.68563 -1.56039,1.67905 -3.05352,3.42302 -4.47327,5.22826 -0.37491,0.4741 -0.74726,0.95623 -1.11116,1.43909 -8.98754,12.28656 -14.50697,26.86853 -15.9554,42.15362 -0.0583,2.05322 -0.0583,4.38946 -0.0583,7.37923 0,4.39603 0.005,7.56596 0.11379,10.12903 0.003,0.0803 0.007,0.17505 0.0146,0.22611 0.40262,3.55578 1.02537,7.08238 1.86621,10.55645 0.39971,1.28154 0.84843,2.6579 1.42457,4.3304 8.55166,24.93199 26.15307,43.42421 49.775158,52.2965 12.27577,4.61121 18.07522,5.52075 32.48059,5.08603 9.06005,-0.26987 13.01246,-0.85848 19.60235,-2.92047 -1.35266,-0.18235 -2.37299,-0.95112 -4.4732,-2.97736 -3.13463,-3.02187 -3.76095,-4.08678 -3.76095,-6.38217 0,-1.85775 0.29905,-2.50107 3.0344,-6.60973 l 1.99444,-3.00581 -0.82625,-1.90955 -0.82624,-1.9088 -3.49028,-0.68563 c -4.50697,-0.87965 -5.33971,-1.15317 -6.52461,-2.15171 -1.6819,-1.41647 -2.1369,-2.87963 -2.1369,-6.96566 0,-4.93724 0.87645,-6.75707 3.83215,-7.99192 1.58124,-0.65645 2.9301,-0.6054 3.67547,0.13857 1.48255,1.48285 0.99423,3.31435 -1.16819,4.3304 l -1.16819,0.53974 -0.0853,2.84827 c -0.0656,2.03718 0.0218,2.95549 0.31363,3.19108 0.22028,0.18964 2.29969,0.70022 4.62995,1.15462 5.6872,1.10794 6.0791,1.30488 6.76677,3.37635 0.30415,0.91757 0.96322,2.51274 1.45309,3.54702 0.48942,1.03646 0.88329,2.28445 0.88329,2.76366 1.4e-4,0.56892 -0.87973,2.17869 -2.55003,4.67174 -1.40487,2.09918 -2.62098,4.08895 -2.70676,4.41645 -0.11013,0.43034 0.41065,1.16776 1.83777,2.60684 1.09774,1.10575 2.16972,2.02332 2.39328,2.02332 0.22318,0 2.20545,-1.21151 4.402,-2.67831 4.4805,-2.99268 5.09596,-3.1495 7.53607,-1.92267 0.81406,0.40846 2.38065,1.0722 3.47597,1.4668 0.57038,0.20423 1.00911,0.37199 1.3676,0.58351 3.11698,-1.75418 6.10332,-3.64914 8.97492,-5.88398 9.21139,-7.90512 16.41886,-17.56881 21.63954,-28.09245 -0.36397,-0.91392 -0.77147,-1.87452 -1.06848,-2.4646 -1.22698,-2.43981 -1.06922,-3.05542 1.92325,-7.53606 1.46709,-2.19765 2.67817,-4.17867 2.67817,-4.40187 0,-0.24799 -0.91523,-1.30779 -2.02289,-2.40771 -1.43981,-1.42814 -2.18021,-1.9482 -2.60698,-1.83807 -0.32823,0.0803 -2.31888,1.30343 -4.41623,2.70677 -2.49349,1.66812 -4.10231,2.56454 -4.67269,2.56454 -0.47994,-7.3e-4 -1.72822,-0.40846 -2.76366,-0.89788 -1.03574,-0.48869 -2.63004,-1.13566 -3.54724,-1.43836 -2.07227,-0.69291 -2.26789,-1.07877 -3.37628,-6.76727 -0.4544,-2.32894 -0.97774,-4.41427 -1.15389,-4.62944 -0.21225,-0.27716 -1.24514,-0.38657 -3.06293,-0.38657 -1.81778,0 -2.85081,0.13128 -3.06285,0.38657 -0.17651,0.21882 -0.69656,2.29976 -1.1539,4.62944 -0.45732,2.32966 -0.97416,4.60901 -1.15389,5.07145 -0.30853,0.7943 -1.35783,1.47409 -3.07715,1.99487 -0.41575,0.13858 -1.61282,0.62728 -2.66394,1.12545 -2.87577,1.36178 -3.2447,1.28154 -7.83525,-1.78117 -3.01581,-2.01239 -4.20676,-2.65352 -4.72966,-2.5215 -0.86177,0.21882 -3.93185,3.42302 -3.93185,4.10282 0,0.27717 1.19686,2.29028 2.66395,4.48793 1.80539,2.70385 2.66403,4.28809 2.66403,4.90004 0,0.49599 -0.47629,1.97373 -1.06849,3.29101 -0.59153,1.31801 -1.16935,2.77605 -1.28212,3.23411 -0.53172,2.159 -3.11398,2.94746 -4.47319,1.36761 -0.38804,-0.45222 -0.71262,-1.0846 -0.71262,-1.39606 0,-0.58351 0.85455,-3.1371 1.68102,-5.05758 l 0.47046,-1.11086 -2.36483,-3.68998 c -1.76461,-2.74543 -2.40574,-4.03061 -2.52157,-5.05687 -0.29978,-2.6608 0.0583,-3.47116 2.9347,-6.45364 3.18648,-3.30558 4.23439,-3.88327 6.7098,-3.70383 1.59838,0.1094 2.19918,0.39387 5.55591,2.54994 l 3.76088,2.40772 1.89473,-0.81255 1.89467,-0.82639 0.68343,-3.49013 c 0.87913,-4.5069 1.15433,-5.33986 2.15118,-6.5244 1.41553,-1.68124 2.87949,-2.1371 6.96619,-2.1371 4.08677,0 5.55095,0.45222 6.96625,2.1371 0.99715,1.18526 1.27228,2.01677 2.15112,6.5244 l 0.68344,3.49013 1.90896,0.82639 1.90896,0.82641 3.02011,-2.00874 c 4.10828,-2.73449 4.73622,-3.01967 6.59587,-3.01967 2.29502,0 3.36044,0.62726 6.38216,3.76072 0.54995,0.56893 0.98846,1.04231 1.3676,1.4814 5.58618,-21.95974 3.1107,-45.45192 -8.3766,-64.13524 -15.02426,-23.38787 -38.95663,-36.27692 -63.72182,-38.16458 -1.88292,-0.16776 -3.76809,-0.25528 -5.65568,-0.28446 -0.55361,0 -1.10984,-0.073 -1.66673,-0.073 -0.0583,7.2e-4 -0.1167,0 -0.19912,0 z m -10.08615,10.85551 c 0.59008,0.002 1.23792,-7.3e-4 1.95171,0 5.80543,0.13858 6.79046,0.42304 8.74698,2.64987 1.44397,1.6455 1.68125,2.36759 2.97737,8.91752 1.36738,6.90878 1.36548,6.90002 1.83777,6.90951 0.20423,0.004 1.77854,0.60539 3.50449,1.33916 l 3.14835,1.33915 5.48464,-3.63309 c 5.88165,-3.89567 7.5292,-4.61485 9.91511,-4.28808 2.37218,0.32823 3.57714,1.11378 7.25115,4.74395 3.98232,3.93287 4.7902,5.29464 4.80092,8.10571 0.007,2.44564 -0.39461,3.29538 -4.44476,9.40256 l -3.49021,5.25671 0.95449,2.12252 c 0.52443,1.16338 1.18824,2.77679 1.48154,3.57621 l 0.5412,1.45293 6.01177,1.16776 c 7.05524,1.38147 8.58813,1.95622 10.20008,3.7899 1.68299,1.9132 1.92318,3.05396 1.92318,9.01745 0,5.44782 -0.13347,6.20273 -1.48161,8.1626 -1.41442,2.05688 -2.89414,2.65571 -10.0291,4.10282 -4.2363,0.86067 -6.55948,1.48357 -6.72403,1.78116 -0.14077,0.27718 -0.70313,1.61341 -1.25367,3.04812 -1.42078,3.70093 -2.98438,4.72134 -4.82936,3.13419 -1.0908,-0.93726 -1.06572,-2.02915 0.0853,-4.94307 0.51131,-1.29539 1.16229,-3.01895 1.45309,-3.81762 0.29103,-0.79942 0.77265,-1.65864 1.06849,-1.92341 0.30926,-0.27717 3.33039,-1.03354 7.12293,-1.78117 3.62448,-0.7148 7.04692,-1.4471 7.60731,-1.62361 1.78942,-0.56163 1.96592,-1.13347 1.96592,-6.43906 v -4.75853 l -0.91174,-0.76879 c -0.73857,-0.62726 -2.16169,-1.00071 -7.76398,-2.10866 -3.77423,-0.74398 -7.23095,-1.54339 -7.67858,-1.76658 -0.63311,-0.31363 -1.04062,-1.04594 -1.85199,-3.31945 -0.5733,-1.60685 -1.58256,-4.06052 -2.25082,-5.44198 -0.79118,-1.63456 -1.15463,-2.75563 -1.03997,-3.21953 0.0963,-0.39387 2.00568,-3.46678 4.24527,-6.83802 5.17093,-7.78404 5.12054,-7.30119 1.16819,-11.33909 -2.93761,-3.00363 -4.09538,-3.86067 -5.22826,-3.86067 -0.34355,0 -3.48933,1.90153 -6.9947,4.23047 -3.50538,2.32966 -6.67071,4.24358 -7.03752,4.24578 -0.36616,10e-4 -1.98627,-0.61999 -3.60421,-1.36761 -1.61815,-0.74982 -3.9139,-1.68563 -5.09996,-2.08022 -1.186,-0.39387 -2.40028,-0.94748 -2.69255,-1.23923 -0.35739,-0.35741 -1.00881,-2.94528 -1.99437,-7.892 -1.89444,-9.50978 -1.5323,-9.07653 -7.67857,-9.07506 -3.73091,10e-4 -4.43812,0.0803 -5.31368,0.61268 -0.55653,0.33552 -1.10086,0.94456 -1.19664,1.33916 -0.0941,0.39387 -0.78299,3.80231 -1.53858,7.57909 -0.9897,4.94453 -1.53485,7.01819 -1.95169,7.42154 -0.31801,0.30634 -1.81268,0.98905 -3.30508,1.51057 -1.49248,0.51787 -3.70734,1.45075 -4.92908,2.06562 -1.2218,0.6127 -2.58072,1.12546 -3.02011,1.12546 -0.49743,0 -2.90129,-1.4019 -6.36793,-3.71843 -6.72206,-4.49158 -7.38755,-4.86138 -8.50475,-4.61558 -1.09861,0.24799 -7.147298,6.30265 -7.422128,7.43613 -0.26185,1.08606 0.11743,1.76001 4.615648,8.49082 2.31596,3.46679 3.71821,5.87013 3.71821,6.36758 0,0.43763 -0.50985,1.79794 -1.12545,3.0204 -0.61487,1.22099 -1.54434,3.43615 -2.06563,4.92921 -0.52151,1.49379 -1.176498,2.96132 -1.467318,3.26183 -0.36469,0.37199 -2.72557,0.98759 -7.59308,1.96643 -3.88014,0.77972 -7.30762,1.50766 -7.62154,1.60977 -0.31364,0.10941 -0.84996,0.62728 -1.18242,1.16775 -0.51932,0.85193 -0.59736,1.59955 -0.59809,5.29974 -0.002,6.14584 -0.43472,5.78407 9.07462,7.67829 4.94687,0.98686 7.53474,1.63894 7.89222,1.99488 0.29249,0.29176 0.846018,1.504 1.239378,2.69218 0.39314,1.18526 1.33033,3.48211 2.07992,5.09989 0.74953,1.61852 1.36899,3.23776 1.36761,3.60465 -0.001,0.37198 -1.91676,3.5317 -4.24527,7.03714 -2.328648,3.50545 -4.231038,6.65131 -4.231038,6.99486 0,1.13274 0.84375,2.29173 3.84637,5.22826 4.039858,3.95256 3.569688,4.00216 11.353968,-1.16849 3.37146,-2.23849 6.4462,-4.14804 6.83802,-4.24504 0.46389,-0.10941 1.58482,0.24799 3.2196,1.04011 1.38089,0.66374 3.82163,1.67759 5.42768,2.2509 2.27263,0.81326 3.01749,1.21734 3.33353,1.85192 0.22319,0.45222 1.0186,3.92411 1.76651,7.72131 1.21684,6.17574 1.45352,6.99193 2.22238,7.76362 l 0.8547,0.86943 h 4.65846 c 5.19107,0 5.7656,-0.19693 6.32512,-1.96642 0.17652,-0.56163 0.90758,-3.98247 1.62406,-7.60681 0.74981,-3.79283 1.50481,-6.81396 1.78073,-7.12322 0.26478,-0.29905 1.13924,-0.77607 1.9374,-1.06855 0.79898,-0.29176 2.48227,-0.93363 3.74674,-1.4245 1.26424,-0.4887 2.70728,-0.89715 3.2053,-0.89715 1.85775,0 2.8921,2.55505 1.63828,4.04519 -0.30196,0.3647 -1.68212,1.08388 -3.06285,1.60976 -1.38089,0.53246 -2.71304,1.07367 -2.96315,1.21152 -0.29759,0.16776 -0.90532,2.47992 -1.76651,6.72352 -0.9439,4.65277 -1.53441,6.87011 -2.10837,7.84968 -0.80969,1.38147 -2.47591,2.72865 -4.08859,3.33332 -1.24084,0.4668 -11.38031,0.39387 -12.72158,-0.10211 -1.68875,-0.61269 -3.50494,-2.35156 -4.27378,-4.08896 -0.38804,-0.87892 -1.23479,-4.30049 -1.88045,-7.60682 l -1.18241,-6.01235 -1.45309,-0.53975 c -0.79919,-0.29176 -2.39648,-0.95768 -3.56146,-1.48138 l -2.1226,-0.95478 -5.25678,3.49013 c -6.10689,4.0503 -6.95904,4.45438 -9.40227,4.4449 -2.81143,0 -4.173128,-0.81837 -8.105928,-4.80084 -3.62835,-3.67394 -4.41871,-4.87889 -4.74388,-7.25086 -0.32677,-2.3873 0.39169,-4.01895 4.28801,-9.90074 l 3.63273,-5.4996 -1.33916,-3.14804 c -0.73771,-1.72574 -1.34944,-3.30049 -1.35331,-3.50472 -0.007,-0.4741 -5.1e-4,-0.46681 -6.90929,-1.83733 -6.54853,-1.29613 -7.25925,-1.53391 -8.90366,-2.97738 -2.22828,-1.95476 -2.52566,-2.94163 -2.64973,-8.74683 -0.12108,-5.71039 0.13056,-7.16845 1.5528,-9.13196 1.49663,-2.0649 2.92026,-2.63236 9.98637,-4.04593 3.52995,-0.7075 6.52227,-1.39459 6.63854,-1.52442 0.11597,-0.13859 0.50401,-1.05324 0.86906,-2.05104 0.36542,-0.99562 1.01699,-2.48795 1.4388,-3.31946 l 0.75506,-1.50983 -3.13412,-4.67247 c -3.88757,-5.8001 -4.68304,-7.32745 -4.88632,-9.35953 -0.29613,-2.95986 0.58935,-4.51783 5.00026,-8.86136 4.329948,-4.26328 5.809878,-5.06123 8.732758,-4.7155 1.94324,0.248 3.51603,1.05105 9.21708,4.87232 l 4.67269,3.14805 1.51006,-0.76878 c 0.83194,-0.42304 2.32317,-1.07219 3.3193,-1.43908 0.99598,-0.3647 1.92238,-0.75565 2.05141,-0.86871 0.12983,-0.10941 0.81881,-3.0948 1.52427,-6.62431 1.41174,-7.06633 1.99379,-8.50395 4.06008,-10.00066 1.71793,-1.24508 3.03521,-1.58205 7.16567,-1.56674 z m 336.04636,13.8759 c -4.83548,0 -10.20656,0.248 -13.19173,0.78337 -21.13932,3.77021 -36.29961,15.38939 -39.41834,30.21569 -0.23194,1.10211 -0.39897,3.47919 -0.39897,5.54118 0,6.03934 1.18102,11.11224 3.9034,16.75335 3.61522,7.4901 8.56238,12.31501 17.08078,16.63956 l 2.72099,1.38147 -0.19913,3.37634 c -0.21225,3.7549 -0.82735,6.98464 -2.10845,10.98388 -0.47045,1.46607 -0.8547,2.80159 -0.8547,2.96278 0,0.36469 3.7444,-2.23048 7.1799,-4.97152 v 0 c 1.39408,-1.11378 3.41967,-2.8417 4.50172,-3.83221 1.08205,-0.99197 3.06891,-2.70312 4.41624,-3.80377 l 2.45031,-1.99415 1.76644,0.13129 c 0.97453,0.0803 2.84418,0.25528 4.15984,0.40117 3.61581,0.40116 12.36338,0.32093 16.38275,-0.14589 20.92984,-2.45074 36.4247,-13.9678 40.65779,-30.22955 0.96155,-3.6929 1.2145,-9.61408 0.54121,-12.935 -1.73982,-8.58637 -7.29215,-16.14649 -16.02666,-21.83937 -7.14175,-4.65571 -15.90902,-7.68267 -26.07,-9.01745 -1.87869,-0.24799 -4.59201,-0.37199 -7.4933,-0.38658 z m -1.09692,17.7074 c 26.99282,0 25.42434,-0.13859 26.79654,1.93725 1.56935,2.34864 0.001,5.60318 -2.87774,5.96933 -0.46462,0.0729 -11.85681,0.0729 -25.32915,0 v 0 c -27.59799,-0.13859 -25.54009,0 -26.45459,-2.37927 -0.89898,-2.35009 0.23997,-4.698 2.53572,-5.22754 0.63967,-0.13858 11.56593,-0.25528 25.32922,-0.25528 z m -333.5248,1.68124 c 2.33807,0.003 4.66278,0.28446 6.92345,0.8687 8.572,2.21953 15.97954,8.74903 19.26048,16.98092 1.91618,4.80887 2.50085,11.32743 1.46731,16.24059 -0.59591,2.83368 -2.25162,7.18085 -3.03433,7.96348 -0.67761,0.67833 -2.40327,0.77899 -3.17686,0.21152 v 0 c -0.91692,-0.70021 -1.14667,-1.87161 -0.64113,-3.23338 0.25382,-0.68563 0.83113,-2.23996 1.28212,-3.44782 0.7512,-2.00948 0.8245,-2.59882 0.84047,-7.05175 0.0146,-4.54628 -0.0438,-5.03279 -0.86899,-7.37923 -2.64178,-7.53751 -8.18689,-12.85258 -15.91266,-15.25738 -1.925,-0.59809 -3.04877,-0.73813 -6.26815,-0.74105 -6.13614,-0.004 -10.30277,1.46826 -15.12915,5.35663 -2.50063,2.01238 -3.83995,2.25309 -4.92907,0.86943 -1.13333,-1.442 -0.87118,-2.34645 1.23939,-4.30266 4.91739,-4.55286 11.93281,-7.07655 18.94705,-7.0656 z m -0.19911,13.14871 c 6.0621,0 11.30101,3.31653 13.87553,8.81831 2.82997,6.04737 1.6636,12.4536 -3.11988,17.23767 -3.76905,3.76876 -8.74006,5.33695 -13.78999,4.34497 -0.75813,-0.16776 -2.28853,-0.69291 -3.40479,-1.21078 -5.53556,-2.5886 -8.87521,-7.81322 -8.87521,-13.88977 0,-4.26839 1.50181,-7.92701 4.44475,-10.87009 2.94295,-2.94236 6.60105,-4.43031 10.86959,-4.43031 z m 308.02467,1.18234 h 17.18056 c 16.95399,0 17.19302,0 18.13503,0.5981 1.20217,0.74178 1.78211,1.8541 1.78073,3.40478 -0.001,1.52734 -0.76951,2.79576 -2.05141,3.4048 -0.89074,0.42305 -2.66053,0.4741 -17.67917,0.4741 -15.27809,-7.3e-4 -16.7788,-0.0729 -17.67916,-0.4814 h -0.0146 c -2.70311,-1.36541 -2.9805,-4.61266 -0.5558,-6.65276 z m -332.54187,3.21952 c 0.6105,0 1.20947,0.28446 1.65258,0.76951 0.80605,0.85994 0.80605,1.27352 -0.12838,5.82636 -1.92507,9.37558 2.64893,19.47908 11.0833,24.46008 3.51326,2.07293 6.50944,2.91173 10.94085,3.0773 5.38326,0.21882 8.94917,-0.72209 13.63331,-3.56161 2.09845,-1.2706 3.15563,-1.34354 4.20252,-0.29905 1.09198,1.09189 1.03202,2.49305 -0.15682,3.60392 -2.31405,2.1619 -9.09469,4.85991 -13.09196,5.19981 -1.17439,0.10941 -2.48897,0.21882 -2.92047,0.26987 -0.43107,0.073 -1.94295,0 -3.36198,-0.16776 -9.81094,-0.90151 -18.46697,-6.86574 -22.83617,-15.74168 -1.78116,-3.61851 -2.6697,-7.01746 -2.89196,-11.05463 -0.25892,-4.73155 0.80321,-10.49884 2.17964,-11.78183 0.46316,-0.43034 1.08505,-0.62728 1.69525,-0.5981 z m 24.9161,0.65646 c -0.3151,0 -0.6302,-0.001 -0.95449,0 -2.80508,0.13858 -4.69135,0.94309 -6.68135,2.87743 -2.88473,2.80377 -3.84206,7.16334 -2.40749,10.98388 2.08736,5.55868 8.51656,8.20637 13.94673,5.72717 4.41164,-2.01239 6.87559,-7.11666 5.68406,-11.76725 -1.21415,-4.73956 -4.86066,-7.68703 -9.58746,-7.83509 z m 327.34212,9.94304 0.76922,0.84098 c 1.20472,1.28737 1.47503,3.37999 0.68343,5.35664 -0.25091,0.62727 -0.68781,1.25819 -0.9687,1.40991 -0.30343,0.13858 -4.7325,0.28446 -10.92655,0.28446 h -10.39957 l -0.65498,-0.95477 c -0.53611,-0.75273 -0.655,-1.27133 -0.655,-2.93433 0,-2.32385 0.60759,-3.48649 1.99437,-3.78991 0.44784,-0.13859 5.16867,-0.18235 10.48498,-0.18235 z M 246.31469,448.4937 c -0.39679,0 -0.99999,1.39533 -1.33909,3.09115 -0.87388,4.36905 -3.51981,11.16477 -6.73832,17.72199 23.21845,7.52219 47.76918,11.54259 72.91052,11.55353 31.10329,0 60.81074,-5.99048 88.02536,-16.88173 -0.8684,-2.20494 -1.67335,-4.52076 -2.4646,-7.0656 -1.35054,-4.33841 -2.54542,-8.0437 -2.66395,-8.23408 -0.11013,-0.18963 -5.35496,1.30853 -11.62464,3.33332 -24.14857,7.79571 -52.52051,11.18372 -76.87082,9.17426 -17.13986,-1.41429 -36.09151,-5.08458 -49.10558,-9.50176 -5.17085,-1.75346 -9.73108,-3.19108 -10.12888,-3.19108 z m -49.60419,10.92626 c 6.18574,0 12.097,4.0255 13.77584,10.47111 0.73121,2.80816 0.64405,4.42959 -0.28519,5.35665 -1.72128,1.72354 -4.24527,0.32092 -4.24527,-2.36541 0,-3.00436 -2.7269,-6.66079 -5.82658,-7.82052 -9.13379,-3.41792 -16.56495,7.98025 -9.68717,14.85839 2.91464,2.91465 6.98033,3.46242 10.91233,1.46681 2.30385,-1.16849 3.40347,-1.30123 4.27378,-0.51058 1.50327,1.36177 1.03887,3.10064 -1.21094,4.54556 -3.25708,2.08897 -7.52007,2.72864 -11.32545,1.70969 -8.60803,-2.31289 -12.85301,-12.22749 -8.71847,-20.34341 0.83552,-1.64112 3.51049,-4.44709 5.18546,-5.42811 2.26971,-1.33041 4.73096,-1.93799 7.15145,-1.93799 z m -13.57627,41.64085 -3.63272,2.42231 c -0.21736,0.14587 -0.372,0.22611 -0.56966,0.35739 1.88343,-0.7075 3.70588,-1.46534 5.44198,-2.25162 z" />
</svg>
